<svg xmlns="http://www.w3.org/2000/svg" viewBox="0 0 148 22"><title>backdrop</title><g id="Layer_2" data-name="Layer 2"><g id="Layer_2-2" data-name="Layer 2"><g id="backdrop-logo-black"><g id="text"><path d="M113.89,8.28,114,4.87h-3.28V17.3H114V12c0-3.39,2.38-4.48,4.94-4.13v-3A4,4,0,0,0,113.89,8.28Z" fill="#23231e"/><path d="M48.3,4.58a5.24,5.24,0,0,0-4.33,2V0H40.69V17.3H44V15.6a5.27,5.27,0,0,0,4.33,2c3.57,0,6.11-2.69,6.11-6.5S51.87,4.58,48.3,4.58Zm-.87,10.5a3.66,3.66,0,0,1-3.65-4c0-2.37,1.51-4,3.65-4a3.73,3.73,0,0,1,3.67,4A3.72,3.72,0,0,1,47.43,15.08Z" fill="#23231e"/><path d="M66.81,9.5c0-3-2.3-5-5.58-5s-5.66,2-5.81,4.75h3.17A2.36,2.36,0,0,1,61.12,7a2.25,2.25,0,0,1,2.44,2.45v.5l-2.46.19c-4,.3-6.08,1.76-6.08,4.06,0,2.07,1.72,3.41,4.23,3.41A4.71,4.71,0,0,0,63.71,15a9.45,9.45,0,0,0,.22,2.27h3.19a21,21,0,0,1-.31-3.68Zm-3.2,2.76a3.13,3.13,0,0,1-3.25,3.19c-1.17,0-2.06-.54-2.06-1.63s1.08-1.8,3-2l2.27-.22Z" fill="#23231e"/><path d="M105.54,6.58a5.25,5.25,0,0,0-4.34-2c-3.56,0-6.1,2.69-6.1,6.5s2.54,6.52,6.1,6.52a5.31,5.31,0,0,0,4.34-2v1.7h3.28V0h-3.28Zm-3.46,8.5a3.73,3.73,0,0,1-3.68-4,3.72,3.72,0,0,1,3.68-4,3.65,3.65,0,0,1,3.64,4C105.72,13.45,104.22,15.08,102.08,15.08Z" fill="#23231e"/><path d="M126.06,4.5c-4,0-7,2.75-7,6.58s2.91,6.59,7,6.59S133,14.93,133,11.08,130.07,4.5,126.06,4.5Zm0,10.58c-2.17,0-3.65-1.66-3.65-4a3.66,3.66,0,0,1,3.65-4c2.14,0,3.62,1.65,3.62,4s-1.48,4-3.62,4Z" fill="#23231e"/><path d="M141.89,4.58a5.24,5.24,0,0,0-4.33,2V4.87h-3.28V22h3.28V15.6a5.24,5.24,0,0,0,4.33,2c3.57,0,6.11-2.69,6.11-6.5S145.46,4.58,141.89,4.58ZM141,15.08a3.66,3.66,0,0,1-3.65-4c0-2.37,1.51-4,3.65-4a3.73,3.73,0,0,1,3.68,4A3.72,3.72,0,0,1,141,15.08Z" fill="#23231e"/><path d="M90.53,10.35A7.64,7.64,0,0,0,94.81,4.5H91.29A5.55,5.55,0,0,1,86,9.3h-.09V0H82.64V17.3h3.22V11.81H86a5.5,5.5,0,0,1,5.67,5.41v.09h3.65A9.05,9.05,0,0,0,90.53,10.35Z" fill="#23231e"/><path d="M74.84,15a3.65,3.65,0,0,1-3.67-3.88A3.65,3.65,0,0,1,74.84,7.2a3.16,3.16,0,0,1,3.31,2.67l3.22-.25c-.18-3-3-5.12-6.53-5.12-4,0-6.92,2.79-6.92,6.57s2.9,6.6,6.92,6.6c3.6,0,6.4-2.15,6.56-5.31l-3.26-.22A3.18,3.18,0,0,1,74.84,15Z" fill="#23231e"/></g><path id="circle" d="M9.4,0C3.93,0,0,3.76,0,9s3.93,9.05,9.4,9.05,9.36-3.76,9.36-9S14.83,0,9.4,0Z" fill="#ff0b6f"/><path id="pin" d="M9.38,3.68A4.93,4.93,0,0,0,6,5,4.32,4.32,0,0,0,4.65,8.11c0,2.45,2.42,4.72,4.73,6.27,2.32-1.55,4.74-3.82,4.74-6.27A4.29,4.29,0,0,0,12.73,5,4.91,4.91,0,0,0,9.38,3.68Zm0,6.8A2.57,2.57,0,0,1,8,10.09a2.29,2.29,0,0,1-.91-1A2.24,2.24,0,0,1,6.94,7.7a2.39,2.39,0,0,1,.68-1.19A2.62,2.62,0,0,1,8.9,5.88,2.58,2.58,0,0,1,10.33,6a2.41,2.41,0,0,1,1.12.86,2.2,2.2,0,0,1-.31,2.93A2.57,2.57,0,0,1,9.38,10.48Z" fill="#fffdf8"/><path id="circle_2" data-name="circle 2" d="M27.23,0c-5.47,0-9.4,3.76-9.4,9s3.93,9.05,9.4,9.05,9.36-3.76,9.36-9S32.66,0,27.23,0Z" fill="#ff0b6f"/><path id="star" d="M32.6,8.81v.45A7.11,7.11,0,0,0,29.3,11a6.42,6.42,0,0,0-1.85,3.09H27A6.32,6.32,0,0,0,25.13,11a7,7,0,0,0-3.31-1.73V8.81a7.12,7.12,0,0,0,3.31-1.72A6.39,6.39,0,0,0,27,4h.48a6.49,6.49,0,0,0,1.85,3.1,7.08,7.08,0,0,0,3.31,1.72" fill="#fffdf8"/></g></g></g></svg>