<svg xmlns="http://www.w3.org/2000/svg" viewBox="0 0 261.35 277.07"><title>build-together</title><g id="Layer_2" data-name="Layer 2"><g id="Layer_2-2" data-name="Layer 2"><circle cx="160.17" cy="20" r="20" fill="#f48e26"/><circle cx="102.17" cy="20" r="20" fill="#1d4363"/><path d="M165.17,76l-17-17s34-6,53,12c18.48,17.51,19,35,19,35v43h31v20h-51V103S197.17,80,165.17,76Z" fill="#f48e26"/><path d="M122.17,99c.16-1.23-13.35-9.74-15-11-1.63,5-4.29,9.23-5.35,14.53-1.17,5.86-1.49,11.84-2,17.77-.48,5.57-1.14,11.15-.73,16.72,1.34,18.11,17.42,31,35.06,31,11.75,0,21.54-6,26.12-16.89A64.31,64.31,0,0,0,165.17,129c.37-11.48-.89-23.9-5.36-34.69a58.9,58.9,0,0,0-19.26-24.58c-18.36-13.43-47.42-16-67.91-6.27C56.66,71,44.92,88.21,44.17,106v43h-34v20h51V118.31c0-12.54.71-24.15,11-33.16,6.47-5.68,15-8.61,23.51-9.71,20.86-2.69,45.09,8.39,51.5,29.65a58.27,58.27,0,0,1,2,14.35c.22,5,1.13,10,0,14.86-3,12.7-8.38,16.53-20,15.7C115.18,149,115.17,124,122.17,99Z" fill="#1d4363"/><path d="M0,194H21.29C29.55,194,38,197.72,38,207.5c0,6.07-3.85,10.09-9.49,11.76v.15a12.86,12.86,0,0,1,11.81,13c0,11.68-10.34,15.32-20.68,15.32H0Zm9.72,21.85h8.87c6.48,0,9.72-2.73,9.72-6.75,0-4.63-3.24-6.91-10.57-6.91h-8Zm0,23.67h9c5,0,12-.84,12-7.89,0-5.62-3.7-7.59-11.57-7.59H9.72Z" fill="#1d4363"/><path d="M106.35,228c0,13-9.57,21.09-22.18,21.09S62,241,62,228V194H71.8v33.68c0,5.31,3,12.29,12.37,12.29s12.37-7,12.37-12.29V194h9.81Z" fill="#1d4363"/><path d="M129.56,194h9.16v53.71h-9.16Z" fill="#1d4363"/><path d="M161.35,194h10v45.06h23.81v8.65H161.35Z" fill="#1d4363"/><path d="M214.9,194h20.28c13.52,0,26.17,8.65,26.17,26.85,0,18.36-14.9,26.86-27.26,26.86H214.9Zm16,45.06c11.48,0,20.85-5.16,20.85-18.21s-8.14-18.2-19.33-18.2h-8.36v36.41Z" fill="#1d4363"/><path d="M20.66,267.66H17.42v-2.21h9v2.21H23.15v9.12H20.66Z" fill="#f48e26"/><path d="M53,265.16a6,6,0,1,1,0,11.91,5.74,5.74,0,0,1-6.12-6C46.91,267.48,49.49,265.16,53,265.16Zm0,9.6a3.65,3.65,0,1,0-3.53-3.65A3.42,3.42,0,0,0,53,274.76Z" fill="#f48e26"/><path d="M91,276a10.13,10.13,0,0,1-4.75,1.09,6,6,0,1,1,0-11.91,6.4,6.4,0,0,1,4.51,1.46L89,268.54a3.47,3.47,0,0,0-2.75-1.08,3.65,3.65,0,0,0,0,7.3,4.81,4.81,0,0,0,2.35-.56v-1.84h-2v-2.3H91Z" fill="#f48e26"/><path d="M113.12,265.45h7.7v2.3h-5.2v2.11h4.91v2.31h-4.91v2.3h5.49v2.31h-8Z" fill="#f48e26"/><path d="M145.17,267.66h-3.23v-2.21h9v2.21h-3.23v9.12h-2.5Z" fill="#f48e26"/><path d="M172,265.45h2.5v4.22h4.85v-4.22h2.5v11.33h-2.5v-4.9h-4.85v4.9H172Z" fill="#f48e26"/><path d="M204.14,265.45h7.7v2.3h-5.2v2.11h4.91v2.31h-4.91v2.3h5.49v2.31h-8Z" fill="#f48e26"/><path d="M234,265.45h4.38c2.33,0,4.28.8,4.28,3.44a2.91,2.91,0,0,1-2.45,3.1l2.88,4.79h-3l-2.37-4.53H236.5v4.53H234Zm2.5,4.69H238c.91,0,2.1,0,2.1-1.27s-1-1.31-1.94-1.31H236.5Z" fill="#f48e26"/></g></g></svg>