<svg xmlns="http://www.w3.org/2000/svg" viewBox="0 0 559.47 148.56"><title>dc logo</title><g id="Layer_2" data-name="Layer 2"><g id="Layer_2-2" data-name="Layer 2"><circle cx="74.28" cy="74.28" r="74.28" fill="#18a2db"/><path d="M29.63,46.57l-8,55.42S71.6,114.08,74.11,74.28,29.63,46.57,29.63,46.57ZM59.28,75.66c-2.51,18.12-21,14.24-21,14.24l4.33-30.33S61.79,57.55,59.28,75.66Z" fill="#fff"/><path d="M123.6,64.33l2.51-17s-1.6-1.76-10.26-3.23c-13.65-2.31-26.94,5.06-33.73,16.93-8.41,14.72-5.6,36.85,12.74,42,0,0,10,4.88,22.58-1.27l3.19-18s-.68,1.59-8.89,3.88c-4.51,1.25-12.11.3-15.66-3.22-4.37-4.31-2.52-12.92.81-17.19C101,62,111.19,56.7,117.67,60.68Z" fill="#fff"/><path d="M162.64,43.32h23.75a36.1,36.1,0,0,1,11.49,1.85A27.17,27.17,0,0,1,214.49,60.3,32.85,32.85,0,0,1,217,73.76a28.42,28.42,0,0,1-10.51,23,32.29,32.29,0,0,1-10.31,5.59,35.73,35.73,0,0,1-11.11,1.85H162.64ZM181.37,94.4a37.39,37.39,0,0,0,9.49-1.16,22.44,22.44,0,0,0,7.79-3.61,17.13,17.13,0,0,0,5.24-6.36,21.58,21.58,0,0,0,1.91-9.51,23.94,23.94,0,0,0-1.7-9.46,16.45,16.45,0,0,0-4.73-6.4,19.63,19.63,0,0,0-7.15-3.62,33.55,33.55,0,0,0-9.07-1.16h-9.79V94.4Z" fill="#18a2db"/><path d="M233.64,87.18a10.5,10.5,0,0,0,3.58,7.22,11.1,11.1,0,0,0,7.4,2.58,12.09,12.09,0,0,0,6.43-1.59,17.89,17.89,0,0,0,4.56-4L262.93,97a20.77,20.77,0,0,1-8,6.37,23.44,23.44,0,0,1-9.28,1.89,24.39,24.39,0,0,1-8.69-1.55,20.4,20.4,0,0,1-11.79-11.22,23.51,23.51,0,0,1,0-17.8A20.37,20.37,0,0,1,237,63.44a24.39,24.39,0,0,1,8.69-1.55,19.78,19.78,0,0,1,7.79,1.51,16.68,16.68,0,0,1,6,4.34,20.24,20.24,0,0,1,3.92,7,30.21,30.21,0,0,1,1.4,9.59v2.84Zm21-7.74a9.8,9.8,0,0,0-2.81-7.18,10.49,10.49,0,0,0-7.58-2.63,9.86,9.86,0,0,0-7.28,2.67,12,12,0,0,0-3.28,7.14Z" fill="#18a2db"/><path d="M268,62.93h11.16L290,91.82h.17l11-28.89h10.47l-16.09,41.28h-10.9Z" fill="#18a2db"/><path d="M344.75,75.31a16.37,16.37,0,0,0-3.75-3,8.05,8.05,0,0,0-4-1.12A11.58,11.58,0,0,0,328.19,75a11.62,11.62,0,0,0-2.39,4,13.72,13.72,0,0,0,0,9.29,11.76,11.76,0,0,0,2.39,4A12,12,0,0,0,332,94.92a11.7,11.7,0,0,0,5,1,10,10,0,0,0,4.43-1,9.73,9.73,0,0,0,3.49-2.88l6.81,7.4a15.65,15.65,0,0,1-3.53,2.66,24.08,24.08,0,0,1-4.05,1.81,24.38,24.38,0,0,1-3.91,1,20.92,20.92,0,0,1-3.24.3,24.29,24.29,0,0,1-8.68-1.55,20.65,20.65,0,0,1-7.07-4.39,20.88,20.88,0,0,1-4.73-6.83,23.63,23.63,0,0,1,0-17.8,20.43,20.43,0,0,1,11.8-11.23A24.29,24.29,0,0,1,337,61.89a22.06,22.06,0,0,1,7.87,1.51,17.81,17.81,0,0,1,6.94,4.77Z" fill="#18a2db"/><path d="M365.18,87.18a10.5,10.5,0,0,0,3.58,7.22,11.1,11.1,0,0,0,7.4,2.58,12.09,12.09,0,0,0,6.43-1.59,17.89,17.89,0,0,0,4.56-4L394.47,97a20.85,20.85,0,0,1-8,6.37,23.44,23.44,0,0,1-9.28,1.89,24.39,24.39,0,0,1-8.69-1.55,20.4,20.4,0,0,1-11.79-11.22,23.51,23.51,0,0,1,0-17.8A20.37,20.37,0,0,1,368.5,63.44a24.39,24.39,0,0,1,8.69-1.55A19.78,19.78,0,0,1,385,63.4a16.68,16.68,0,0,1,6,4.34,20.24,20.24,0,0,1,3.92,7,30.21,30.21,0,0,1,1.4,9.59v2.84Zm20.94-7.74a9.76,9.76,0,0,0-2.8-7.18,10.49,10.49,0,0,0-7.58-2.63,9.86,9.86,0,0,0-7.28,2.67,12,12,0,0,0-3.28,7.14Z" fill="#18a2db"/><path d="M405,62.93h9.71v6.62h.17a14.35,14.35,0,0,1,4.43-5.38,13,13,0,0,1,8.09-2.28,15.87,15.87,0,0,1,6.94,1.38A13.25,13.25,0,0,1,439,66.88,13.73,13.73,0,0,1,441.55,72a24.07,24.07,0,0,1,.77,6.11v26.06H432.1V83.31c0-1.15-.06-2.42-.17-3.83a13.8,13.8,0,0,0-.9-4,7.34,7.34,0,0,0-2.25-3.1,6.42,6.42,0,0,0-4.17-1.25,9.69,9.69,0,0,0-4.3.86,8.39,8.39,0,0,0-2.9,2.32,9.45,9.45,0,0,0-1.66,3.36,15.12,15.12,0,0,0-.51,4v22.54H405Z" fill="#18a2db"/><path d="M448.28,71.7V62.93h8.42V51h10.22v12h11.24V71.7H466.92V89.76a9,9,0,0,0,1.15,4.9c.77,1.2,2.28,1.81,4.56,1.81a16.52,16.52,0,0,0,3-.3,6.38,6.38,0,0,0,2.55-1v8.68a12.93,12.93,0,0,1-4,1.08,33,33,0,0,1-4.13.3,20.77,20.77,0,0,1-6.68-.9,8.83,8.83,0,0,1-4.09-2.76,10.5,10.5,0,0,1-2-4.6,32.34,32.34,0,0,1-.56-6.36V71.7Z" fill="#18a2db"/><path d="M493.48,87.18a10.54,10.54,0,0,0,3.58,7.22A11.11,11.11,0,0,0,504.47,97a12.14,12.14,0,0,0,6.43-1.59,17.85,17.85,0,0,0,4.55-4L522.77,97a20.77,20.77,0,0,1-8,6.37,23.41,23.41,0,0,1-9.28,1.89,24.39,24.39,0,0,1-8.69-1.55,20.6,20.6,0,0,1-7.06-4.39A20.88,20.88,0,0,1,485,92.47a23.63,23.63,0,0,1,0-17.8A20.45,20.45,0,0,1,496.8,63.44a24.39,24.39,0,0,1,8.69-1.55,19.75,19.75,0,0,1,7.79,1.51,16.68,16.68,0,0,1,6,4.34,20.08,20.08,0,0,1,3.92,7,29.92,29.92,0,0,1,1.41,9.59v2.84Zm20.95-7.74a9.77,9.77,0,0,0-2.81-7.18A10.48,10.48,0,0,0,504,69.63a9.87,9.87,0,0,0-7.28,2.67,12,12,0,0,0-3.28,7.14Z" fill="#18a2db"/><path d="M533.33,62.93h10.21v6.53h.18a12.88,12.88,0,0,1,4.85-5.59,13.31,13.31,0,0,1,7.24-2,9.31,9.31,0,0,1,1.83.18c.59.11,1.2.25,1.83.43v10c-.86-.23-1.69-.41-2.52-.56a14.39,14.39,0,0,0-2.42-.21A10.88,10.88,0,0,0,548.78,73a10.61,10.61,0,0,0-3.32,3,10.1,10.1,0,0,0-1.53,3.44,12.94,12.94,0,0,0-.39,2.58v22.11H533.33Z" fill="#18a2db"/></g></g></svg>