<svg width="180" height="40" viewBox="0 0 180 40" fill="none" xmlns="http://www.w3.org/2000/svg">
<g clip-path="url(#clip0_1360_631)">
<path d="M106.208 12.3916V39.5709H98.3227V35.6013C97.4645 37.0318 96.338 38.1225 94.9432 38.8735C93.5485 39.6245 91.9749 40 90.2225 40C86.8252 40 84.2861 39.0524 82.6052 37.1569C80.9245 35.2615 80.084 32.4005 80.084 28.574V12.3916H88.1841V28.7349C88.1841 32.0251 89.5967 33.6702 92.422 33.6702C94.1027 33.6702 95.4618 33.0978 96.4989 31.9535C97.536 30.8091 98.0545 29.3071 98.0545 27.4475V12.3916H106.208ZM137.107 0V39.5709H129.114V35.5476C128.291 36.9424 127.129 38.0331 125.627 38.8198C124.125 39.6065 122.427 40 120.531 40C118.207 40 116.132 39.41 114.309 38.2118C112.485 37.0138 111.072 35.3331 110.053 33.1695C109.033 31.0058 108.533 28.5382 108.533 25.7487C108.533 22.9593 109.033 20.5096 110.053 18.3818C111.072 16.2539 112.485 14.6089 114.291 13.4466C116.097 12.2843 118.171 11.7121 120.531 11.7121C122.355 11.7121 124.018 12.1055 125.52 12.8565C127.022 13.6254 128.184 14.6804 129.007 16.0393V0H137.107ZM127.505 31.7747C128.578 30.3978 129.114 28.4309 129.114 25.856C129.114 23.3169 128.578 21.3678 127.487 19.9911C126.396 18.6142 124.876 17.9347 122.909 17.9347C120.907 17.9347 119.351 18.6142 118.242 19.9731C117.134 21.3322 116.579 23.2633 116.579 25.7667C116.579 28.3415 117.134 30.3264 118.242 31.7389C119.351 33.1515 120.907 33.8489 122.909 33.8489C124.912 33.8311 126.432 33.1515 127.505 31.7747ZM168.023 12.3916V39.5709H160.03V35.5476C159.208 36.9424 158.046 38.0331 156.544 38.8198C155.042 39.6065 153.343 40 151.447 40C149.087 40 147.013 39.4278 145.207 38.2835C143.401 37.1391 141.988 35.5118 140.969 33.384C139.95 31.2562 139.449 28.8064 139.449 26.0169C139.449 23.2275 139.95 20.742 140.969 18.5605C141.988 16.3791 143.401 14.6983 145.225 13.5002C147.049 12.3022 149.123 11.7121 151.447 11.7121C153.343 11.7121 155.042 12.1234 156.544 12.9459C158.046 13.7684 159.208 14.8771 160.03 16.2718V12.3916H168.023ZM158.421 31.7925C159.494 30.4336 160.03 28.4667 160.03 25.8918C160.03 23.3169 159.494 21.35 158.421 19.9731C157.348 18.5964 155.811 17.9169 153.808 17.9169C151.805 17.9169 150.249 18.6322 149.141 20.0625C148.032 21.4931 147.478 23.4778 147.478 26.0169C147.478 28.5562 148.014 30.4873 149.105 31.8284C150.196 33.1695 151.751 33.8311 153.79 33.8311C155.811 33.8311 157.348 33.1515 158.421 31.7925ZM78.4569 39.9642H68.4076L57.6074 27.6442V39.9642H49.418V0H57.6074V24.2647L67.9249 12.481H77.7594L66.0831 25.6773L78.4569 39.9642Z" fill="#222222"/>
<path d="M26.9467 39.9642L11.2293 21.8685L19.8122 39.9642H13.8578L5.09611 21.5109L8.74386 39.9642H5.07824L1.43049 21.4753V39.9642H0V0H1.43049V19.9375L5.13187 0H8.77962L5.06035 20.0269L14.0009 0H19.8838L10.9969 19.9553L27.1435 0H36.388L19.6693 20.6347L36.4595 39.9642H26.9467Z" fill="#222222"/>
<path d="M174.81 39.5356C177.259 39.5356 179.244 37.5501 179.244 35.1011C179.244 32.652 177.259 30.6665 174.81 30.6665C172.36 30.6665 170.375 32.652 170.375 35.1011C170.375 37.5501 172.36 39.5356 174.81 39.5356Z" fill="#222222"/>
</g>
<defs>
<clipPath id="clip0_1360_631">
<rect width="180" height="40" fill="white"/>
</clipPath>
</defs>
</svg>
