<svg width="117" height="50" viewBox="0 0 117 50" fill="none" xmlns="http://www.w3.org/2000/svg">
<path d="M39.3828 35.1682V19.5778H42.9342L43.28 21.6838C43.7864 20.9266 44.4718 20.306 45.2753 19.8769C46.1619 19.4124 47.1516 19.1798 48.1523 19.2009C50.5614 19.2009 52.2691 20.1355 53.2753 22.0046C53.8469 21.1395 54.6318 20.4362 55.5541 19.9626C56.5179 19.4566 57.5919 19.1971 58.6803 19.2071C60.7135 19.2071 62.2748 19.8151 63.3641 21.0311C64.4534 22.2471 64.9981 24.028 64.9981 26.3738V35.1744H60.9747V26.7445C60.9747 25.4039 60.7182 24.3774 60.2052 23.6651C59.6923 22.9527 58.9015 22.596 57.833 22.595C56.7426 22.595 55.8677 22.9932 55.2083 23.7897C54.549 24.5862 54.2182 25.6968 54.2161 27.1215V35.1682H50.1943V26.7445C50.1943 25.4039 49.9347 24.3774 49.4155 23.6651C48.8963 22.9527 48.0895 22.596 46.995 22.595C46.5 22.5806 46.0085 22.681 45.5589 22.8883C45.1092 23.0956 44.7136 23.4041 44.4031 23.7897C43.7447 24.5872 43.415 25.6978 43.414 27.1215V35.1682H39.3828Z" fill="#202325"/>
<path d="M74.604 35.5438C73.1794 35.5657 71.7747 35.2082 70.5339 34.508C69.3385 33.8245 68.3504 32.8304 67.674 31.631C66.9721 30.4057 66.6211 28.9862 66.6211 27.3725C66.6211 25.7588 66.9773 24.3392 67.6896 23.1139C68.3753 21.9152 69.3698 20.9222 70.5697 20.2385C71.8127 19.5579 73.2071 19.2012 74.6242 19.2012C76.0414 19.2012 77.4357 19.5579 78.6787 20.2385C79.8741 20.9212 80.8624 21.9148 81.5385 23.1139C82.2395 24.3392 82.5904 25.7588 82.5915 27.3725C82.5925 28.9862 82.2415 30.4057 81.5385 31.631C80.8595 32.8342 79.8647 33.829 78.6616 34.508C77.4241 35.2051 76.0242 35.5625 74.604 35.5438V35.5438ZM74.604 32.0563C75.1165 32.0586 75.624 31.9551 76.0946 31.7522C76.5653 31.5493 76.989 31.2514 77.3392 30.8771C78.1149 30.0921 78.5027 28.9239 78.5027 27.3725C78.5027 25.8211 78.1149 24.6528 77.3392 23.8678C76.5635 23.0827 75.6626 22.6902 74.6367 22.6902C74.1215 22.6845 73.6108 22.7863 73.1371 22.989C72.6635 23.1918 72.2373 23.4911 71.8859 23.8678C71.1206 24.6539 70.7384 25.8221 70.7395 27.3725C70.7405 28.9228 71.1226 30.091 71.8859 30.8771C72.2322 31.2517 72.6527 31.55 73.1207 31.7531C73.5887 31.9561 74.0938 32.0593 74.604 32.0563V32.0563Z" fill="#202325"/>
<path d="M84.2109 35.1685V19.5781H87.7639L88.0754 22.2183C88.5521 21.3036 89.2765 20.5415 90.1658 20.0189C91.0765 19.4738 92.1502 19.2012 93.3869 19.2012C95.3153 19.2012 96.8137 19.8092 97.8823 21.0252C98.9508 22.2412 99.4851 24.022 99.4851 26.3678V35.1685H95.4633V26.7448C95.4633 25.4042 95.1912 24.3777 94.6471 23.6653C94.1029 22.953 93.254 22.5963 92.1003 22.5953C91.5776 22.5798 91.0578 22.6787 90.5773 22.885C90.0968 23.0914 89.6671 23.4002 89.3184 23.79C88.5915 24.5875 88.2281 25.6981 88.2281 27.1217V35.1685H84.2109Z" fill="#202325"/>
<path d="M103.507 17.1589C102.842 17.1834 102.193 16.9464 101.7 16.4984C101.47 16.2875 101.288 16.0295 101.166 15.742C101.043 15.4544 100.985 15.144 100.993 14.8318C100.984 14.522 101.043 14.214 101.165 13.9291C101.287 13.6443 101.47 13.3894 101.7 13.1822C102.21 12.7653 102.849 12.5376 103.508 12.5376C104.167 12.5376 104.805 12.7653 105.315 13.1822C105.546 13.3894 105.729 13.6443 105.851 13.9291C105.973 14.214 106.032 14.522 106.023 14.8318C106.031 15.144 105.972 15.4544 105.85 15.742C105.728 16.0295 105.546 16.2875 105.315 16.4984C104.822 16.9464 104.173 17.1835 103.507 17.1589ZM101.496 35.1682V19.5779H105.52V35.1682H101.496Z" fill="#202325"/>
<path d="M7.48371 27.57L7.43854 27.5327C6.39634 26.6797 5.06019 26.2714 3.71923 26.3962C2.37828 26.521 1.14038 27.1687 0.273438 28.1993L4.14727 31.4423L4.19244 31.4797C5.23464 32.3327 6.57079 32.7409 7.91175 32.6162C9.2527 32.4914 10.4906 31.8436 11.3575 30.813L7.48371 27.57Z" fill="#E66652"/>
<path d="M9.15647 21.8909L9.14557 21.8333C8.89488 20.5106 8.1329 19.3401 7.02486 18.5755C5.91683 17.811 4.55208 17.5141 3.22656 17.7491L4.10507 22.7195L4.11441 22.7772C4.36548 24.0996 5.12754 25.2699 6.23547 26.0344C7.3434 26.7988 8.70795 27.0959 10.0334 26.8613L9.15647 21.8909Z" fill="#E66652"/>
<path d="M14.0864 18.6185L14.116 18.5686C14.7759 17.3973 14.9465 16.0128 14.5906 14.7164C14.2347 13.42 13.3811 12.3166 12.2157 11.6465L9.6861 16.0172L9.6565 16.0671C8.99658 17.2383 8.826 18.6228 9.1819 19.9192C9.53781 21.2157 10.3914 22.319 11.5568 22.9892L14.0864 18.6185Z" fill="#E66652"/>
<path d="M19.9746 19.2755L20.0307 19.2552C21.29 18.7836 22.3122 17.8339 22.8749 16.6125C23.4376 15.3912 23.4952 13.997 23.0354 12.7334L18.2799 14.4577L18.2332 14.4857C16.9739 14.9573 15.9518 15.9071 15.3894 17.1286C14.8269 18.35 14.7697 19.7441 15.2301 21.0075L19.9746 19.2755Z" fill="#E66652"/>
<path d="M24.0625 23.5546L24.117 23.5749C25.3867 24.0211 26.781 23.9492 27.9982 23.3749C29.2153 22.8006 30.1573 21.7701 30.6201 20.5063V20.5063L25.8662 18.7774L25.8117 18.7587C24.542 18.3121 23.1475 18.3837 21.9303 18.958C20.713 19.5324 19.7711 20.5632 19.3086 21.8272V21.8272L24.0625 23.5546Z" fill="#E66652"/>
<path d="M24.4358 29.4545L24.4654 29.5044C25.1541 30.6612 26.2704 31.5006 27.573 31.8411C28.8756 32.1815 30.2598 31.9956 31.4265 31.3237L28.8969 26.9468L28.8673 26.8969C28.1792 25.7394 27.0629 24.8995 25.7601 24.559C24.4572 24.2185 23.0727 24.4048 21.9062 25.0776V25.0776L24.4358 29.4545Z" fill="#E66652"/>
<path d="M20.9221 34.2134L20.9112 34.271C20.6933 35.5982 21.0079 36.9578 21.7866 38.0544C22.5653 39.151 23.7452 39.896 25.0701 40.1277V40.1277L25.9486 35.1573L25.9595 35.0997C26.1774 33.7725 25.8628 32.4129 25.0841 31.3163C24.3054 30.2197 23.1255 29.4747 21.8006 29.243V29.243L20.9221 34.2134Z" fill="#E66652"/>
<path d="M15.165 35.6044L15.1198 35.6418C14.0981 36.5157 13.463 37.758 13.353 39.098C13.243 40.438 13.667 41.7672 14.5326 42.796V42.796L18.408 39.5515L18.4516 39.5141C19.4729 38.6402 20.1076 37.3983 20.2176 36.0587C20.3276 34.719 19.9039 33.3902 19.0388 32.3615V32.3615L15.165 35.6044Z" fill="#E66652"/>
<path d="M9.8551 32.9781H9.79747C8.45233 32.9917 7.16677 33.535 6.21966 34.4903C5.27254 35.4456 4.74026 36.7357 4.73828 38.081H9.8551C11.2002 38.0674 12.4858 37.5241 13.4329 36.5688C14.38 35.6135 14.9123 34.3234 14.9143 32.9781H9.8551Z" fill="#E66652"/>
</svg>
