<svg xmlns="http://www.w3.org/2000/svg" viewBox="0 0 130 103.68"><title>noja</title><g id="Layer_2" data-name="Layer 2"><g id="Layer_2-2" data-name="Layer 2"><path d="M35.42,87.36h-8.1V72.22A7.57,7.57,0,0,0,25,66.65a7.68,7.68,0,0,0-5.6-2.33,7.81,7.81,0,0,0-5.66,2.3,7.58,7.58,0,0,0-2.35,5.6V87.36H3.26V72.21A15.37,15.37,0,0,1,7.94,60.86a15.6,15.6,0,0,1,11.4-4.64,15.6,15.6,0,0,1,11.4,4.64,15.37,15.37,0,0,1,4.68,11.35Z" fill="#6868ff"/><path d="M71.66,72.21a15.91,15.91,0,0,1-16,16.05A15.86,15.86,0,0,1,39.56,72.21a15.37,15.37,0,0,1,4.68-11.35,15.6,15.6,0,0,1,11.4-4.64,15.86,15.86,0,0,1,16,16Zm-8.1,0a8,8,0,0,0-7.92-7.89A7.77,7.77,0,0,0,50,66.62a7.54,7.54,0,0,0-2.34,5.59,8,8,0,1,0,15.9,0Z" fill="#6868ff"/><path d="M84,87.66a15.78,15.78,0,0,1-16,16v-8.1a7.89,7.89,0,0,0,7.92-7.92V56.22H84Zm.72-38.34a4.74,4.74,0,0,1-1.38,3.45,4.59,4.59,0,0,1-3.42,1.41,4.81,4.81,0,0,1-4.86-4.86,4.59,4.59,0,0,1,1.41-3.42,4.74,4.74,0,0,1,3.45-1.38,4.81,4.81,0,0,1,4.8,4.8Z" fill="#6868ff"/><path d="M126.74,87.36h-8.61l-1.7-4.68A16,16,0,0,1,88.16,72.3,15.9,15.9,0,0,1,98.72,57.24a16.17,16.17,0,0,1,5.52-1,15.56,15.56,0,0,1,9.21,2.91,15.83,15.83,0,0,1,5.85,7.71ZM112.16,72.27a7.53,7.53,0,0,0-3.42-6.57,7.78,7.78,0,0,0-4.56-1.38,7.36,7.36,0,0,0-6.48,3.37,8,8,0,0,0-1.44,4.58,7.45,7.45,0,0,0,3.42,6.5,7.88,7.88,0,0,0,10.14-.87A7.63,7.63,0,0,0,112.16,72.27Z" fill="#6868ff"/><path d="M47.66,0V11a14.21,14.21,0,0,1-.09,1.61A15,15,0,0,1,32.66,26h-2a15,15,0,0,1-15-15V0Z" fill="#6868ff" opacity="0.4"/><path d="M15.69,0V11a15,15,0,0,1-15,15H0V8A8,8,0,0,1,8,0Z" fill="#6868ff"/><path d="M81.9,0V11a15,15,0,0,1-15,15H62.48A15,15,0,0,1,47.57,12.61,14.21,14.21,0,0,1,47.48,11V0Z" fill="#6868ff"/><path d="M114.22,0V11a15,15,0,0,1-15,15H96.9a15,15,0,0,1-15-15V0Z" fill="#6868ff" opacity="0.4"/><path d="M130,8V26h-.75a15,15,0,0,1-15-15V0H122A8,8,0,0,1,130,8Z" fill="#6868ff"/></g></g></svg>