<svg height="151.82" viewBox="0 0 799.15 151.82" width="799.15" xmlns="http://www.w3.org/2000/svg"><g fill="#083e9e"><path d="m213.87 123.12v28.7h-18v-93.43h18v4.47a33.54 33.54 0 0 1 18-5.42c20.44 0 35.47 16.25 35.47 35.61s-14.89 35.61-35.47 35.61a31.84 31.84 0 0 1 -18-5.54zm0-38.59v16.52a18.63 18.63 0 1 0 16.79-26.55 18.63 18.63 0 0 0 -16.79 10.03z"/><path d="m277.09 39.56a10 10 0 0 1 10.16-10.43 10.38 10.38 0 0 1 10.56 10.43 10.55 10.55 0 0 1 -10.56 10.44 10.21 10.21 0 0 1 -10.16-10.44zm1.09 18.83h18.28v69.19h-18.28z"/><path d="m307.28 92.79a34.94 34.94 0 0 1 35.48-35.21 38.54 38.54 0 0 1 18.24 4.6v-3.79h17.88v65.26c0 18-15.58 27.76-35.07 27.76-12.73 0-24.92-3.79-32.91-10l7.45-12.86a46.29 46.29 0 0 0 25.46 7.31c12.59 0 16.52-5 17.06-13.13a34.34 34.34 0 0 1 -18.15 5.41c-20.72-.02-35.44-15.45-35.44-35.35zm53.72 7.71v-15.43a18.86 18.86 0 0 0 -16.93-10.84 18.64 18.64 0 0 0 -18.82 18.56c0 10.69 8.12 18.14 18.69 18.14a18.39 18.39 0 0 0 17.06-10.43z"/><path d="m389.73 92.79a34.94 34.94 0 0 1 35.48-35.21 38.57 38.57 0 0 1 18.28 4.6v-3.79h17.87v65.26c0 18-15.57 27.76-35.06 27.76-12.73 0-24.92-3.79-32.91-10l7.45-12.86a46.26 46.26 0 0 0 25.46 7.31c12.59 0 16.52-5 17.06-13.13a34.37 34.37 0 0 1 -18.15 5.41c-20.72-.02-35.48-15.45-35.48-35.35zm53.76 7.71v-15.43a18.87 18.87 0 0 0 -16.93-10.84 18.64 18.64 0 0 0 -18.82 18.56c0 10.69 8.12 18.14 18.69 18.14a18.4 18.4 0 0 0 17.06-10.43z"/><path d="m487.62 58.39 18.15 46.17 18.68-46.17h19l-39.85 93.43h-16.92l10-24.91-29.09-68.52z"/><path d="m540 58.39h19.36l17.64 46.72 17.47-46.72h19l-27.76 69.19h-18.21z"/><path d="m614.75 92.51c0-19.49 13.94-35.61 35.74-35.61 20.18 0 35.51 15.17 35.88 35.1a31.62 31.62 0 0 1 0 5.15h-54.56c.54 9.75 9.88 16.11 19.9 16.11 8.26 0 13.13-2.3 18.82-7l9.89 10.43c-8 8.39-16 12.32-28.71 12.32-23.42-.07-36.96-17.54-36.96-36.5zm18-8.26h34.94c-1.76-6.49-8-12.18-17.47-12.18-10.97 0-15.57 5.55-17.47 12.18z"/><path d="m690.15 120.14 8.85-14.36a49.21 49.21 0 0 0 26.8 8.26c9.08 0 13.68-2.3 13.68-6.22 0-2.58-2.17-4.47-6.77-5.42l-19-4.06c-13.94-3-20.31-9.61-20.31-20.44 0-11.51 9.75-21.13 29.93-21.13 12.18 0 23 3.53 30.46 8.13l-8.26 13.81c-6.09-3.25-14.21-6.77-22.75-6.77-7.71 0-12.18 1.9-12.18 5.41 0 2.31 1.63 3.8 6.09 4.61l16 3c17.33 3.38 24 11.1 24 21.53 0 15-15 22.88-31.42 22.88a66.55 66.55 0 0 1 -35.12-9.23z"/><path d="m760.29 58.39h10.29v-19.09l18-11.64v30.73h10.56v15.71h-10.55v53.49h-18v-53.49h-10.31v-15.71z"/><path d="m150.8 69.52a69 69 0 0 0 -2.15-13c-5.15-19-16-33.95-32.54-44.62a73.47 73.47 0 0 0 -34.78-11.69 78.42 78.42 0 0 0 -15.62.42 77.16 77.16 0 0 0 -16 3.89 75.21 75.21 0 0 0 -49.54 66c-.17 2.69-.17 5.4-.17 8.1v65.64a6.43 6.43 0 0 0 6.43 6.43h25.36a6.48 6.48 0 0 0 6.4-5.76 7.49 7.49 0 0 0 .26-1.89v-1.52a1.37 1.37 0 0 1 0-.35v-.17a1.43 1.43 0 0 1 .48.23 75.38 75.38 0 0 0 30.8 9.2 77.64 77.64 0 0 0 13-.13 74.85 74.85 0 0 0 52.14-28.48 74.12 74.12 0 0 0 15.78-39.25 70.68 70.68 0 0 0 .15-13.05zm-61.8 41.94a1 1 0 0 1 -1 .81h-25a1 1 0 0 1 -1-.81v-.16-.93a14.85 14.85 0 0 1 .38-3.41c.16-.38.26-.83.42-1.25s.32-.81.48-1.22.42-.78.64-1.13l.36-.54a9.86 9.86 0 0 1 .77-1c.29-.36.58-.67.87-1a13.6 13.6 0 0 1 5.34-3.24 8.87 8.87 0 0 1 4.21-16.66 9 9 0 0 1 6.27 2.61 8.86 8.86 0 0 1 -2 14 13.48 13.48 0 0 1 9.26 12.84zm43.1-54.46h-113.16a1.34 1.34 0 0 1 -1.26-1.77 61.33 61.33 0 0 1 115.67 0 1.34 1.34 0 0 1 -1.25 1.77z"/></g></svg>