<svg id="Layer_1" data-name="Layer 1" xmlns="http://www.w3.org/2000/svg" viewBox="0 0 212.99 40"><title>reliance-health-logo</title><g id="logo"><g id="TRUST"><path id="path0_fill" data-name="path0 fill" d="M16,19.64V15.88H4a3.94,3.94,0,0,0-2.79,1.21A4.6,4.6,0,0,0,0,20.24,4.11,4.11,0,0,0,4.12,24H16V36a4,4,0,1,0,8-.13V24H20.24A4.32,4.32,0,0,1,16,19.64Z" transform="translate(0 0)" fill="#094063"/></g><g id="HEALTH"><path id="path1_fill" data-name="path1 fill" d="M39.86,19.64a4.11,4.11,0,0,0-4.12-3.76H23.87V4a4,4,0,1,0-8,.13V16h3.76a4.29,4.29,0,0,1,4.24,4.24V24h12a4,4,0,0,0,2.79-1.21A4.29,4.29,0,0,0,39.86,19.64Z" transform="translate(0 0)" fill="#89cbf0"/></g><g id="INTERSECT"><path id="path2_fill" data-name="path2 fill" d="M19.63,16H15.87v3.76A4.29,4.29,0,0,0,20.11,24h3.76V20.24A4.14,4.14,0,0,0,19.63,16Z" transform="translate(0 0)" fill="#5299d3"/></g></g><g id="R"><path id="path3_fill" data-name="path3 fill" d="M52.1,11.64h4.36c2.43,0,5.58.24,6.55,2.91A4.75,4.75,0,0,1,59,21l5,8H61.43L56.7,21.21H54V29H52.1Zm2.06,7.63H56c1.82,0,4.6.12,5.09-2.06.6-2.78-1.94-3.63-4.12-3.63H54v5.69Z" transform="translate(0 0)" fill="#094063"/></g><g id="e"><path id="path4_fill" data-name="path4 fill" d="M76.82,26.91a6.52,6.52,0,0,1-8.36,1.45,6.44,6.44,0,0,1-2.18-7.27,5.89,5.89,0,0,1,6.42-3.76c3,.49,4.49,3,4.49,5.94v.61H68c.24,3.88,5.09,4.72,7.39,1.94Zm-1.57-4.73c-.12-4.36-6.67-4.12-7.15,0Z" transform="translate(0 0)" fill="#094063"/></g><g id="l"><path id="path5_fill" data-name="path5 fill" d="M80.34,10.43h1.94V28.85H80.34Z" transform="translate(0 0)" fill="#094063"/></g><g id="i"><path id="path6_fill" data-name="path6 fill" d="M87.24,11.64a1.4,1.4,0,0,1,0,2.79A1.4,1.4,0,0,1,87.24,11.64Zm-1,5.82h1.94V28.85H86.27Z" transform="translate(0 0)" fill="#094063"/></g><g id="a"><path id="path7_fill" data-name="path7 fill" d="M91.73,19a6.59,6.59,0,0,1,6.91-1.33c1.81.72,2.42,2.54,2.42,4.48v5c0,.61.12,1.33.12,1.94H99.36a8.11,8.11,0,0,1-.12-1.7c-1.94,3.15-8.48,2.55-8-1.82.36-3.39,4.6-3.51,7.14-3.51h.73V21.7c0-3.28-4.48-2.91-6.18-1.22Zm5.57,4.36c-1.09,0-2.66.12-3.51,1A2,2,0,0,0,94,27.15c2.3,1.7,5.09-.61,5.21-3v-.73Z" transform="translate(0 0)" fill="#094063"/></g><g id="n"><path id="path8_fill" data-name="path8 fill" d="M104.57,20.24c0-1.09-.12-1.94-.12-2.66h1.82v1.93c1-2.06,3.63-2.54,5.57-1.93a4.4,4.4,0,0,1,2.55,4.36v7h-1.7V22.06c0-2.06-1.33-3.51-3.51-3s-2.67,2.42-2.67,4.36V29h-1.94Z" transform="translate(0 0)" fill="#094063"/></g><g id="c"><path id="path9_fill" data-name="path9 fill" d="M126.26,20.36a3.86,3.86,0,0,0-4.72-1A4.13,4.13,0,0,0,119.48,23a4.45,4.45,0,0,0,2.06,4,3.73,3.73,0,0,0,4.72-1l1.46,1.33a6.1,6.1,0,0,1-7,1.21,5.8,5.8,0,0,1-3.15-5.33,6,6,0,0,1,3.15-5.45A6.29,6.29,0,0,1,127.84,19Z" transform="translate(0 0)" fill="#094063"/></g><path id="path10_fill" data-name="path10 fill" d="M140.19,26.91a6.52,6.52,0,0,1-8.36,1.45,6.44,6.44,0,0,1-2.18-7.27,5.89,5.89,0,0,1,6.42-3.76c3,.49,4.49,3,4.49,5.94v.61h-9.21c.24,3.88,5.09,4.72,7.39,1.94Zm-1.69-4.73c-.12-4.36-6.67-4.12-7.15,0Z" transform="translate(0 0)" fill="#094063"/><path d="M143.23,11.68h2.38V19h9.06V11.68h2.38v17.5h-2.38v-8h-9.06v8h-2.38Z" transform="translate(0 0)" fill="#107bc0"/><path d="M162.66,24.14c0,2.05,1.9,3.41,4,3.41a4,4,0,0,0,3.21-1.75l1.68,1.28a6.12,6.12,0,0,1-5.19,2.4,5.82,5.82,0,0,1-6-6.16,5.94,5.94,0,0,1,6.06-6.15c4.12,0,5.71,3.16,5.71,6.18v.79Zm7-1.78A3.17,3.17,0,0,0,166.29,19a3.61,3.61,0,0,0-3.63,3.41Z" transform="translate(0 0)" fill="#107bc0"/><path d="M174.76,18.9a6.94,6.94,0,0,1,4.65-1.73c3.46,0,4.89,1.88,4.89,3.9v6a19,19,0,0,0,.1,2.13h-2c0-.59-.07-1.19-.07-1.78h0a4.45,4.45,0,0,1-4.1,2.08c-2.18,0-4-1.24-4-3.51,0-3,2.89-4,6.45-4h1.63v-.5a2.52,2.52,0,0,0-2.8-2.47,4.88,4.88,0,0,0-3.33,1.33ZM181,23.55c-2.1,0-4.67.37-4.67,2.25,0,1.33,1,1.9,2.52,1.9a3.17,3.17,0,0,0,3.34-3.41v-.74Z" transform="translate(0 0)" fill="#107bc0"/><path d="M187.71,10.5h2.22V29.18h-2.22Z" transform="translate(0 0)" fill="#107bc0"/><path d="M199.75,19.39h-3.19v5.32c0,1.31,0,2.69,1.68,2.69a3.08,3.08,0,0,0,1.58-.35v2a5,5,0,0,1-2,.4c-3.44,0-3.49-2.1-3.49-4V19.39h-2.57V17.47h2.57V14.18h2.23v3.29h3.19Z" transform="translate(0 0)" fill="#107bc0"/><path d="M202.61,10.5h2.22v8.77h0a4.13,4.13,0,0,1,3.86-2.1c2.27,0,4.25,1.36,4.25,4.47v7.54h-2.22V22.26c0-2.2-1.26-3-2.67-3-1.86,0-3.27,1.18-3.27,3.9v6h-2.22Z" transform="translate(0 0)" fill="#107bc0"/></svg>