<svg xmlns="http://www.w3.org/2000/svg" viewBox="0 0 155.63 31.55"><title>simpu</title><g id="Layer_2" data-name="Layer 2"><g id="Layer_2-2" data-name="Layer 2"><polygon points="20.2 12.83 12.2 12.83 8.57 17.36 15.84 17.36 25.78 5.8 27.96 5.8 28.69 12.91 18.63 24.95 2.1 24.95 0 17.11 9.7 5.8 18.43 6.2 20.2 12.83"/><path d="M37.79,23.33a7.66,7.66,0,0,0,0-4.35c2.14,1.71,6.6,2.8,10.36,2.8,3.17,0,4.78-.79,4.78-2.24,0-4.46-15.54.89-15.54-7.23,0-5.25,6.6-5.68,10.36-5.68a32.44,32.44,0,0,1,9.44,1.46,7.17,7.17,0,0,0,.1,4.39,21.72,21.72,0,0,0-9.83-2.41c-3.34,0-4.89.66-4.89,2.24,0,4.79,15.64-1,15.64,7.3,0,4.12-3.76,5.8-9.9,5.8A24.52,24.52,0,0,1,37.79,23.33Z"/><path d="M60.92,2.34C60.92.76,62.07,0,64.32,0,66.76,0,68,.76,68,2.34s-1.25,2.28-3.69,2.28C62.07,4.62,60.92,3.93,60.92,2.34ZM67.19,7.2a131.43,131.43,0,0,0,0,17.75H61.51a122.28,122.28,0,0,0,0-17.75A15.07,15.07,0,0,0,67.19,7.2Z"/><path d="M71.58,7.69a17.83,17.83,0,0,0,6-1.15,40.77,40.77,0,0,0-.92,7.09H77c1.19-4,3.63-7,7.79-7s5.84,3,6,6.44h.33c.86-3.3,3.7-6.44,7.69-6.44,4.23,0,6.21,3.43,6.31,7.59.06,2.44-.17,7.23.56,10.7H100a74,74,0,0,0,.27-7.73c0-4.19-1.29-6.4-4.26-6.4s-4.59,2.38-4.59,7a48.05,48.05,0,0,0,.4,7.13H85.93c.23-2.58.23-5.12.23-7.73,0-4.09-1.22-6.4-4.09-6.4-3.17,0-4.75,2.54-4.75,7A67.2,67.2,0,0,0,77.58,25l-6-.06A74.92,74.92,0,0,0,71.58,7.69Z"/><path d="M132,15.58c0,5.74-4.06,9.9-10.3,9.9a8.46,8.46,0,0,1-6.83-3,84.12,84.12,0,0,0,.49,9.11,25.2,25.2,0,0,0-6.24-.06c.73-4.72.73-17.3,0-23.8a20.72,20.72,0,0,0,6.14-1.15,38.6,38.6,0,0,0-1,6.37h.42a9.57,9.57,0,0,1,8.88-6.31C128.47,6.6,132,10.23,132,15.58Zm-5.35.3c0-3.37-2-5.65-5.68-5.65-5.05,0-6.14,4.13-6.14,7.73v2.7a7.14,7.14,0,0,0,5,1.95C123.65,22.61,126.69,20.27,126.69,15.88Z"/><path d="M155.63,25h-6.11a31.27,31.27,0,0,0,1-6.17h-.42a8.65,8.65,0,0,1-8.62,6.54c-4.95,0-6.47-3.5-6.47-7.6,0-3.43.13-7.22-.46-10.16a16.14,16.14,0,0,0,5.38-.76v8.45c0,3.56,1.35,5.87,4.42,5.87,4.06,0,5.55-2.77,5.55-6.5V7.56a18.41,18.41,0,0,0,5.74-.76A72.21,72.21,0,0,0,155.63,25Z"/></g></g></svg>