<svg xmlns="http://www.w3.org/2000/svg" viewBox="0 0 204.93 50.66"><title>turaco</title><g id="Layer_2" data-name="Layer 2"><g id="Layer_2-2" data-name="Layer 2"><path d="M23.17,14.62V21.3a1.91,1.91,0,0,1-2,2.06h-9.4l-.08,3.72c-.16,9.66,3.16,12.21,8.22,13a2.12,2.12,0,0,1,1.66,2.72l-1.27,5.7a2,2,0,0,1-2,1.65C3.81,50.19-.3,40.29,0,25.18L.41,5.12a2.8,2.8,0,0,1,2-2.89L9.26.09A2.13,2.13,0,0,1,12.11,2L12,12.55h9.24A1.91,1.91,0,0,1,23.17,14.62Z" fill="#003dae"/><path d="M29,29.8V12.55A2.17,2.17,0,0,1,31,10.41h7.73a1.92,1.92,0,0,1,1.93,2.14V31c0,6.27,3.32,8.67,6.72,8.67,4.56,0,6.42-2.31,7.73-5.37V12.55A1.91,1.91,0,0,1,57,10.41h7.5a1.91,1.91,0,0,1,1.93,2.14V47.22a1.91,1.91,0,0,1-1.93,2.14H58a1.91,1.91,0,0,1-1.93-2.14V44.66a13.23,13.23,0,0,1-10.9,5.53C34.73,50.19,29,42.43,29,29.8Z" fill="#003dae"/><path d="M91.3,30.38c0-13.21,9.25-20.8,20.94-20.8a29.38,29.38,0,0,1,14.46,4.05c2,1.23,2.84,2.72,2.84,5.44V47.22a1.93,1.93,0,0,1-2,2.14H121A2,2,0,0,1,119,47.22V44.49c-1.82,3.22-5.93,5.7-11,5.7C99.76,50.19,91.3,43.26,91.3,30.38Zm27.26-7.92a12.18,12.18,0,0,0-7-2.07c-4.42,0-8.61,3.88-8.61,10.16,0,5.69,3.79,9.16,7.82,9.16C117.14,39.71,120,32.61,118.56,22.46Z" fill="#003dae"/><path d="M133.27,30.05c0-12.63,8.21-20.47,18.88-20.47,4.58,0,9.4,1.07,12.48,3.63a2.23,2.23,0,0,1,.4,2.73l-2.85,5a2,2,0,0,1-2.68.91,16.13,16.13,0,0,0-5.77-1.41c-4.9,0-8.85,3.72-8.85,10.07s4.66,9.25,8.85,9.25a14.28,14.28,0,0,0,6.16-1.57c1.27-.66,2.37-.58,3,.66l2.84,4.87a2.25,2.25,0,0,1-.55,2.56,23.17,23.17,0,0,1-13,4C141.48,50.19,133.27,42.68,133.27,30.05Z" fill="#003dae"/><path d="M166.69,29.8c0-12.63,8.21-20.22,18.88-20.22,10.51,0,19.36,7.59,19.36,20.22s-8.85,20.39-19.36,20.39C174.9,50.19,166.69,42.43,166.69,29.8Zm26.54.42c0-6.36-3.39-9.83-7.19-9.83s-7.74,3.47-7.74,9.83,3.48,9.49,7.35,9.49S193.23,36.49,193.23,30.22Z" fill="#003dae"/><path d="M71.58,25.32l12.77-7.65v33S72,46.36,71.58,35.49Z" fill="#ffd900"/><path d="M71.58,23.37,99.71,5.61S93.85-4.81,81,3.53C69.05,11.34,71.58,16.6,71.58,23.37Z" fill="#ff0026"/></g></g></svg>