<svg xmlns="http://www.w3.org/2000/svg" xmlns:xlink="http://www.w3.org/1999/xlink" viewBox="0 0 553 300.2"><defs><clipPath id="clip-path"><path d="M504.85,94.19h-96a8,8,0,0,0-8,8V136a2,2,0,0,1-2.36,2,16.11,16.11,0,0,1-2.64-.72v-35a8,8,0,0,0-8-8H354.08a2,2,0,0,1-2-2.38,17.18,17.18,0,0,1,1.82-5,16,16,0,1,0-28.1.1,16.12,16.12,0,0,1,1.77,4.92,2,2,0,0,1-2,2.36H291.85a8,8,0,0,0-8,8V136.8a15.54,15.54,0,0,1-3.64,1.14,2,2,0,0,1-2.36-2V102.19a8,8,0,0,0-8-8h-96a8,8,0,0,0-8,8V136a2,2,0,0,1-2.36,2,16.11,16.11,0,0,1-2.64-.72v-35a8,8,0,0,0-8-8H119.08a2,2,0,0,1-2-2.38,17.18,17.18,0,0,1,1.82-5,16,16,0,1,0-28.1.1,16.12,16.12,0,0,1,1.77,4.92,2,2,0,0,1-2,2.36H56.85a8,8,0,0,0-8,8v96a8,8,0,0,0,8,8h96a8,8,0,0,0,8-8v-35a17,17,0,0,1,2.62-.73,2,2,0,0,1,2.38,2v33.77a8,8,0,0,0,8,8h96a8,8,0,0,0,8-8V164.42a2,2,0,0,1,2.38-2,16.72,16.72,0,0,1,3.62,1.14v34.6a8,8,0,0,0,8,8h96a8,8,0,0,0,8-8v-35a17,17,0,0,1,2.62-.73,2,2,0,0,1,2.38,2v33.77a8,8,0,0,0,8,8h96a8,8,0,0,0,8-8v-96A8,8,0,0,0,504.85,94.19Zm-360.53,72a16,16,0,0,1,.53-32,16.41,16.41,0,0,1,3,.28,16,16,0,0,0,0,31.43A15.35,15.35,0,0,1,144.32,166.18Zm156.06,0a15.33,15.33,0,0,1-4-.38,16,16,0,0,0,0-31.22,15.34,15.34,0,0,1,3.48-.39,16,16,0,0,1,.53,32Zm78.94,0a16,16,0,0,1,.53-32,16.41,16.41,0,0,1,3,.28,16,16,0,0,0,0,31.43A15.27,15.27,0,0,1,379.32,166.18Z" fill="none"/></clipPath></defs><title>about-hero</title><g id="Layer_2" data-name="Layer 2"><g id="Layer_6" data-name="Layer 6"><g id="about"><g id="puzzle"><path d="M160.85,102.19v36h-.66a15.81,15.81,0,0,1-7.62-2,15.94,15.94,0,0,0-4.72-1.7,16.41,16.41,0,0,0-3-.28,16,16,0,0,0-.53,32,15.35,15.35,0,0,0,3.54-.28,15.53,15.53,0,0,0,4.61-1.63,16.21,16.21,0,0,1,7.73-2.08h.65v36a8,8,0,0,1-8,8h-96a8,8,0,0,1-8-8v-96a8,8,0,0,1,8-8H90.63a2,2,0,0,0,2-2.36,16.12,16.12,0,0,0-1.77-4.92,16,16,0,1,1,28.1-.1,17.18,17.18,0,0,0-1.82,5,2,2,0,0,0,2,2.38h33.77A8,8,0,0,1,160.85,102.19Z" fill="#00c244"/><path d="M363.87,151a16,16,0,0,0,23.6,13.32,16.21,16.21,0,0,1,7.73-2.08h.65v36a8,8,0,0,1-8,8h-96a8,8,0,0,1-8-8v-36h.65a16.21,16.21,0,0,1,7.73,2.08,16,16,0,1,0-.1-28.1,15.81,15.81,0,0,1-7.62,2h-.66v-36a8,8,0,0,1,8-8h33.78a2,2,0,0,0,2-2.36,16.12,16.12,0,0,0-1.77-4.92,16,16,0,1,1,28.1-.1,17.18,17.18,0,0,0-1.82,5,2,2,0,0,0,2,2.38h33.77a8,8,0,0,1,8,8v36h-.66a15.81,15.81,0,0,1-7.62-2A16,16,0,0,0,363.87,151Z" fill="#00a93c"/><path d="M308.83,151a16,16,0,0,1-23.6,13.32,17.18,17.18,0,0,0-5-1.82,2,2,0,0,0-2.38,2v33.77a8,8,0,0,1-8,8h-96a8,8,0,0,1-8-8V164.42a2,2,0,0,0-2.37-2,17.34,17.34,0,0,0-5,1.82,16,16,0,1,1,.1-28.1,16.31,16.31,0,0,0,4.92,1.77,2,2,0,0,0,2.36-2V102.19a8,8,0,0,1,8-8h96a8,8,0,0,1,8,8V136a2,2,0,0,0,2.36,2,16.12,16.12,0,0,0,4.92-1.77A16,16,0,0,1,308.83,151Z" fill="#007933"/><path d="M512.85,102.19v96a8,8,0,0,1-8,8h-96a8,8,0,0,1-8-8V164.42a2,2,0,0,0-2.38-2,17,17,0,0,0-2.62.73,19.6,19.6,0,0,0-2.38,1.09,16,16,0,0,1-8.15,1.91,15.31,15.31,0,0,1-2.46-.28,16,16,0,0,1,0-31.43,16.49,16.49,0,0,1,3-.28,16,16,0,0,1,7.72,2,16.73,16.73,0,0,0,2.28,1.05,16.11,16.11,0,0,0,2.64.72,2,2,0,0,0,2.36-2V102.19a8,8,0,0,1,8-8h96A8,8,0,0,1,512.85,102.19Z" fill="#008a3a"/><g clip-path="url(#clip-path)"><path d="M127.39,69a142.2,142.2,0,0,0-17.27,2.8,121.92,121.92,0,0,0-16.59,5.11A106.55,106.55,0,0,0,78,84.42c-2.44,1.51-4.86,3.06-7.17,4.75s-4.55,3.48-6.67,5.4a54.23,54.23,0,0,0-10.91,13.14,40.93,40.93,0,0,0-3.47,7.83A29.28,29.28,0,0,0,48.41,124,21.51,21.51,0,0,0,50,132.34a19.45,19.45,0,0,0,2.07,3.73l.59.89c.22.28.45.56.68.83.48.54.88,1.13,1.41,1.62a42,42,0,0,0,6.6,5.58c2.35,1.69,4.85,3.19,7.35,4.7,5,3,10.22,5.72,15.18,9a48.06,48.06,0,0,1,13.17,12.44,36.63,36.63,0,0,1,2.4,3.94,37.39,37.39,0,0,1,2,4.21c.3.72.49,1.47.74,2.21a17.38,17.38,0,0,1,.61,2.25l.49,2.29.27,2.32a30.2,30.2,0,0,1-.53,9.34l-.22,1.16c-.08.38-.22.75-.32,1.13l-.68,2.24-.89,2.17c-.16.36-.29.73-.47,1.08l-.55,1a39.31,39.31,0,0,1-5.3,7.62,48.05,48.05,0,0,1-6.78,6.15A64.82,64.82,0,0,1,72,229a81.5,81.5,0,0,1-35,5.11v-.4l4.38-.26,4.35-.45,4.31-.67,4.27-.84A83.65,83.65,0,0,0,70.79,226a66.59,66.59,0,0,0,14.61-8.79,51.49,51.49,0,0,0,6.09-5.8,35.56,35.56,0,0,0,4.59-6.88,39.26,39.26,0,0,0,1.67-3.75l.59-2c.1-.33.22-.65.29-1l.2-1a29.22,29.22,0,0,0,.54-8.14l-.18-2-.39-2a13.89,13.89,0,0,0-.49-2c-.21-.66-.36-1.33-.61-2a37.07,37.07,0,0,0-3.74-7.4,47.87,47.87,0,0,0-11.91-11.93c-4.65-3.41-9.61-6.54-14.5-9.82a73.9,73.9,0,0,1-13.78-11.21,27.84,27.84,0,0,1-4.88-7.53,24.37,24.37,0,0,1-1.78-8.8,33.37,33.37,0,0,1,1.07-8.9,42.52,42.52,0,0,1,3.1-8.44A55,55,0,0,1,61.87,92.15,71.93,71.93,0,0,1,76.2,81.37c2.6-1.47,5.25-2.86,8-4.1s5.49-2.33,8.3-3.29a98.5,98.5,0,0,1,34.92-5.4Z" fill="#fff" opacity="0.4"/><path d="M227.07,69.18A145,145,0,0,0,204.62,84a99.34,99.34,0,0,0-18.14,19.36c-1.2,1.85-2.52,3.65-3.57,5.6a64.66,64.66,0,0,0-3.09,5.89,51.22,51.22,0,0,0-3.77,12.8,57.45,57.45,0,0,0-.16,13.43,129.14,129.14,0,0,0,2.18,13.34c.91,4.42,1.94,8.84,2.72,13.35a92.07,92.07,0,0,1,1.44,13.74,58.37,58.37,0,0,1-1.24,14,40.82,40.82,0,0,1-14.77,23.72,53,53,0,0,1-12,7.19,53.59,53.59,0,0,1-27,4.22l0-.4a60.74,60.74,0,0,0,25.67-6.67,55.18,55.18,0,0,0,10.87-7.31c.84-.7,1.58-1.5,2.38-2.22s1.49-1.57,2.21-2.37a37.21,37.21,0,0,0,3.73-5.21,43.06,43.06,0,0,0,2.91-5.75,50,50,0,0,0,2-6.15,54.07,54.07,0,0,0,1.54-13c0-8.83-1.44-17.74-2.56-26.76s-2.13-18.16-1.15-27.29c.18-1.13.32-2.27.48-3.41l.12-.85.19-.84.38-1.68.36-1.69c.12-.57.31-1.11.47-1.66.34-1.1.64-2.22,1-3.31a65.93,65.93,0,0,1,6-12.53c.62-1,1.3-1.91,1.95-2.87l1-1.43c.35-.46.73-.9,1.09-1.35l2.19-2.7c.78-.85,1.59-1.68,2.39-2.52l1.19-1.25,1.27-1.18,2.53-2.36c.88-.76,1.79-1.46,2.68-2.19s1.78-1.47,2.73-2.12a92.13,92.13,0,0,1,24.19-12.77Z" fill="#fff" opacity="0.4"/><path d="M198.83,250.67a136.75,136.75,0,0,1-2-36.43,146.17,146.17,0,0,1,2.5-18.17c.58-3,1.38-6,2.09-8.95.86-2.93,1.73-5.87,2.71-8.76a177.64,177.64,0,0,1,7-16.91l2-4.1c.65-1.38,1.44-2.69,2.14-4l2.14-4,2.28-3.95c.76-1.32,1.49-2.65,2.26-4l2.41-3.88c.8-1.28,1.55-2.61,2.4-3.87l2.52-3.79a161.33,161.33,0,0,1,10.77-14.76,112.85,112.85,0,0,1,12.71-13.26,93.46,93.46,0,0,1,15-10.79,91,91,0,0,1,16.86-7.68c2.93-1,5.91-1.85,8.92-2.55s6-1.25,9.06-1.73c12.07-1.87,24.16-2.63,35.68-5.57a54.11,54.11,0,0,0,16.19-7,26,26,0,0,0,6.4-6,12.31,12.31,0,0,0,2.45-8.25l.39-.06a11.74,11.74,0,0,1,0,4.65A14.59,14.59,0,0,1,362,61.18a25,25,0,0,1-6.28,6.91,54.16,54.16,0,0,1-16.5,8.43c-11.85,3.69-24.08,4.72-35.89,6.76-2.95.51-5.89,1-8.79,1.68-1.44.35-2.89.68-4.3,1.11s-2.87.75-4.27,1.24a87,87,0,0,0-16.31,7,113.36,113.36,0,0,0-27.9,22.21c-1,1.09-2,2.23-3,3.37s-1.94,2.3-2.89,3.47q-2.87,3.49-5.42,7.24l-2.58,3.72c-.86,1.25-1.62,2.56-2.43,3.83L223.06,142c-.75,1.31-1.46,2.64-2.2,4s-1.44,2.65-2.13,4l-1.94,4.09c-.62,1.37-1.31,2.71-1.86,4.12l-1.72,4.18c-2.28,5.57-4.17,11.29-5.91,17a191.4,191.4,0,0,0-8.07,71.23Z" fill="#fff" opacity="0.4"/><path d="M243.05,223.29a56.2,56.2,0,0,1,1.64-15.76,83.48,83.48,0,0,1,5.09-15.09,86.54,86.54,0,0,1,18-26.23,93,93,0,0,1,12.33-10.1,124.18,124.18,0,0,1,13.65-8,164.32,164.32,0,0,1,29.4-11.45c5.08-1.42,10.24-2.61,15.42-3.57s10.3-1.85,15.41-2.84a162.81,162.81,0,0,0,29.81-8.33,71.74,71.74,0,0,0,13.5-7,47,47,0,0,0,5.9-4.7,34.68,34.68,0,0,0,4.91-5.64,39.84,39.84,0,0,0,3.67-6.58,46.56,46.56,0,0,0,2.44-7.26c.63-2.5,1.13-5.05,1.55-7.62s.74-5.17,1.09-7.77l.4,0c0,2.63,0,5.26-.18,7.89a62.1,62.1,0,0,1-.84,7.9,41.72,41.72,0,0,1-5.44,15.18,42.63,42.63,0,0,1-11.23,11.79,69.7,69.7,0,0,1-14.15,7.77c-9.94,4.07-20.4,6.24-30.77,8-5.2.87-10.41,1.55-15.61,2.19s-10.31,1.4-15.39,2.52a105.22,105.22,0,0,0-29.24,10.74,100.67,100.67,0,0,0-24.2,19.28c-1.74,1.9-3.43,3.83-5.07,5.81s-3.19,4-4.68,6.13-2.87,4.26-4.19,6.47-2.56,4.46-3.71,6.77a101.62,101.62,0,0,0-5.84,14.34,72,72,0,0,0-3.26,15.19Z" fill="#fff" opacity="0.4"/><path d="M345.28,219.62a73.42,73.42,0,0,1,11.22-9.27q3-2.07,6.13-3.94c2.08-1.26,4.16-2.48,6.28-3.65l6.35-3.49,6.35-3.41,12.57-7a235.43,235.43,0,0,0,24.43-15.23,160.76,160.76,0,0,0,21.5-19.13,242,242,0,0,0,18.35-22A256,256,0,0,0,474,108.46c4.82-8.25,9.26-16.75,13.59-25.32s8.49-17.28,12.86-25.89l.36.16c-6.33,18.22-13.6,36.2-23.11,53.17-2.4,4.22-4.92,8.38-7.64,12.42s-5.55,8-8.57,11.8l-2.25,2.87-2.35,2.79c-1.55,1.87-3.18,3.67-4.83,5.46q-5,5.31-10.39,10.2c-1.75,1.66-3.61,3.22-5.41,4.83l-2.78,2.34c-.91.79-1.83,1.58-2.77,2.34l-2.79,2.31-2.82,2.27c-1.87,1.53-3.78,3-5.68,4.51-7.63,5.91-15.31,11.84-23.5,17.05S379,201.24,370.36,205.5s-17.08,8.67-24.81,14.42Z" fill="#fff" opacity="0.4"/><path d="M549.58,130.07c-6,4.34-12.08,8.38-18.2,12.41l-4.6,3-4.63,3c-3.07,2-6.19,3.91-9.33,5.79-6.3,3.75-12.78,7.24-18.92,11.25a213.09,213.09,0,0,0-17.76,12.94c-2.84,2.3-5.58,4.7-8.21,7.17a70.68,70.68,0,0,0-7.3,7.82,35.17,35.17,0,0,0-5.24,9,59.42,59.42,0,0,0-2.79,10.19c-.76,3.54-1.34,7.21-2.38,10.86a19.21,19.21,0,0,1-2.34,5.58,11.82,11.82,0,0,1-2.11,2.41,14.58,14.58,0,0,1-2.61,1.73,18.93,18.93,0,0,1-5.66,1.76,33,33,0,0,1-5.68.39,51.41,51.41,0,0,1-5.57-.37c-1.85-.2-3.67-.47-5.49-.8l0-.4a106.68,106.68,0,0,0,10.92-.47c3.55-.42,7.11-1.15,9.9-2.86s4.14-4.44,4.84-7.92,1.31-7.06,2-10.72a51.22,51.22,0,0,1,3.12-11,38.7,38.7,0,0,1,6.17-9.76c4.92-5.85,11-10.3,17.13-14.38,3.05-2.08,6.19-4,9.23-6s6.1-4.09,9.11-6.2c6-4.21,11.79-8.79,17.84-13,3-2.08,6.1-4.09,9.25-6s6.29-3.81,9.49-5.62c6.4-3.61,12.89-7.08,19.62-10.11Z" fill="#fff" opacity="0.4"/><path d="M192,65.28c-6.22,6.68-12.59,13.11-18.33,20.1-3,3.39-5.72,7-8.52,10.52l-1.05,1.32-1,1.37-2,2.73c-.66.91-1.32,1.83-2,2.72l-1,1.35c-.33.46-.64.93-1,1.39l-3.87,5.56-1,1.39-.9,1.43L149.61,118c-1.19,1.92-2.47,3.8-3.5,5.82l-3.17,6c-.54,1-.95,2.06-1.41,3.09s-.91,2.08-1.34,3.13l-1.3,3.13c-.43,1-.75,2.14-1.12,3.21-.72,2.15-1.44,4.3-2.09,6.47L134,155.47c-.6,2.18-.94,4.42-1.34,6.64l-.6,3.32c-.1.56-.22,1.11-.3,1.66l-.21,1.68c-.26,2.24-.57,4.46-.86,6.69s-.35,4.48-.53,6.72c-.07,1.12-.18,2.23-.22,3.35l0,3.37,0,3.36c0,1.12,0,2.24.06,3.36.15,2.24.25,4.47.35,6.71s.39,4.53.43,6.9a31.71,31.71,0,0,1-.61,7.27,17.49,17.49,0,0,1-3.14,6.93,18.67,18.67,0,0,1-5.68,4.9,31.27,31.27,0,0,1-6.61,2.81c-9,2.71-18.13,3-27,5l-.12-.38c8.56-3.3,17.83-4.5,26.09-7.6a28.68,28.68,0,0,0,5.76-2.87,15.12,15.12,0,0,0,4.42-4.14,14.78,14.78,0,0,0,2.26-5.49,27.83,27.83,0,0,0,.36-6.3c-.07-2.19-.32-4.41-.42-6.73s-.21-4.61-.27-6.92c-.07-1.15,0-2.31,0-3.46l.12-3.46.13-3.46c.08-1.15.22-2.3.33-3.44a122.46,122.46,0,0,1,5.48-27l2.12-6.54c.83-2.13,1.66-4.26,2.45-6.4.42-1.07.79-2.15,1.22-3.21l1.36-3.14c.93-2.08,1.7-4.24,2.69-6.3,2-4.12,3.76-8.34,5.93-12.37l1.56-3.07.78-1.53.86-1.49,3.52-5.92a146,146,0,0,1,17-21.61A156,156,0,0,1,191.78,65Z" fill="#fff" opacity="0.4"/></g></g><g id="shadow"><path d="M478.54,186.84l4.23,19.35H467.36a174.67,174.67,0,0,1,.9-21.19c.17-2,.5-4.34,2.21-5.44s4.35-.29,5.73,1.36S478.08,184.75,478.54,186.84Z" fill="#006629"/><path d="M512.85,146.33v51.86a8,8,0,0,1-8,8H488.21c2.15-8,2.3-13.39.64-25-1-7-3.89-22.56-.76-28.52,1.52-2.88,4.3-4.32,7.46-5.18l.13,0a60.11,60.11,0,0,1,7.17-1.27,34.31,34.31,0,0,1,4.55-.35h.1A26,26,0,0,1,512.85,146.33Z" fill="#006629"/></g><g id="hand"><path d="M553,300.2H504c3.09-14.31-3.33-28.92-11-41.37s-17-24.34-20.71-38.51c-3-11.45-2-23.51-1-35.31.17-2,.5-4.34,2.21-5.44s4.35-.29,5.73,1.36,1.88,3.83,2.34,5.92q3.24,14.86,6.5,29.72c5-15.33,6.08-19.5,3.81-35.37-1-7-3.89-22.56-.76-28.52,1.52-2.88,4.3-4.32,7.46-5.18l.13,0a60.11,60.11,0,0,1,7.17-1.27,34.31,34.31,0,0,1,4.55-.35h.1a22,22,0,0,1,11.29,2.71l.25.15a20,20,0,0,1,6.15,5.78c5.3,7.5,7.24,16.91,7.59,26.09.79,20.42-5.56,40.72-2.87,61.11C535.56,261.75,544.74,281.91,553,300.2Z" fill="#b44f28"/><path d="M505.68,199.1c-1.46,5.91-2.91,11.87-4.74,17.64.76-2.9,1.38-5.92,2-8.89s1.34-5.94,2-8.92a56.86,56.86,0,0,0,.57-18A142.72,142.72,0,0,0,502.2,163c-.68-3-1.42-5.92-2.13-8.88-.5-2.2-1-4.4-1.52-6.61l.13,0q2.22,7.65,4.26,15.34a130.21,130.21,0,0,1,3.55,18A55.29,55.29,0,0,1,505.68,199.1Z" fill="#a33f21"/><path d="M510.5,145.83q2.32,8,4.44,16a130.21,130.21,0,0,1,3.55,18,55.29,55.29,0,0,1-.81,18.32c-1.46,5.91-2.91,11.87-4.74,17.64.76-2.9,1.38-5.92,2-8.89s1.34-5.94,2-8.92a56.86,56.86,0,0,0,.57-18A142.72,142.72,0,0,0,514.2,162c-.68-3-1.42-5.92-2.13-8.88-.55-2.42-1.13-4.83-1.67-7.26Z" fill="#a33f21"/><path d="M528.68,199.1c-1.46,5.91-2.91,11.87-4.74,17.64.76-2.9,1.38-5.92,2-8.89s1.34-5.94,2-8.92a56.86,56.86,0,0,0,.57-18A142.72,142.72,0,0,0,525.2,163c-.68-3-1.42-5.92-2.13-8.88-.42-1.85-.86-3.71-1.28-5.56l.25.15q2,7,3.9,14.11a130.21,130.21,0,0,1,3.55,18A55.29,55.29,0,0,1,528.68,199.1Z" fill="#a33f21"/></g><g id="shadow-2" data-name="shadow"><path d="M85.64,94.19a175.81,175.81,0,0,1-.9,21c-.17,2-.5,4.34-2.21,5.44s-4.35.29-5.73-1.36-1.88-3.83-2.34-5.92q-2.1-9.58-4.19-19.17Z" fill="#02a333"/><path d="M64.91,147.53c-1.52,2.88-4.3,4.32-7.46,5.18l-.13,0A60.11,60.11,0,0,1,50.15,154c-.44.06-.87.12-1.3.16v-52a8,8,0,0,1,8-8h7.89c-2.1,7.94-2.24,13.3-.59,24.82C65.15,126,68,141.57,64.91,147.53Z" fill="#02a333"/></g><g id="hand-2" data-name="hand"><path d="M0,0H49c.89,15.18,3.33,28.92,11,41.37S77,65.72,80.71,79.89c3,11.45,2,23.51,1,35.31-.17,2-.5,4.34-2.21,5.44s-4.35.29-5.73-1.36-1.88-3.83-2.34-5.92Q68.22,98.5,65,83.64C60,99,58.88,103.14,61.15,119c1,7,3.89,22.56.76,28.52-1.52,2.88-4.3,4.32-7.46,5.18l-.13,0A60.11,60.11,0,0,1,47.15,154a34.31,34.31,0,0,1-4.55.35h-.1a22,22,0,0,1-11.29-2.71l-.25-.15a20,20,0,0,1-6.15-5.78c-5.3-7.5-7.24-16.91-7.59-26.09-.79-20.42,5.56-40.72,2.87-61.11C17.44,38.45,8.26,18.29,0,0Z" fill="#a54426"/><path d="M47.32,101.1c1.46-5.91,2.91-11.87,4.74-17.64-.76,2.9-1.38,5.92-2,8.89s-1.34,5.94-2,8.92a56.86,56.86,0,0,0-.57,18,142.72,142.72,0,0,0,3.3,17.91c.68,3,1.42,5.92,2.13,8.88.5,2.2,1,4.4,1.52,6.61l-.13,0q-2.22-7.65-4.26-15.34a130.21,130.21,0,0,1-3.55-18A55.29,55.29,0,0,1,47.32,101.1Z" fill="#82321d"/><path d="M42.5,154.37q-2.32-8-4.44-16a130.21,130.21,0,0,1-3.55-18,55.29,55.29,0,0,1,.81-18.32c1.46-5.91,2.91-11.87,4.74-17.64-.76,2.9-1.38,5.92-2,8.89s-1.34,5.94-2,8.92a56.86,56.86,0,0,0-.57,18,142.72,142.72,0,0,0,3.3,17.91c.68,3,1.42,5.92,2.13,8.88.55,2.42,1.13,4.83,1.67,7.26Z" fill="#82321d"/><path d="M24.32,101.1c1.46-5.91,2.91-11.87,4.74-17.64-.76,2.9-1.38,5.92-2,8.89s-1.34,5.94-2,8.92a56.86,56.86,0,0,0-.57,18,142.72,142.72,0,0,0,3.3,17.91c.68,3,1.42,5.92,2.13,8.88.42,1.85.86,3.71,1.28,5.56l-.25-.15q-2-7-3.9-14.11a130.21,130.21,0,0,1-3.55-18A55.29,55.29,0,0,1,24.32,101.1Z" fill="#82321d"/></g><g id="stars"><polygon points="359.47 3.19 361 9.5 365.35 10.69 361 11.87 359.47 18.18 357.94 11.87 353.59 10.69 357.94 9.5 359.47 3.19" fill="#deceac"/><polygon points="411.35 257.15 413.04 264.13 417.85 265.44 413.04 266.74 411.35 273.72 409.66 266.74 404.85 265.44 409.66 264.13 411.35 257.15" fill="#deceac"/><polygon points="543 0 545.6 10.74 553 12.75 545.6 14.76 543 25.5 540.4 14.76 533 12.75 540.4 10.74 543 0" fill="#deceac"/><polygon points="281.09 33.19 281.94 36.66 284.33 37.32 281.94 37.97 281.09 41.45 280.25 37.97 277.85 37.32 280.25 36.66 281.09 33.19" fill="#deceac"/><polygon points="322.35 243.42 323.78 249.33 327.85 250.44 323.78 251.54 322.35 257.45 320.92 251.54 316.85 250.44 320.92 249.33 322.35 243.42" fill="#deceac"/><polygon points="181.78 260.19 182.84 263.55 185.85 264.18 182.84 264.81 181.78 268.17 180.72 264.81 177.7 264.18 180.72 263.55 181.78 260.19" fill="#deceac"/><polygon points="124.37 24.18 126.72 33.87 133.39 35.69 126.72 37.5 124.37 47.19 122.03 37.5 115.35 35.69 122.03 33.87 124.37 24.18" fill="#deceac"/><polygon points="9.8 275.19 12.35 285.72 19.61 287.69 12.35 289.67 9.8 300.19 7.25 289.67 0 287.69 7.25 285.72 9.8 275.19" fill="#deceac"/></g></g></g></g></svg>