<svg xmlns="http://www.w3.org/2000/svg" viewBox="0 0 400 300"><title>agile</title><g id="Layer_2" data-name="Layer 2"><g id="Layer_5" data-name="Layer 5"><g id="agile"><rect width="400" height="300" fill="#e5e5e5" opacity="0.2"/><rect x="16" y="17" width="366" height="266" rx="4" fill="#ebebeb"/><path d="M16,50h84a0,0,0,0,1,0,0V283a0,0,0,0,1,0,0H20a4,4,0,0,1-4-4V50A0,0,0,0,1,16,50Z" fill="#fff" opacity="0.8"/><rect x="110" y="50" width="84" height="233" fill="#fff" opacity="0.8"/><rect x="204" y="50" width="84" height="233" fill="#fff" opacity="0.8"/><path d="M298,50h84a0,0,0,0,1,0,0V279a4,4,0,0,1-4,4H298a0,0,0,0,1,0,0V50A0,0,0,0,1,298,50Z" fill="#fff" opacity="0.8"/><path d="M20,17h80a0,0,0,0,1,0,0V41a0,0,0,0,1,0,0H16a0,0,0,0,1,0,0V21A4,4,0,0,1,20,17Z" fill="#00c244"/><rect x="110" y="17" width="84" height="24" fill="#00a93c"/><rect x="204" y="17" width="84" height="24" fill="#008a3a"/><path d="M298,17h80a4,4,0,0,1,4,4V41a0,0,0,0,1,0,0H298a0,0,0,0,1,0,0V17A0,0,0,0,1,298,17Z" fill="#007933"/><path d="M46.1,26.06h4.42a.86.86,0,0,1,.37.06.3.3,0,0,1,.16.19,1.06,1.06,0,0,1,0,.33,1,1,0,0,1,0,.33.28.28,0,0,1-.13.18,1.08,1.08,0,0,1-.41.07H49v4a1.94,1.94,0,0,1,0,.27.6.6,0,0,1-.07.2.33.33,0,0,1-.21.17,1.49,1.49,0,0,1-.4,0,1.37,1.37,0,0,1-.39,0,.33.33,0,0,1-.21-.17.6.6,0,0,1-.07-.2,2.1,2.1,0,0,1,0-.28v-4H46.09a.91.91,0,0,1-.38-.06.31.31,0,0,1-.16-.19,1.41,1.41,0,0,1,0-.33,1.34,1.34,0,0,1,0-.33.27.27,0,0,1,.14-.17A.9.9,0,0,1,46.1,26.06Z" fill="#ebebeb"/><path d="M53.79,26a2.82,2.82,0,0,1,2.05.85A2.87,2.87,0,0,1,56.7,29a3,3,0,0,1-.82,2.15,2.71,2.71,0,0,1-2,.89,2.75,2.75,0,0,1-2.06-.88A2.89,2.89,0,0,1,50.93,29a3.22,3.22,0,0,1,.24-1.24,2.83,2.83,0,0,1,.64-1,3,3,0,0,1,.91-.62A2.66,2.66,0,0,1,53.79,26Zm-1.45,3a1.51,1.51,0,0,0,.46,1.15,1.45,1.45,0,0,0,1,.44,1.42,1.42,0,0,0,1-.43A1.51,1.51,0,0,0,55.29,29a1.54,1.54,0,0,0-.45-1.16,1.4,1.4,0,0,0-2,0A1.51,1.51,0,0,0,52.34,29Z" fill="#ebebeb"/><path d="M59.94,26.06h1.47a2.87,2.87,0,0,1,2,.83A2.71,2.71,0,0,1,64.32,29,2.86,2.86,0,0,1,63.46,31a2.8,2.8,0,0,1-2.07.87H59.93c-.32,0-.52-.07-.6-.2a1.09,1.09,0,0,1-.1-.51V26.76a1.56,1.56,0,0,1,0-.27.52.52,0,0,1,.07-.21C59.4,26.14,59.6,26.06,59.94,26.06Zm2.51,4A1.38,1.38,0,0,0,62.91,29a1.44,1.44,0,0,0-.45-1.08,1.46,1.46,0,0,0-1.05-.43h-.77v3h.77A1.47,1.47,0,0,0,62.45,30.06Z" fill="#ebebeb"/><path d="M67.57,26a2.94,2.94,0,0,1,2.92,3,3,3,0,0,1-.83,2.15,2.68,2.68,0,0,1-2,.89,2.75,2.75,0,0,1-2.06-.88A2.88,2.88,0,0,1,64.72,29,3.41,3.41,0,0,1,65,27.8a3,3,0,0,1,.64-1,3,3,0,0,1,.92-.62A2.62,2.62,0,0,1,67.57,26Zm-1.45,3a1.54,1.54,0,0,0,.46,1.15,1.47,1.47,0,0,0,1,.44,1.42,1.42,0,0,0,1-.43A1.48,1.48,0,0,0,69.08,29a1.55,1.55,0,0,0-.46-1.16,1.4,1.4,0,0,0-2,0A1.54,1.54,0,0,0,66.12,29Z" fill="#ebebeb"/><path d="M126.9,26.8a1.94,1.94,0,0,1,0-.27.56.56,0,0,1,.08-.21c.07-.15.28-.22.61-.22s.59.1.66.3a1.39,1.39,0,0,1,0,.41v4.4a2,2,0,0,1,0,.28.59.59,0,0,1-.08.2c-.07.14-.28.22-.61.22s-.59-.11-.65-.31a1.21,1.21,0,0,1,0-.4Z" fill="#ebebeb"/><path d="M132.68,26.34a.38.38,0,0,1,.23-.18,1.54,1.54,0,0,1,.74,0,.53.53,0,0,1,.2.1.26.26,0,0,1,.1.16,1.33,1.33,0,0,1,.05.41v4.39a2,2,0,0,1,0,.28.59.59,0,0,1-.08.2c-.07.14-.28.22-.61.22a1.34,1.34,0,0,1-.43-.05.43.43,0,0,1-.2-.15l-2.34-3.11v2.61c0,.13,0,.22,0,.28a.91.91,0,0,1-.08.2c-.07.14-.28.22-.62.22s-.53-.08-.6-.22a.52.52,0,0,1-.07-.21,1.91,1.91,0,0,1,0-.28V26.78a1,1,0,0,1,.08-.44.36.36,0,0,1,.22-.18,1.37,1.37,0,0,1,.39-.05,1.76,1.76,0,0,1,.38,0,.54.54,0,0,1,.19.1l.18.21c1.12,1.51,1.86,2.51,2.24,3V26.78A1,1,0,0,1,132.68,26.34Z" fill="#ebebeb"/><path d="M140.92,27.27a2.09,2.09,0,0,1,.2.94,2,2,0,0,1-.2.93,1.86,1.86,0,0,1-.53.66,2.2,2.2,0,0,1-1.36.51h-1v.89a1.65,1.65,0,0,1,0,.27.52.52,0,0,1-.07.21c-.07.15-.28.22-.62.22s-.58-.1-.65-.3a1.39,1.39,0,0,1,0-.41V26.8a1.94,1.94,0,0,1,0-.27.74.74,0,0,1,.07-.21c.08-.15.28-.22.62-.22H139a2.2,2.2,0,0,1,1.36.51A1.86,1.86,0,0,1,140.92,27.27Zm-1.42,1.46a.63.63,0,0,0,.23-.52.65.65,0,0,0-.23-.53.75.75,0,0,0-.47-.18h-1v1.4h1A.74.74,0,0,0,139.5,28.73Z" fill="#ebebeb"/><path d="M146.08,30.92a1.24,1.24,0,0,1,.12.42c0,.2-.17.36-.49.5a1,1,0,0,1-.41.11.39.39,0,0,1-.25-.07.45.45,0,0,1-.15-.16c-.05-.1-.26-.57-.62-1.43l-.24,0h-1v.89a1.94,1.94,0,0,1,0,.27.8.8,0,0,1-.08.21c-.07.15-.28.22-.62.22s-.58-.1-.64-.3a1.08,1.08,0,0,1-.05-.41V26.8a1.94,1.94,0,0,1,0-.27.56.56,0,0,1,.08-.21c.07-.15.28-.22.61-.22h1.71a2.2,2.2,0,0,1,1.36.51,1.84,1.84,0,0,1,.52.66,2.09,2.09,0,0,1,.2.94,1.94,1.94,0,0,1-.59,1.47Zm-3-2h1a.71.71,0,0,0,.46-.17.63.63,0,0,0,.23-.52.65.65,0,0,0-.23-.53.75.75,0,0,0-.47-.18h-1Z" fill="#ebebeb"/><path d="M149.28,26A2.92,2.92,0,0,1,152.17,29a3,3,0,0,1-.82,2.14,2.65,2.65,0,0,1-2,.88,2.73,2.73,0,0,1-2-.87,2.88,2.88,0,0,1-.84-2.07,3.22,3.22,0,0,1,.23-1.24,2.89,2.89,0,0,1,1.55-1.57A2.76,2.76,0,0,1,149.28,26Zm-1.44,3a1.51,1.51,0,0,0,.45,1.14,1.44,1.44,0,0,0,1,.44,1.42,1.42,0,0,0,1-.43,1.69,1.69,0,0,0,0-2.3,1.45,1.45,0,0,0-1-.44,1.43,1.43,0,0,0-1,.44A1.54,1.54,0,0,0,147.84,29Z" fill="#ebebeb"/><path d="M155.71,28.41h1.4c.28,0,.45.08.52.22a1,1,0,0,1,.08.44v1.74a.75.75,0,0,1-.22.49,2.7,2.7,0,0,1-2,.68,2.74,2.74,0,0,1-2.05-.89,3,3,0,0,1-.87-2.15,2.8,2.8,0,0,1,.89-2.1,2.92,2.92,0,0,1,3.85-.22.43.43,0,0,1,.21.35.82.82,0,0,1-.18.45c-.2.28-.39.42-.56.42a1.15,1.15,0,0,1-.48-.22,1.38,1.38,0,0,0-.79-.22,1.56,1.56,0,0,0-1.07.42,1.46,1.46,0,0,0-.47,1.11,1.59,1.59,0,0,0,.48,1.17,1.45,1.45,0,0,0,1.07.48,2,2,0,0,0,.79-.15v-.86h-.63a.76.76,0,0,1-.35-.06.31.31,0,0,1-.13-.19,1.42,1.42,0,0,1,0-.33,1.58,1.58,0,0,1,0-.34.29.29,0,0,1,.13-.17A.83.83,0,0,1,155.71,28.41Z" fill="#ebebeb"/><path d="M162.78,30.92a1.24,1.24,0,0,1,.12.42c0,.2-.16.36-.49.5A1,1,0,0,1,162,32a.39.39,0,0,1-.25-.07.45.45,0,0,1-.15-.16c0-.1-.26-.57-.62-1.43l-.24,0h-1v.89a1.94,1.94,0,0,1,0,.27.56.56,0,0,1-.08.21c-.07.15-.28.22-.61.22s-.59-.1-.65-.3a1.33,1.33,0,0,1,0-.41V26.8a1.94,1.94,0,0,1,0-.27.8.8,0,0,1,.08-.21c.07-.15.28-.22.61-.22h1.71a2.2,2.2,0,0,1,1.36.51,1.84,1.84,0,0,1,.52.66,2.09,2.09,0,0,1,.21.94,2,2,0,0,1-.6,1.47Zm-3-2h1a.71.71,0,0,0,.46-.17.6.6,0,0,0,.23-.52.62.62,0,0,0-.23-.53.75.75,0,0,0-.47-.18h-1Z" fill="#ebebeb"/><path d="M164.74,30.5h2.43l.28,0a.52.52,0,0,1,.21.07c.14.08.21.28.21.62s-.1.58-.29.65a1.37,1.37,0,0,1-.41.05H164c-.37,0-.58-.11-.65-.31a1.28,1.28,0,0,1,0-.4V26.8a.77.77,0,0,1,.15-.55.81.81,0,0,1,.57-.15h3.39a.8.8,0,0,1,.21.08c.14.07.21.28.21.62s-.1.58-.29.65a1.44,1.44,0,0,1-.41,0h-2.43v.8h1.56l.28,0a.52.52,0,0,1,.21.07c.14.07.21.28.21.62s-.1.58-.3.65a1.44,1.44,0,0,1-.41,0h-1.55Z" fill="#ebebeb"/><path d="M168.47,31.09a.73.73,0,0,1-.2-.46c0-.13.11-.31.34-.53a.58.58,0,0,1,.42-.19c.14,0,.35.13.61.4a1.23,1.23,0,0,0,.32.25.69.69,0,0,0,.38.13c.49,0,.74-.2.74-.61a.35.35,0,0,0-.21-.3,1.54,1.54,0,0,0-.5-.18,3.77,3.77,0,0,1-.65-.18,3.47,3.47,0,0,1-.65-.29,1.32,1.32,0,0,1-.5-.52,1.8,1.8,0,0,1-.2-.87,1.64,1.64,0,0,1,.52-1.21A1.87,1.87,0,0,1,170.3,26a3,3,0,0,1,.87.12,1.71,1.71,0,0,1,.54.25l.2.15a.61.61,0,0,1,.24.39.83.83,0,0,1-.19.43c-.18.27-.36.4-.55.4a.77.77,0,0,1-.41-.16l-.09-.08-.13-.1a.77.77,0,0,0-.42-.1.75.75,0,0,0-.43.12.4.4,0,0,0-.17.34.42.42,0,0,0,.2.35,1.28,1.28,0,0,0,.51.18,6.59,6.59,0,0,1,.65.15,5.06,5.06,0,0,1,.66.24,1.15,1.15,0,0,1,.5.5,1.64,1.64,0,0,1,.21.86,1.88,1.88,0,0,1-.21.91,1.58,1.58,0,0,1-.54.6,2.45,2.45,0,0,1-1.37.42,2.63,2.63,0,0,1-.7-.09,2,2,0,0,1-.54-.22,1.93,1.93,0,0,1-.59-.49Z" fill="#ebebeb"/><path d="M173.09,31.09a.75.75,0,0,1-.21-.46c0-.13.11-.31.34-.53a.58.58,0,0,1,.42-.19c.15,0,.35.13.62.4a1.08,1.08,0,0,0,.32.25.66.66,0,0,0,.37.13c.5,0,.74-.2.74-.61a.35.35,0,0,0-.2-.3,1.63,1.63,0,0,0-.5-.18,3.77,3.77,0,0,1-.65-.18,3.47,3.47,0,0,1-.65-.29,1.26,1.26,0,0,1-.5-.52,1.7,1.7,0,0,1-.21-.87,1.67,1.67,0,0,1,.52-1.21,1.91,1.91,0,0,1,1.42-.52,2.93,2.93,0,0,1,.86.12,1.71,1.71,0,0,1,.54.25l.2.15a.59.59,0,0,1,.25.39.93.93,0,0,1-.19.43c-.18.27-.37.4-.56.4a.8.8,0,0,1-.41-.16l-.09-.08-.12-.1a.78.78,0,0,0-.43-.1.7.7,0,0,0-.42.12.37.37,0,0,0-.17.34.4.4,0,0,0,.2.35,1.18,1.18,0,0,0,.5.18c.2,0,.42.08.66.15a5.66,5.66,0,0,1,.66.24,1.2,1.2,0,0,1,.5.5,1.74,1.74,0,0,1,.2.86,1.88,1.88,0,0,1-.21.91,1.48,1.48,0,0,1-.53.6A2.48,2.48,0,0,1,175,32a2.71,2.71,0,0,1-.71-.09,2,2,0,0,1-.54-.22,1.87,1.87,0,0,1-.58-.49Z" fill="#ebebeb"/><path d="M229.64,26.1h4.41a1,1,0,0,1,.37,0,.3.3,0,0,1,.16.19,1.06,1.06,0,0,1,0,.33,1,1,0,0,1,0,.33.24.24,0,0,1-.13.17.9.9,0,0,1-.41.08h-1.51v4c0,.12,0,.21,0,.27a.75.75,0,0,1-.08.2.32.32,0,0,1-.21.16,1.37,1.37,0,0,1-.39.05,1.4,1.4,0,0,1-.4-.05.32.32,0,0,1-.2-.16.52.52,0,0,1-.07-.21,1.65,1.65,0,0,1,0-.27v-4h-1.52a.86.86,0,0,1-.37-.06.33.33,0,0,1-.16-.19,1,1,0,0,1,0-.33,1,1,0,0,1,0-.33.29.29,0,0,1,.13-.17A.92.92,0,0,1,229.64,26.1Z" fill="#ebebeb"/><path d="M236.46,30.52h2.72a.74.74,0,0,1,.21.07c.15.08.22.28.22.62s-.1.59-.3.65a1.33,1.33,0,0,1-.41.05h-3.14c-.37,0-.59-.1-.65-.3a1.33,1.33,0,0,1-.05-.41V26.8a.77.77,0,0,1,.15-.55.81.81,0,0,1,.57-.15h3.13l.27,0a.52.52,0,0,1,.21.07c.15.07.22.28.22.62s-.1.59-.3.65a1.33,1.33,0,0,1-.41.05h-2.44v.8h1.85a.56.56,0,0,1,.21.08c.14.07.21.28.21.62s-.1.58-.3.65a1.44,1.44,0,0,1-.41,0h-1.56Z" fill="#ebebeb"/><path d="M240.21,31.1a.75.75,0,0,1-.21-.45c0-.14.12-.32.35-.54a.58.58,0,0,1,.42-.19c.14,0,.35.13.61.4a1.49,1.49,0,0,0,.32.26.79.79,0,0,0,.38.12c.5,0,.74-.2.74-.6a.36.36,0,0,0-.2-.31,1.63,1.63,0,0,0-.5-.18,5.08,5.08,0,0,1-.66-.18,4.27,4.27,0,0,1-.65-.29,1.26,1.26,0,0,1-.5-.52,1.75,1.75,0,0,1-.2-.87,1.64,1.64,0,0,1,.52-1.22A1.89,1.89,0,0,1,242,26a3,3,0,0,1,.87.12,1.79,1.79,0,0,1,.55.25l.19.15c.17.16.25.28.25.39a.86.86,0,0,1-.19.44c-.18.26-.36.39-.56.39a.86.86,0,0,1-.41-.15s0,0-.09-.08a1.1,1.1,0,0,0-.12-.11.81.81,0,0,0-.43-.1.75.75,0,0,0-.43.12.42.42,0,0,0,0,.7,1.18,1.18,0,0,0,.5.18,5.06,5.06,0,0,1,.66.15,3.21,3.21,0,0,1,.66.24,1.12,1.12,0,0,1,.5.49,1.7,1.7,0,0,1,.2.87,1.88,1.88,0,0,1-.2.91,1.61,1.61,0,0,1-.54.61,2.48,2.48,0,0,1-1.37.42,2.71,2.71,0,0,1-.71-.09,2,2,0,0,1-.54-.23,1.93,1.93,0,0,1-.59-.49Z" fill="#ebebeb"/><path d="M244.73,26.1h4.42a1.09,1.09,0,0,1,.37,0,.33.33,0,0,1,.16.19,1.49,1.49,0,0,1,0,.33,1.34,1.34,0,0,1,0,.33.25.25,0,0,1-.14.17.86.86,0,0,1-.4.08h-1.52v4a1.94,1.94,0,0,1,0,.27.69.69,0,0,1-.07.2.32.32,0,0,1-.21.16,1.4,1.4,0,0,1-.4.05,1.37,1.37,0,0,1-.39-.05.32.32,0,0,1-.21-.16.74.74,0,0,1-.07-.21,1.94,1.94,0,0,1,0-.27v-4h-1.52a.91.91,0,0,1-.38-.06.33.33,0,0,1-.16-.19,1.41,1.41,0,0,1,0-.33,1.34,1.34,0,0,1,0-.33.3.3,0,0,1,.14-.17A.87.87,0,0,1,244.73,26.1Z" fill="#ebebeb"/><path d="M250.15,26.8a1.65,1.65,0,0,1,0-.27.52.52,0,0,1,.07-.21c.08-.15.28-.22.62-.22s.59.1.66.3a1.39,1.39,0,0,1,0,.41v4.41a2,2,0,0,1,0,.28.8.8,0,0,1-.08.21c-.07.14-.28.21-.62.21s-.58-.1-.65-.3a1.33,1.33,0,0,1,0-.41Z" fill="#ebebeb"/><path d="M256,26.35a.36.36,0,0,1,.23-.19,1.3,1.3,0,0,1,.38-.05,1.19,1.19,0,0,1,.36,0,.69.69,0,0,1,.21.1.4.4,0,0,1,.1.16,1.39,1.39,0,0,1,0,.41v4.4a2,2,0,0,1,0,.28.74.74,0,0,1-.07.21c-.08.14-.28.21-.62.21a1.34,1.34,0,0,1-.43-.05.43.43,0,0,1-.2-.15c-1.19-1.59-2-2.62-2.35-3.11v2.61a2,2,0,0,1,0,.28.56.56,0,0,1-.08.21c-.07.14-.28.21-.62.21s-.52-.07-.6-.21a.51.51,0,0,1-.07-.22,1.7,1.7,0,0,1,0-.28V26.79a.93.93,0,0,1,.08-.44.36.36,0,0,1,.23-.19,1.35,1.35,0,0,1,.38-.05,1.76,1.76,0,0,1,.38,0,.73.73,0,0,1,.2.1l.18.21c1.12,1.52,1.86,2.52,2.24,3V26.79A1,1,0,0,1,256,26.35Z" fill="#ebebeb"/><path d="M260.94,28.41h1.4c.28,0,.46.09.52.22a1.07,1.07,0,0,1,.08.45v1.75a.68.68,0,0,1-.22.48,2.67,2.67,0,0,1-2,.69,2.8,2.8,0,0,1-2.06-.89,3,3,0,0,1-.87-2.16,2.78,2.78,0,0,1,.89-2.1,2.92,2.92,0,0,1,3.86-.23.42.42,0,0,1,.22.35.82.82,0,0,1-.18.45q-.31.42-.57.42a1,1,0,0,1-.48-.22,1.47,1.47,0,0,0-.8-.22,1.57,1.57,0,0,0-1.07.43,1.43,1.43,0,0,0-.47,1.11,1.59,1.59,0,0,0,.48,1.17,1.49,1.49,0,0,0,1.08.48,2,2,0,0,0,.79-.15v-.86h-.63a.73.73,0,0,1-.35-.06.38.38,0,0,1-.14-.19,1.42,1.42,0,0,1,0-.33,1.05,1.05,0,0,1,0-.34.28.28,0,0,1,.13-.18A1,1,0,0,1,260.94,28.41Z" fill="#ebebeb"/><path d="M329.68,26.06h1.47a2.87,2.87,0,0,1,2,.83,2.75,2.75,0,0,1,.88,2.05A2.86,2.86,0,0,1,333.2,31a2.8,2.8,0,0,1-2.07.87h-1.46c-.32,0-.52-.07-.6-.2a1,1,0,0,1-.1-.51V26.76a1.86,1.86,0,0,1,0-.27.8.8,0,0,1,.08-.21C329.13,26.14,329.34,26.06,329.68,26.06Zm2.51,4a1.41,1.41,0,0,0,.46-1.07,1.44,1.44,0,0,0-.45-1.08,1.46,1.46,0,0,0-1.06-.43h-.76v3h.77A1.49,1.49,0,0,0,332.19,30.06Z" fill="#ebebeb"/><path d="M337.31,26a2.82,2.82,0,0,1,2.05.85,2.87,2.87,0,0,1,.86,2.11,3,3,0,0,1-.82,2.15,2.71,2.71,0,0,1-2,.89,2.75,2.75,0,0,1-2.06-.88,2.89,2.89,0,0,1-.85-2.08,3.22,3.22,0,0,1,.24-1.24,2.83,2.83,0,0,1,.64-1,3,3,0,0,1,.91-.62A2.66,2.66,0,0,1,337.31,26Zm-1.45,3a1.51,1.51,0,0,0,.46,1.15,1.45,1.45,0,0,0,1,.44,1.42,1.42,0,0,0,1-.43,1.51,1.51,0,0,0,.45-1.15,1.54,1.54,0,0,0-.45-1.16,1.4,1.4,0,0,0-2,0A1.51,1.51,0,0,0,335.86,29Z" fill="#ebebeb"/><path d="M344.51,26.31a.36.36,0,0,1,.22-.18,1.4,1.4,0,0,1,.38-.05,1.26,1.26,0,0,1,.37,0l.21.09a.55.55,0,0,1,.1.17,1.39,1.39,0,0,1,0,.41V31.2a2,2,0,0,1,0,.28.74.74,0,0,1-.07.21q-.12.21-.63.21a1.46,1.46,0,0,1-.43,0,.55.55,0,0,1-.19-.15c-1.2-1.6-2-2.64-2.36-3.12V31.2a2,2,0,0,1,0,.28.56.56,0,0,1-.08.21c-.07.14-.28.21-.62.21s-.53-.07-.6-.21a.74.74,0,0,1-.08-.22,1.94,1.94,0,0,1,0-.27V26.76a1,1,0,0,1,.08-.45.36.36,0,0,1,.22-.18,1.37,1.37,0,0,1,.39-.05,1.29,1.29,0,0,1,.38,0,.73.73,0,0,1,.2.1l.18.21c1.12,1.52,1.87,2.53,2.24,3V26.76A1,1,0,0,1,344.51,26.31Z" fill="#ebebeb"/><path d="M347.88,30.5h2.72a.74.74,0,0,1,.21.07c.15.08.22.28.22.62s-.1.59-.3.66a1.39,1.39,0,0,1-.41,0h-3.15c-.37,0-.59-.1-.65-.3a1.25,1.25,0,0,1,0-.4V26.77a.77.77,0,0,1,.15-.55.81.81,0,0,1,.57-.15h3.41a.8.8,0,0,1,.21.08c.15.07.22.28.22.62s-.1.59-.3.65a1.33,1.33,0,0,1-.41.05h-2.44v.8h1.57l.28,0a.52.52,0,0,1,.21.07c.14.08.21.28.21.62s-.1.59-.3.65a1.11,1.11,0,0,1-.41.05h-1.56Z" fill="#ebebeb"/><path d="M90,64.46v21l-12.4,17H28a2,2,0,0,1-2-2v-36a2,2,0,0,1,2-2H88A2,2,0,0,1,90,64.46Z" fill="#deceac"/><polygon points="90 85.46 77.6 102.46 76 102.46 76 85.46 90 85.46" fill="#d6c399"/><rect x="34" y="70.46" width="48" height="2" rx="1" fill="#c3a86f"/><rect x="34" y="81.46" width="40" height="2" rx="1" fill="#c3a86f"/><rect x="34" y="92.46" width="32" height="2" rx="1" fill="#c3a86f"/><path d="M184,120.17v21l-12.4,17H122a2,2,0,0,1-2-2v-36a2,2,0,0,1,2-2h60A2,2,0,0,1,184,120.17Z" fill="#deceac"/><polygon points="184 141.17 171.6 158.17 170 158.17 170 141.17 184 141.17" fill="#d6c399"/><rect x="128" y="126.17" width="48" height="2" rx="1" fill="#c3a86f"/><rect x="128" y="137.17" width="40" height="2" rx="1" fill="#c3a86f"/><rect x="128" y="148.17" width="32" height="2" rx="1" fill="#c3a86f"/><path d="M278,175.71v21l-12.4,17H216a2,2,0,0,1-2-2v-36a2,2,0,0,1,2-2h60A2,2,0,0,1,278,175.71Z" fill="#deceac"/><polygon points="278 196.72 265.6 213.72 264 213.72 264 196.72 278 196.72" fill="#d6c399"/><rect x="222" y="181.71" width="48" height="2" rx="1" fill="#c3a86f"/><rect x="222" y="192.71" width="40" height="2" rx="1" fill="#c3a86f"/><rect x="222" y="203.71" width="32" height="2" rx="1" fill="#c3a86f"/><path d="M372,120.17v21l-12.4,17H310a2,2,0,0,1-2-2v-36a2,2,0,0,1,2-2h60A2,2,0,0,1,372,120.17Z" fill="#deceac"/><polygon points="372 141.17 359.6 158.17 358 158.17 358 141.17 372 141.17" fill="#d6c399"/><rect x="316" y="126.17" width="48" height="2" rx="1" fill="#c3a86f"/><rect x="316" y="137.17" width="40" height="2" rx="1" fill="#c3a86f"/><rect x="316" y="148.17" width="32" height="2" rx="1" fill="#c3a86f"/><path d="M90,231.61v21l-12.4,17H28a2,2,0,0,1-2-2v-36a2,2,0,0,1,2-2H88A2,2,0,0,1,90,231.61Z" fill="#a84036"/><polygon points="90 252.61 77.6 269.61 76 269.61 76 252.61 90 252.61" fill="#a84036"/><rect x="34" y="237.61" width="48" height="2" rx="1" fill="#8b352d"/><rect x="34" y="248.61" width="40" height="2" rx="1" fill="#8b352d"/><rect x="34" y="259.61" width="32" height="2" rx="1" fill="#8b352d"/><rect x="26" y="118.17" width="64" height="40" rx="2" fill="#deceac"/><rect x="34" y="126.17" width="48" height="2" rx="1" fill="#c3a86f"/><rect x="34" y="137.17" width="48" height="2" rx="1" fill="#c3a86f"/><rect x="34" y="148.17" width="32" height="2" rx="1" fill="#c3a86f"/><rect x="120" y="62.46" width="64" height="40" rx="2" fill="#deceac"/><rect x="128" y="70.46" width="48" height="2" rx="1" fill="#c3a86f"/><rect x="128" y="81.46" width="48" height="2" rx="1" fill="#c3a86f"/><rect x="128" y="92.46" width="32" height="2" rx="1" fill="#c3a86f"/><rect x="120" y="173.71" width="64" height="40" rx="2" fill="#a84036"/><rect x="128" y="181.71" width="48" height="2" rx="1" fill="#8b352d"/><rect x="128" y="192.71" width="48" height="2" rx="1" fill="#8b352d"/><rect x="128" y="203.71" width="32" height="2" rx="1" fill="#8b352d"/><rect x="214" y="118.17" width="64" height="40" rx="2" fill="#a84036"/><rect x="222" y="126.17" width="48" height="2" rx="1" fill="#8b352d"/><rect x="222" y="137.17" width="48" height="2" rx="1" fill="#8b352d"/><rect x="222" y="148.17" width="32" height="2" rx="1" fill="#8b352d"/><rect x="308" y="173.71" width="64" height="40" rx="2" fill="#deceac"/><rect x="316" y="181.71" width="48" height="2" rx="1" fill="#c3a86f"/><rect x="316" y="192.71" width="48" height="2" rx="1" fill="#c3a86f"/><rect x="316" y="203.71" width="32" height="2" rx="1" fill="#c3a86f"/><path d="M25.37,212.46l1.08-4.13a14.54,14.54,0,0,0,.44-4.6L25,176.42a2.36,2.36,0,0,1,2.36-2.35H86.69A2.35,2.35,0,0,1,89,176.42l1.89,28a10,10,0,0,1-.31,3.27L89.24,213a1,1,0,0,1-1,.74H26.34A1,1,0,0,1,25.37,212.46Z" fill="#deceac"/><rect x="34" y="181.89" width="48" height="2" rx="1" fill="#c3a86f"/><rect x="34" y="192.89" width="48" height="2" rx="1" fill="#c3a86f"/><rect x="34" y="203.89" width="32" height="2" rx="1" fill="#c3a86f"/><path d="M119.37,268.36l1.08-4.14a14.51,14.51,0,0,0,.44-4.59L119,232.31A2.36,2.36,0,0,1,121.4,230h59.29a2.35,2.35,0,0,1,2.35,2.35l1.89,28a10,10,0,0,1-.31,3.27l-1.38,5.29a1,1,0,0,1-1,.75H120.34A1,1,0,0,1,119.37,268.36Z" fill="#deceac"/><rect x="128" y="237.78" width="48" height="2" rx="1" fill="#c3a86f"/><rect x="128" y="248.78" width="48" height="2" rx="1" fill="#c3a86f"/><rect x="128" y="259.78" width="32" height="2" rx="1" fill="#c3a86f"/><path d="M213.37,268.36l1.08-4.14a14.51,14.51,0,0,0,.44-4.59L213,232.31A2.36,2.36,0,0,1,215.4,230h59.29a2.35,2.35,0,0,1,2.35,2.35l1.89,28a10,10,0,0,1-.31,3.27l-1.38,5.29a1,1,0,0,1-1,.75H214.34A1,1,0,0,1,213.37,268.36Z" fill="#deceac"/><rect x="222" y="237.78" width="48" height="2" rx="1" fill="#c3a86f"/><rect x="222" y="248.78" width="48" height="2" rx="1" fill="#c3a86f"/><rect x="222" y="259.78" width="32" height="2" rx="1" fill="#c3a86f"/><path d="M213.37,101.2l1.08-4.13a14.54,14.54,0,0,0,.44-4.6L213,65.16a2.36,2.36,0,0,1,2.36-2.35h59.29A2.35,2.35,0,0,1,277,65.16l1.89,28a10,10,0,0,1-.31,3.27l-1.38,5.29a1,1,0,0,1-1,.75H214.34A1,1,0,0,1,213.37,101.2Z" fill="#deceac"/><rect x="222" y="70.63" width="48" height="2" rx="1" fill="#c3a86f"/><rect x="222" y="81.63" width="48" height="2" rx="1" fill="#c3a86f"/><rect x="222" y="92.63" width="32" height="2" rx="1" fill="#c3a86f"/><path d="M307.37,101.2l1.08-4.13a14.54,14.54,0,0,0,.44-4.6L307,65.16a2.36,2.36,0,0,1,2.36-2.35h59.29A2.35,2.35,0,0,1,371,65.16l1.89,28a10,10,0,0,1-.31,3.27l-1.38,5.29a1,1,0,0,1-1,.75H308.34A1,1,0,0,1,307.37,101.2Z" fill="#a84036"/><rect x="316" y="70.63" width="48" height="2" rx="1" fill="#8b352d"/><rect x="316" y="81.63" width="48" height="2" rx="1" fill="#8b352d"/><rect x="316" y="92.63" width="32" height="2" rx="1" fill="#8b352d"/></g></g></g></svg>