<svg xmlns="http://www.w3.org/2000/svg" viewBox="0 0 400 300"><title>analytical</title><g id="Layer_2" data-name="Layer 2"><g id="Layer_5" data-name="Layer 5"><g id="analytical"><rect width="400" height="300" fill="#e5e5e5" opacity="0.2"/><rect x="15" y="106" width="140" height="180" rx="12" fill="#e5e5e5" opacity="0.5"/><rect x="15" y="16" width="140" height="12" rx="6" fill="#3d3d3d"/><rect x="15" y="46" width="96" height="12" rx="6" fill="#3d3d3d"/><rect x="15" y="76" width="48" height="12" rx="6" fill="#3d3d3d"/><rect x="270" y="14" width="111" height="128" rx="12" fill="#e5e5e5" opacity="0.5"/><rect x="30" y="180" width="24" height="96" rx="8" fill="#00c244"/><rect x="73" y="156" width="24" height="120" rx="7" fill="#008a3a"/><rect x="116" y="116" width="24" height="160" rx="8" fill="#007933"/><circle cx="213" cy="54" r="40" fill="#00a93c"/><path d="M253,54H213V14A40,40,0,0,1,253,54Z" fill="#007933"/><path d="M381,34.41V130a12,12,0,0,1-12,12H282a12,12,0,0,1-12-12V93.56L299,72l30,10Z" fill="#a84036"/><path d="M231.51,277.88a5.49,5.49,0,0,1-.8-.06,5,5,0,0,1-4.15-4.25L207.61,136.12H172.89a5,5,0,0,1,0-10H212a5,5,0,0,1,4.95,4.31l17.32,125.62,44.57-90.37a5,5,0,0,1,9.1.29l26.58,63.79,7.84-46.08a5,5,0,0,1,4.63-4.15l48.86-2.91a5,5,0,1,1,.59,10l-44.89,2.68-10.08,59.2a5,5,0,0,1-9.54,1.08l-29-69.59L236,275.09A5,5,0,0,1,231.51,277.88Z" fill="#deceac"/></g></g></g></svg>