<svg xmlns="http://www.w3.org/2000/svg" viewBox="0 0 480 702.28"><title>building-exp</title><g id="Layer_2" data-name="Layer 2"><g id="Layer_6" data-name="Layer 6"><g id="building_process" data-name="building process"><g id="full_bulb" data-name="full bulb"><g id="bulb"><path d="M80.63,502.06c-6,.69-7.37-5.3-6.55-7.69l12,.07C86.57,498.12,84.65,502,80.63,502.06Z" fill="#707070"/><path d="M83.65,495.67c-11.48.78-13.71-1.83-12.53-9.38l18,.1C89.5,490.91,88.51,495.49,83.65,495.67Z" fill="#a3a3a3"/><path d="M97.5,468.6a16,16,0,0,1-5.62,12,2.33,2.33,0,0,0-.82,1.75v1.87a3.72,3.72,0,0,1-3.84,3.58l-14.64-.08a3.73,3.73,0,0,1-3.8-3.62l0-1.87a2.34,2.34,0,0,0-.81-1.76,16,16,0,0,1-5.48-12.31c.18-8.89,7.92-16.11,17.35-16.18C89.63,451.93,97.55,459.41,97.5,468.6Z" fill="#f9bf2e"/></g></g><ellipse cx="55.66" cy="452.78" rx="1.66" ry="1.63" fill="#f9bf2e"/><ellipse cx="79.73" cy="443.75" rx="1.66" ry="1.63" fill="#f9bf2e"/><ellipse cx="104.34" cy="453.25" rx="1.66" ry="1.63" fill="#f9bf2e"/><g id="coin"><circle cx="400" cy="151.85" r="30" fill="#f8c23a"/><path d="M409.23,152a11.84,11.84,0,0,0-5.74-2.83L398.8,148a4.07,4.07,0,0,1-1.56-.69,1.25,1.25,0,0,1-.51-1,1.46,1.46,0,0,1,.85-1.29,4.52,4.52,0,0,1,2.23-.48,7.63,7.63,0,0,1,2.56.45,9.06,9.06,0,0,1,2.38,1.26,2.42,2.42,0,0,0,1.26.54,1.32,1.32,0,0,0,1-.38l2.48-2.46a1.32,1.32,0,0,0,.45-1.14,2.13,2.13,0,0,0-.82-1.27,10.43,10.43,0,0,0-2.88-1.72,14.7,14.7,0,0,0-3.65-1V136a.75.75,0,0,0-.26-.58.88.88,0,0,0-.63-.24H398.5a.93.93,0,0,0-.65.24.78.78,0,0,0-.26.58v2.8a10.78,10.78,0,0,0-6,2.74,6.91,6.91,0,0,0-2.25,5.16,6.8,6.8,0,0,0,1.74,4.74,9.26,9.26,0,0,0,4.95,2.66l4.74,1.1a6.32,6.32,0,0,1,2.23.85,1.48,1.48,0,0,1,.63,1.22,1.64,1.64,0,0,1-.89,1.43,4.37,4.37,0,0,1-2.35.55,8.31,8.31,0,0,1-5.75-2.24,2.13,2.13,0,0,0-1.15-.66,1.43,1.43,0,0,0-1.07.33l-3,2.27a1.39,1.39,0,0,0-.61,1.25,2.14,2.14,0,0,0,.77,1.41,11,11,0,0,0,3.4,2.17,16.54,16.54,0,0,0,4.53,1.17v2.7a.83.83,0,0,0,.26.61.9.9,0,0,0,.65.25h3.24a.85.85,0,0,0,.63-.25.8.8,0,0,0,.26-.61v-2.72a10.75,10.75,0,0,0,6.18-2.85,7.27,7.27,0,0,0,2.3-5.33A6.56,6.56,0,0,0,409.23,152Z" fill="#d99d08"/></g><g id="serious_business" data-name="serious business"><path id="handle" d="M256.5,299.35h-3v-5.68h-27v5.68h-3v-7.21a1.52,1.52,0,0,1,1.5-1.54h30a1.52,1.52,0,0,1,1.5,1.54Z" fill="#04773b"/><path d="M238.52,321.82,213,315.16V342a.61.61,0,0,0,.62.61h52.76A.61.61,0,0,0,267,342V315.16l-25.52,6.66A5.93,5.93,0,0,1,238.52,321.82Z" fill="#15a24a"/><path d="M213,307.78v7.38l25.52,6.66a5.93,5.93,0,0,0,3,0L267,315.16v-7.38Z" fill="#04773b"/><path d="M241.48,319.82l28.29-7.38a.29.29,0,0,0,.23-.29v-12.5a.61.61,0,0,0-.6-.61H210.6a.61.61,0,0,0-.6.61v12.5a.29.29,0,0,0,.23.29l28.29,7.38A5.71,5.71,0,0,0,241.48,319.82Z" fill="#d7cbac"/><rect x="235.09" y="318.66" width="9.82" height="5.4" rx="1.8" transform="translate(561.36 81.36) rotate(90)" fill="#e1e1e1"/></g><g id="stars"><polygon points="344.62 0 346.3 6.92 351.07 8.22 346.3 9.52 344.62 16.44 342.95 9.52 338.18 8.22 342.95 6.92 344.62 0" fill="#deceac"/><polygon points="469.04 94.04 471.89 105.81 480 108.02 471.89 110.22 469.04 121.99 466.19 110.22 458.08 108.02 466.19 105.81 469.04 94.04" fill="#deceac"/><polygon points="118.73 247.3 119.89 250.98 123.2 251.67 119.89 252.36 118.73 256.05 117.57 252.36 114.26 251.67 117.57 250.98 118.73 247.3" fill="#deceac"/><polygon points="86.98 73.01 89.55 83.63 96.87 85.62 89.55 87.6 86.98 98.22 84.41 87.6 77.1 85.62 84.41 83.63 86.98 73.01" fill="#deceac"/><polygon points="10.74 360.17 13.54 371.71 21.49 373.87 13.54 376.03 10.74 387.57 7.95 376.03 0 373.87 7.95 371.71 10.74 360.17" fill="#deceac"/></g><rect y="542.28" width="160" height="160" fill="#00c244"/><rect x="160" y="382.28" width="160" height="320" fill="#00a93c"/><rect x="320" y="222.28" width="160" height="480" fill="#008a3a"/></g></g></g></svg>