<svg xmlns="http://www.w3.org/2000/svg" viewBox="0 0 400 300"><title>business</title><g id="Layer_2" data-name="Layer 2"><g id="Layer_5" data-name="Layer 5"><g id="business"><rect width="400" height="300" fill="#e5e5e5" opacity="0.2"/><g id="organizational_chart" data-name="organizational chart"><rect x="17" y="163" width="160" height="120" rx="4" fill="#fff" opacity="0.5"/><path d="M143,224v16h-2V224.5a.5.5,0,0,0-.5-.5h-42a.5.5,0,0,0-.5.5V241H96V224.5a.5.5,0,0,0-.5-.5h-42a.5.5,0,0,0-.5.5V240H51V224a2,2,0,0,1,1.5-1.93A1.68,1.68,0,0,1,53,222H95.5a.5.5,0,0,0,.5-.5V205h2v16.5a.5.5,0,0,0,.5.5H141a1.68,1.68,0,0,1,.5.07,1.89,1.89,0,0,1,.91.52A2,2,0,0,1,143,224Z" fill="#e5e5e5" opacity="0.8"/><rect x="77" y="183" width="40" height="24" rx="2" fill="#007933"/><rect x="81" y="239" width="32" height="24" rx="2" fill="#00a93c"/><rect x="126" y="239" width="32" height="24" rx="2" fill="#00c244"/><rect x="36" y="239" width="32" height="24" rx="2" fill="#008a3a"/></g><g id="chart_two" data-name="chart two"><rect x="188" y="17" width="195" height="161" rx="4" fill="#fff" opacity="0.5"/><path d="M367.39,161l-5.26,3a.25.25,0,0,1-.37-.21v-2h-155a1,1,0,0,1-1-1v-83h-2a.25.25,0,0,1-.22-.37l3-5.26a.24.24,0,0,1,.42,0l3,5.26a.24.24,0,0,1-.21.37h-2v81.5a.51.51,0,0,0,.5.5h153.5v-2a.24.24,0,0,1,.37-.21l5.26,3A.24.24,0,0,1,367.39,161Z" fill="#e5e5e5" opacity="0.8"/><path d="M242,118.75V154H214.25V138.67a1,1,0,0,1,.42-.73l26.79-19A1.07,1.07,0,0,1,242,118.75Z" fill="#e5e5e5" opacity="0.8"/><path d="M291,104.76V154H261V128.1L290.4,105A1,1,0,0,1,291,104.76Z" fill="#e5e5e5" opacity="0.8"/><path d="M356,84.81V154H315V117.5L355.07,85A1,1,0,0,1,356,84.81Z" fill="#e5e5e5" opacity="0.8"/><path d="M261,128.1V154H242V118.75a1.06,1.06,0,0,1,.52.13l17.9,9.68Z" fill="#e5e5e5" opacity="0.4"/><path d="M315,117.5V154H291V104.76a1,1,0,0,1,.49.12l23.44,12.68Z" fill="#e5e5e5" opacity="0.4"/><path d="M356.33,86.53l-.33.27-40.33,32.73a1,1,0,0,1-1.1.1L291.12,107,291,107l-29.86,23.5a.42.42,0,0,1-.14.09,1,1,0,0,1-.95,0l-17.94-9.7L242,121l-26.18,18.56a.92.92,0,0,1-.57.18,1,1,0,0,1-.82-.42.9.9,0,0,1-.18-.43v-.23a1,1,0,0,1,.42-.73l26.79-19a1,1,0,0,1,1.06-.06l17.9,9.68.58-.46L290.4,105a1,1,0,0,1,.6-.21,1,1,0,0,1,.49.12l23.44,12.68.07-.06L355.07,85a1,1,0,0,1,.93-.17.93.93,0,0,1,.48.31A1,1,0,0,1,356.33,86.53Z" fill="#00c244"/><path d="M242.5,123h-1a3,3,0,0,1,0-6h1a3,3,0,0,1,0,6Zm-1-4a1,1,0,0,0,0,2h1a1,1,0,0,0,0-2Z" fill="#007933"/><path d="M291.5,109h-1a3,3,0,0,1,0-6h1a3,3,0,0,1,0,6Zm-1-4a1,1,0,0,0,0,2h1a1,1,0,0,0,0-2Z" fill="#007933"/><path d="M316,121h-1a3,3,0,0,1,0-6h1a3,3,0,0,1,0,6Zm-1-4a1,1,0,0,0,0,2h1a1,1,0,0,0,0-2Z" fill="#007933"/><path d="M356,89h-1a3,3,0,0,1,0-6h1a3,3,0,0,1,0,6Zm-1-4a1,1,0,0,0,0,2h1a1,1,0,0,0,0-2Z" fill="#007933"/><path d="M261,132.5h-1a3,3,0,0,1,0-6h1a3,3,0,0,1,0,6Zm-1-4a1,1,0,0,0,0,2h1a1,1,0,0,0,0-2Z" fill="#007933"/><rect x="203.48" y="31.33" width="48" height="24" rx="2" fill="#e5e5e5" opacity="0.4"/><rect x="261.5" y="31.33" width="48" height="24" rx="2" fill="#e5e5e5" opacity="0.4"/><rect x="319.52" y="31.33" width="48" height="24" rx="2" fill="#e5e5e5" opacity="0.4"/></g><g id="laptop"><rect x="58.5" y="47.5" width="88" height="72" rx="8" fill="#3d3d3d"/><rect x="42.5" y="124.5" width="120" height="8" rx="4" fill="#3d3d3d"/><rect x="62.5" y="51.5" width="80" height="64" rx="4" fill="#e5e5e5" opacity="0.8"/></g><g id="bulls_eye" data-name="bulls eye"><g id="dart"><circle id="_6" data-name="6" cx="323.99" cy="233" r="30" fill="#c3a86f"/><circle id="_5" data-name="5" cx="323.99" cy="233" r="25" fill="#deceac"/><circle id="_4" data-name="4" cx="323.99" cy="233" r="20" fill="#c3a86f"/><circle id="_3" data-name="3" cx="323.99" cy="233" r="15" fill="#deceac"/><circle id="_2" data-name="2" cx="323.99" cy="233" r="10" fill="#a84036"/><circle id="_1" data-name="1" cx="323.99" cy="233" r="5" fill="#8b352d"/></g><path id="bullseye" d="M327.53,229.57c.3-.28.61-.55.93-.83,1.61-1.39,3.32-2.66,5-4,4.86-3.79,9.43-7.94,14.48-11.47s10.67-6.43,16.76-7.35c.48-.07,1.07-.09,1.35.31s-.13,1.2-.6,1.63a61.14,61.14,0,0,1-12.24,8.47c-4.43,2.43-9,4.55-13.52,6.85A81.43,81.43,0,0,0,326.87,231a31,31,0,0,0-2.65,2.21c.67-.73,1.24-1.58,1.93-2.31Q326.81,230.23,327.53,229.57Z" fill="#3d3d3d"/></g><g id="serious_business" data-name="serious business"><path id="handle" d="M255.63,213.09H252v-6.55h-32.4v6.55H216v-8.32a1.78,1.78,0,0,1,1.8-1.77h36a1.79,1.79,0,0,1,1.8,1.77Z" fill="#04773b"/><path d="M234.05,239l-30.62-7.67v31a.73.73,0,0,0,.74.71h63.31a.73.73,0,0,0,.75-.71v-31L237.61,239A7.15,7.15,0,0,1,234.05,239Z" fill="#15a24a"/><path d="M203.43,222.82v8.52L234.05,239a7.15,7.15,0,0,0,3.56,0l30.62-7.67v-8.52Z" fill="#04773b"/><path d="M237.61,236.71l33.95-8.51a.35.35,0,0,0,.27-.34V213.44a.72.72,0,0,0-.72-.71H200.55a.71.71,0,0,0-.72.71v14.42a.35.35,0,0,0,.27.34l34,8.51A7.15,7.15,0,0,0,237.61,236.71Z" fill="#d7cbac"/><rect x="230.16" y="235.25" width="11.33" height="6.48" rx="3.19" transform="translate(474.31 2.66) rotate(90)" fill="#e1e1e1"/></g></g></g></g></svg>