<svg xmlns="http://www.w3.org/2000/svg" viewBox="0 0 400 339"><title>business-bag</title><g id="Layer_2" data-name="Layer 2"><g id="Layer_3" data-name="Layer 3"><g id="serious_business" data-name="serious business"><path id="handle" d="M310,57H290V20H110V57H90V10A10,10,0,0,1,100,0H300a10,10,0,0,1,10,10Z" fill="#04773b"/><path d="M190.12,203.48,20,160.1V335a4.07,4.07,0,0,0,4.14,4H375.86a4.07,4.07,0,0,0,4.14-4V160.1L209.88,203.48A40.06,40.06,0,0,1,190.12,203.48Z" fill="#15a24a"/><path d="M20,112v48.1l170.12,43.38a40.06,40.06,0,0,0,19.76,0L380,160.1V112Z" fill="#04773b"/><path d="M209.88,190.48l188.61-48.1a2,2,0,0,0,1.51-1.93V59a4,4,0,0,0-4-4H4a4,4,0,0,0-4,4v81.45a2,2,0,0,0,1.51,1.93l188.61,48.1A40.06,40.06,0,0,0,209.88,190.48Z" fill="#d7cbac"/><rect x="168" y="182.5" width="64" height="36" rx="5.18" transform="translate(400.5 0.5) rotate(90)" fill="#e1e1e1"/></g></g></g></svg>