<svg xmlns="http://www.w3.org/2000/svg" viewBox="0 0 400 388.72"><title>community-strength</title><g id="Layer_2" data-name="Layer 2"><g id="Layer_3" data-name="Layer 3"><g id="community_strength" data-name="community strength"><g id="Community"><ellipse cx="200.5" cy="107.22" rx="63.25" ry="65" fill="#e1e1e1"/><ellipse cx="327" cy="160.57" rx="47.5" ry="48.81" fill="#d7cbac"/><ellipse cx="73" cy="160.57" rx="47.5" ry="48.81" fill="#04773b"/><path d="M73,237.72h0a73,73,0,0,1,73,73v70a8,8,0,0,1-8,8H8a8,8,0,0,1-8-8v-70a73,73,0,0,1,73-73Z" fill="#d7cbac"/><path d="M327,237.72h0a73,73,0,0,1,73,73v70a8,8,0,0,1-8,8H262a8,8,0,0,1-8-8v-70A73,73,0,0,1,327,237.72Z" fill="#e1e1e1"/><path d="M200.5,194.22h0a100,100,0,0,1,100,100v82a12,12,0,0,1-12,12h-176a12,12,0,0,1-12-12v-82a100,100,0,0,1,100-100Z" fill="#04773b"/></g><path d="M302.34,27.8l3.58,7.11a1.41,1.41,0,0,0,.93.66l7.95,1.13c2.74.39,3.34,2.26,1.35,4.16l-5.72,5.46a1.34,1.34,0,0,0-.36,1.08l1.36,7.74c.47,2.66-1.13,3.82-3.55,2.58L300.71,54a1.39,1.39,0,0,0-1.13,0l-7.17,3.69c-2.42,1.24-4,.08-3.55-2.58l1.36-7.74a1.34,1.34,0,0,0-.36-1.08l-5.72-5.46c-2-1.9-1.39-3.77,1.35-4.16l7.95-1.13a1.41,1.41,0,0,0,.93-.66L298,27.8C299.16,25.41,301.13,25.41,302.34,27.8Z" fill="#f9bf2e"/><path d="M342,42.4l1.43,2.84a.56.56,0,0,0,.37.26L347,46c1.09.16,1.34.91.54,1.67l-2.28,2.17a.53.53,0,0,0-.14.43l.54,3.09c.18,1.06-.45,1.53-1.42,1l-2.86-1.47a.58.58,0,0,0-.45,0l-2.86,1.47c-1,.5-1.6,0-1.42-1l.54-3.09a.53.53,0,0,0-.14-.43l-2.28-2.17c-.8-.76-.55-1.51.54-1.67l3.17-.45a.56.56,0,0,0,.37-.26l1.43-2.84C340.75,41.45,341.54,41.45,342,42.4Z" fill="#f9bf2e"/><path d="M342.66,79.24l2.47,4.9a1,1,0,0,0,.64.46l5.49.78c1.89.26,2.31,1.56.93,2.87L348.24,92a.9.9,0,0,0-.24.75l.93,5.34c.32,1.84-.78,2.64-2.45,1.78l-5-2.54a.94.94,0,0,0-.77,0l-4.95,2.54c-1.67.86-2.77.06-2.45-1.78l.93-5.34a.9.9,0,0,0-.24-.75l-3.95-3.76c-1.38-1.31-1-2.61.93-2.87l5.49-.78a1,1,0,0,0,.64-.46l2.47-4.9C340.46,77.59,341.83,77.59,342.66,79.24Z" fill="#f9bf2e"/><path d="M97.63,27.8,94,34.91a1.39,1.39,0,0,1-.92.66l-8,1.13c-2.74.39-3.35,2.26-1.35,4.16l5.71,5.46a1.31,1.31,0,0,1,.36,1.08l-1.35,7.74c-.47,2.66,1.13,3.82,3.54,2.58L99.26,54a1.39,1.39,0,0,1,1.13,0l7.17,3.69c2.42,1.24,4,.08,3.55-2.58l-1.36-7.74a1.34,1.34,0,0,1,.36-1.08l5.72-5.46c2-1.9,1.38-3.77-1.36-4.16l-8-1.13a1.39,1.39,0,0,1-.92-.66L102,27.8C100.81,25.41,98.83,25.41,97.63,27.8Z" fill="#f9bf2e"/><path d="M58,42.4l-1.43,2.84a.58.58,0,0,1-.37.26L53,46c-1.09.16-1.33.91-.53,1.67l2.28,2.17a.56.56,0,0,1,.14.43l-.54,3.09c-.19,1.06.45,1.53,1.41,1l2.87-1.47a.58.58,0,0,1,.45,0l2.86,1.47c1,.5,1.6,0,1.41-1l-.54-3.09a.53.53,0,0,1,.15-.43l2.28-2.17c.79-.76.55-1.51-.54-1.67L61.5,45.5a.56.56,0,0,1-.37-.26L59.7,42.4C59.22,41.45,58.43,41.45,58,42.4Z" fill="#f9bf2e"/><path d="M57.31,79.24l-2.48,4.9a1,1,0,0,1-.63.46l-5.49.78c-1.89.26-2.31,1.56-.93,2.87L51.72,92a1,1,0,0,1,.25.75L51,98.1c-.32,1.84.78,2.64,2.45,1.78l5-2.54a1,1,0,0,1,.78,0l4.95,2.54c1.67.86,2.77.06,2.45-1.78l-.94-5.34a1,1,0,0,1,.25-.75l4-3.76c1.37-1.31.95-2.61-.94-2.87l-5.48-.78a1,1,0,0,1-.64-.46l-2.47-4.9C59.5,77.59,58.14,77.59,57.31,79.24Z" fill="#f9bf2e"/><path d="M198.49,1.24,196,6.14a1,1,0,0,1-.64.46l-5.48.78c-1.89.26-2.31,1.56-.93,2.87L192.9,14a1,1,0,0,1,.25.75l-.94,5.34c-.32,1.84.78,2.64,2.45,1.78l5-2.54a1,1,0,0,1,.78,0l5,2.54c1.67.86,2.77.06,2.45-1.78l-.94-5.34a1,1,0,0,1,.25-.75L211,10.25c1.38-1.31,1-2.61-.93-2.87l-5.48-.78a1,1,0,0,1-.64-.46l-2.48-4.9C200.68-.41,199.32-.41,198.49,1.24Z" fill="#f9bf2e"/></g></g></g></svg>