<svg xmlns="http://www.w3.org/2000/svg" viewBox="0 0 400 346.5"><title>community</title><g id="Layer_2" data-name="Layer 2"><g id="Layer_3" data-name="Layer 3"><g id="Community"><ellipse cx="200.5" cy="65" rx="63.25" ry="65" fill="#e1e1e1"/><ellipse cx="327" cy="118.35" rx="47.5" ry="48.81" fill="#d7cbac"/><ellipse cx="73" cy="118.35" rx="47.5" ry="48.81" fill="#04773b"/><path d="M73,195.5h0a73,73,0,0,1,73,73v70a8,8,0,0,1-8,8H8a8,8,0,0,1-8-8v-70a73,73,0,0,1,73-73Z" fill="#d7cbac"/><path d="M327,195.5h0a73,73,0,0,1,73,73v70a8,8,0,0,1-8,8H262a8,8,0,0,1-8-8v-70a73,73,0,0,1,73-73Z" fill="#e1e1e1"/><path d="M200.5,152h0a100,100,0,0,1,100,100v82a12,12,0,0,1-12,12h-176a12,12,0,0,1-12-12V252a100,100,0,0,1,100-100Z" fill="#04773b"/></g></g></g></svg>