<svg xmlns="http://www.w3.org/2000/svg" viewBox="0 0 400 300"><title>creative</title><g id="Layer_2" data-name="Layer 2"><g id="Layer_5" data-name="Layer 5"><g id="creative"><rect width="400" height="300" fill="#e5e5e5" opacity="0.2"/><g id="ruler"><rect x="14" y="39.27" width="40" height="240" rx="4" fill="#00a93c"/><path d="M26,51.27H54a0,0,0,0,1,0,0v4a0,0,0,0,1,0,0H26a2,2,0,0,1-2-2v0A2,2,0,0,1,26,51.27Z" fill="#008a3a"/><path d="M32,69H54a0,0,0,0,1,0,0v4a0,0,0,0,1,0,0H32a2,2,0,0,1-2-2v0a2,2,0,0,1,2-2Z" fill="#008a3a"/><path d="M32,86.65H54a0,0,0,0,1,0,0v4a0,0,0,0,1,0,0H32a2,2,0,0,1-2-2v0a2,2,0,0,1,2-2Z" fill="#008a3a"/><path d="M26,104.33H54a0,0,0,0,1,0,0v4a0,0,0,0,1,0,0H26a2,2,0,0,1-2-2v0a2,2,0,0,1,2-2Z" fill="#008a3a"/><path d="M32,122H54a0,0,0,0,1,0,0v4a0,0,0,0,1,0,0H32a2,2,0,0,1-2-2v0A2,2,0,0,1,32,122Z" fill="#008a3a"/><path d="M32,139.7H54a0,0,0,0,1,0,0v4a0,0,0,0,1,0,0H32a2,2,0,0,1-2-2v0A2,2,0,0,1,32,139.7Z" fill="#008a3a"/><path d="M26,157.39H54a0,0,0,0,1,0,0v4a0,0,0,0,1,0,0H26a2,2,0,0,1-2-2v0A2,2,0,0,1,26,157.39Z" fill="#008a3a"/><path d="M32,175.08H54a0,0,0,0,1,0,0v4a0,0,0,0,1,0,0H32a2,2,0,0,1-2-2v0a2,2,0,0,1,2-2Z" fill="#008a3a"/><path d="M32,192.76H54a0,0,0,0,1,0,0v4a0,0,0,0,1,0,0H32a2,2,0,0,1-2-2v0a2,2,0,0,1,2-2Z" fill="#008a3a"/><path d="M26,210.45H54a0,0,0,0,1,0,0v4a0,0,0,0,1,0,0H26a2,2,0,0,1-2-2v0a2,2,0,0,1,2-2Z" fill="#008a3a"/><path d="M32,228.14H54a0,0,0,0,1,0,0v4a0,0,0,0,1,0,0H32a2,2,0,0,1-2-2v0A2,2,0,0,1,32,228.14Z" fill="#008a3a"/><path d="M32,245.82H54a0,0,0,0,1,0,0v4a0,0,0,0,1,0,0H32a2,2,0,0,1-2-2v0a2,2,0,0,1,2-2Z" fill="#008a3a"/><path d="M26,263.51H54a0,0,0,0,1,0,0v4a0,0,0,0,1,0,0H26a2,2,0,0,1-2-2v0A2,2,0,0,1,26,263.51Z" fill="#008a3a"/></g><g id="pencil"><path d="M387,50V283a7,7,0,0,1-7,7h-5a8,8,0,0,1-8-8V50Z" fill="#a84036"/><path d="M387,50V283a7,7,0,0,1-7,7h-3V50Z" fill="#9a3b32"/><path d="M387,50c-3,1.67-5,5-9,5s-7.33-3.33-11-5l4.88-11.72L372,38l3.15-7.57c1-2.44,2.68-2.44,3.7,0L382,38l.1.25Z" fill="#ffd5a7"/><path d="M382.1,38.22c-2,1.11-4,2.2-6.58,1.71a9.37,9.37,0,0,1-3.64-1.68L372,38l3.15-7.57c1-2.44,2.68-2.44,3.7,0L382,38Z" fill="#222"/></g><g id="pen"><path d="M106,78.24v185.6c0,3.09-3.75,5.6-8.4,5.6h-6c-5.3,0-9.6-2.87-9.6-6.4V77.44H94v12.8a12,12,0,0,0,12-11.35C106,78.68,106,78.46,106,78.24Z" fill="#a84036"/><path d="M106,78.24v185.6c0,3.09-3.75,5.6-8.4,5.6H94V91a11.59,11.59,0,0,0,8.48-3.76,13.06,13.06,0,0,0,3.5-8.39C106,78.68,106,78.46,106,78.24Z" fill="#9a3b32"/><path d="M106,69.91v8.33a12,12,0,0,1-12,12V73.44a1.6,1.6,0,0,0,1.6-1.6v-20l4.4,7.63,3.88,6.73Z" fill="#f9c200"/><path d="M94,66.24v24a12,12,0,0,1-12-12V69.91l2.12-3.67L88,59.51l4.4-7.63V66.24Z" fill="#f9d43c"/><path d="M95.6,51.88v20a1.6,1.6,0,0,1-3.2,0v-20L94,49.11Z" fill="#fc8c00"/></g><g id="paintbrush"><path d="M314.43,93.35l0,.08a.19.19,0,0,1,0-.08Z" fill="#f9d43c"/><path d="M339.49,75.58c.91,14.19-12.47,30.63-26.32,30.11-8.53-.32-18-7.49-18.42-14.8C294.13,80.55,312,77.05,311.86,64.2c-.05-4.56-2.37-12.45,1.56-15.88a1.63,1.63,0,0,1,.41-.3C317.88,46.27,338.42,58.88,339.49,75.58Z" fill="#fc8c00"/><path d="M334.19,244a71.7,71.7,0,0,1-1.09,12.53,18.16,18.16,0,0,1-4.7,9.31c-4.69,4.68-12.09,5.45-18.64,4.44-3.12-.48-6.33-1.37-8.66-3.5-3.19-2.93-4.11-7.53-4.81-11.81-4.66-28.43-7.79-58-.1-85.74,4.22-15.25,11.69-31,7.26-46.17-1.15-4-3.1-7.72-4.27-11.63a19.22,19.22,0,0,1-.57-2.2,17.67,17.67,0,0,1-.35-2.18s0-.1,0-.16c-.92-9.75,6.75-13.28,14.91-13.54l1,0h0A33.34,33.34,0,0,1,325,95.14a9.54,9.54,0,0,1,4.83,3.17c1.33,1.91,1.32,4.42,1,6.76,0,.17-.05.33-.07.5-.13.81-.27,1.63-.43,2.44s-.35,1.73-.55,2.59c-1.39,6.07-3.42,12-4.16,18.19-2.28,18.9,7.6,37,10.59,55.76C339.32,204.19,334.86,224.15,334.19,244Z" fill="#deceac"/><path d="M332.33,95.91l-1.52,9.16-.5,2.94-.42,2.56-.13,0A47.89,47.89,0,0,1,315,112.89c-7.42,0-12-.4-15.85-1.44a19.22,19.22,0,0,1-.57-2.2l-.35-2.18L296.5,95.91a63.36,63.36,0,0,1,16.65-2.54l1,0h0A60.36,60.36,0,0,1,332.33,95.91Z" fill="#a84036"/><path d="M315.25,78.23c-.44.07-.68,0-.81-.13-.8-.92,3.76-4.82,5-10.75.17-.83.24-1.52.25-1.61.41-4-1-6.48-.6-6.69s4.2,2.88,4.62,7.32C324.29,72.44,318.5,77.75,315.25,78.23Z" fill="#e07b00"/></g><g id="full_bulb" data-name="full bulb"><g id="bulb"><path d="M182,242.42h36a0,0,0,0,1,0,0v6.51a16,16,0,0,1-16,16h-4a16,16,0,0,1-16-16v-6.51a0,0,0,0,1,0,0Z" transform="translate(1.42 -1.11) rotate(0.32)" fill="#707070"/><path d="M172.95,218.68h54a0,0,0,0,1,0,0v11.39a16,16,0,0,1-16,16h-22a16,16,0,0,1-16-16V218.68A0,0,0,0,1,172.95,218.68Z" transform="translate(1.3 -1.11) rotate(0.32)" fill="#a3a3a3"/><path d="M260,146.52a68.52,68.52,0,0,1-19.3,47.88,10,10,0,0,0-2.83,7l0,7.42c0,7.92-5.94,14.3-13.17,14.26l-50.18-.28c-7.23,0-13-6.49-13-14.4l0-7.42a10,10,0,0,0-2.75-7A68.61,68.61,0,0,1,140,145c.63-35.4,27.18-64.15,59.52-64.45C233.05,80.2,260.2,109.94,260,146.52Z" fill="#f9bf2e"/></g></g><circle cx="151.4" cy="76.36" r="3.49" fill="#f9bf2e"/><circle cx="196.92" cy="57.09" r="3.49" fill="#f9bf2e"/><circle cx="248.6" cy="76.36" r="3.49" fill="#f9bf2e"/><rect x="105.52" y="11.38" width="4.47" height="0.74" rx="0.21" fill="#f9bf2e"/><rect x="107.38" y="9.52" width="0.74" height="4.47" rx="0.21" fill="#f9bf2e"/><rect x="348" y="53.83" width="8" height="1.33" rx="0.67" fill="#f9bf2e"/><rect x="351.33" y="50.5" width="1.33" height="8" rx="0.67" fill="#f9bf2e"/><rect x="289" y="44.67" width="10" height="1.67" rx="0.83" fill="#f9bf2e"/><rect x="293.17" y="40.5" width="1.67" height="10" rx="0.83" fill="#f9bf2e"/><rect x="57.3" y="51.22" width="3.41" height="0.57" rx="0.16" fill="#f9bf2e"/><rect x="58.72" y="49.8" width="0.57" height="3.41" rx="0.16" fill="#f9bf2e"/><circle cx="109" cy="42.5" r="1" fill="#f9bf2e"/><circle cx="338" cy="18.5" r="2" fill="#f9bf2e"/><circle cx="273" cy="18.5" r="1" fill="#f9bf2e"/><circle cx="15" cy="17.5" r="2" fill="#f9bf2e"/></g></g></g></svg>