<svg xmlns="http://www.w3.org/2000/svg" viewBox="0 0 333 400"><title>flag</title><g id="Layer_2" data-name="Layer 2"><g id="Layer_3" data-name="Layer 3"><g id="proudly_nigerian" data-name="proudly nigerian"><path d="M14,26.5v207c6.4-.4,12.77.83,18.94,2.26,19.49,4.5,39.42,6.74,59,10.89,11.67,2.47,19.6,4.54,25.58,6.38V41.69C88.79,34.66,53.61,28,14,26.5Z" fill="#098343"/><path d="M231.5,68.08V277.43c2.15.05,4.32.08,6.5.07,21-.06,53.95-2.88,93.72-18.5a2,2,0,0,0,1.28-1.87V52.44a2,2,0,0,0-2.73-1.87C305.08,60.35,270.79,69.8,231.5,68.08Z" fill="#098343"/><path d="M201,64.5c-14.78-2.86-22.57-6-40-11-12-3.42-26.64-7.68-43.5-11.81V253c13,4,16.75,6.92,29.5,10.47,15.15,4.22,47.59,13.05,84.5,13.93V68.08A208,208,0,0,1,201,64.5Z" fill="#eee"/><rect width="20" height="400" rx="1" fill="#d7cbac"/></g></g></g></svg>