<svg xmlns="http://www.w3.org/2000/svg" viewBox="0 0 472.71 512.7"><title>hero-img</title><g id="Layer_2" data-name="Layer 2"><g id="Layer_6" data-name="Layer 6"><g id="hero_image" data-name="hero image"><path id="bg" d="M203,508c-3.7-2.4-6.44-6.14-8.91-9.85-13-19.46-34.63-50.27-45.57-70.49-17.54-32.43-21.26-54.68-37.58-87.77-25-50.74-47.4-102.94-63.81-157.15-10.69-35.28-18.89-72.12-15.22-108.8C33.54,57.25,38.68,39.32,52.57,30c13.5-9,31.29-7.4,47.34-4.76,28.52,4.7,57.68,11.9,80.5,29.63,34.05,26.47,47.82,71.53,52.45,114.4s1.32,63.47,11.63,105.34c14.2-34,30.76-44.52,53.66-73.38s53.69-52.69,89.52-61.25c24.14-5.77,52.48-3.2,69.4,15,16,17.18,17.53,43.34,14.19,66.58-8.69,60.64-43.6,114.61-84.76,160A593.38,593.38,0,0,1,300,459.74c-17.41,12.88-72.42,60.66-95.42,49.14A16.18,16.18,0,0,1,203,508Z" fill="#deceac" opacity="0.1"/><g id="person_3" data-name="person 3"><path id="back_hair" data-name="back hair" d="M97.07,70c-10.63,15.77,6.85,26.58,1.46,37-3.45,6.71,31.51,4.8,39.39-18.73,8.14-24.32,1.44-10.23,6.81-22.18C149.49,55.46,112.08,52.86,97.07,70Z" fill="#e7ddc5"/><path d="M238,71.47c-1,8.23-5.45,35.94-29.13,57.56A93.34,93.34,0,0,1,159.55,153a89.86,89.86,0,0,1-10.05,1c-12.19.48-21.67-1.65-25.79-3.49l7.49-28.18a153.51,153.51,0,0,0,17.26-2.86c1-.22,2.07-.46,3.14-.72A156.87,156.87,0,0,0,172,112.36c1-.4,2.06-.82,3.09-1.25,2.18-.92,4.36-1.91,6.51-3,23.51-11.68,38.81-41.87,38.81-41.87Z" fill="#3e1714"/><path d="M194.49,511.61h-32s-13-89-13-96c0-4.4-10.66-50.25-18.58-83.72-4.69-19.81-8.42-35.28-8.42-35.28l.63,44.87,2.37,169.13h-35S77,451.3,67.07,393c-1.36-8.05-2.66-16.07-3.85-23.92-1.44-9.51-2.71-18.75-3.73-27.46-3.29-27.93-2-49.45.62-65.11,3.78-22.47,10.38-32.89,10.38-32.89l96,4s3.23,8.66,7.71,21.26c9.39,26.41,24.26,70.14,26.29,87.74.32,2.79.49,7,.53,12.34C201.34,409.31,194.49,511.61,194.49,511.61Z" fill="#a84036"/><path d="M155.49,301.61l-24.58,30.28-7.79,9.59L73.49,402.61,67.07,393c-1.36-8.05-2.66-16.07-3.85-23.92l31.27-26.46s-10-22-2-25,16-2,18-6,1-16,4-19,14.46-14.24,24-10C156.49,290.61,155.49,301.61,155.49,301.61Z" fill="#9a3b32"/><path d="M174.2,268.87c-6.42,2.11-19.27,4.66-44.71,5.74-29.54,1.26-54.74,1.72-69.38,1.89,3.78-22.47,10.38-32.89,10.38-32.89l96,4S169.72,256.27,174.2,268.87Z" fill="#9a3b32"/><path d="M72.49,224.61c1.16-16.06-12.95-42.93-12-59,1-17,1.13-16.54,3-29,1.63-10.84,14.27-11.35,25.28-13.3q6.38-1.14,12.83-1.79a167.17,167.17,0,0,1,34.79.17c1.42.15,2.84.33,4.26.52,6,.82,12.41,2.15,16.85,6.34,5.25,5,6.56,12.7,7.5,19.86,3.29,25,1.49,50.2-1.51,72.2-1.39,10.21,11.2,27.73,12,38-38.26.07-76.86-4.08-115.13-4C60.81,245.1,71.8,234.09,72.49,224.61Z" fill="#3e1714"/><path d="M236.85,196.94c-10.16.19-18.84-6.34-19.65-14.78a14.21,14.21,0,0,1,1.87-8.5,16.26,16.26,0,0,0,1.94-5.27,2.21,2.21,0,0,0-2.57-2.3L176.9,168.5c-5.43.31-10.05-3.11-10.31-7.65l-5.7-98.54c-.26-4.54,3.93-8.47,9.36-8.78l41.54-2.4a2.21,2.21,0,0,0,2.28-2.58,15.89,15.89,0,0,0-2.53-5,14.27,14.27,0,0,1-2.83-8.23c-.17-8.48,7.7-16,17.81-16.94,11.28-1.1,21,5.88,21.57,15.21a14.33,14.33,0,0,1-2,8.06,14.88,14.88,0,0,0-1.89,5.18,2.21,2.21,0,0,0,2.57,2.28l41.55-2.4c5.44-.32,10.06,3.1,10.32,7.64l5.7,98.54c.26,4.54-3.93,8.47-9.37,8.79l-41.55,2.4a2.22,2.22,0,0,0-2.29,2.56,15,15,0,0,0,2.48,4.93,14.41,14.41,0,0,1,2.89,7.78C257.06,188.67,248.18,196.72,236.85,196.94Z" fill="#007933"/><g id="coin"><circle cx="232.41" cy="106.04" r="16.57" fill="#f8c23a"/><path d="M233.37,115.25h-1.79a.52.52,0,0,1-.36-.14.49.49,0,0,1-.14-.34v-1.49a9.08,9.08,0,0,1-2.5-.65,6.06,6.06,0,0,1-1.88-1.19,1.24,1.24,0,0,1-.43-.78.81.81,0,0,1,.34-.69l1.64-1.25a.82.82,0,0,1,.59-.19,1.29,1.29,0,0,1,.63.36,4.53,4.53,0,0,0,1.46.93,4.76,4.76,0,0,0,1.72.31,2.48,2.48,0,0,0,1.3-.3.9.9,0,0,0,.48-.79.81.81,0,0,0-.34-.67,3.3,3.3,0,0,0-1.23-.47l-2.62-.61a5.08,5.08,0,0,1-2.73-1.47,3.76,3.76,0,0,1-1-2.62,3.82,3.82,0,0,1,1.24-2.85,5.93,5.93,0,0,1,3.29-1.51V97.3a.43.43,0,0,1,.14-.32.52.52,0,0,1,.36-.14h1.79a.5.5,0,0,1,.35.14.4.4,0,0,1,.14.32v1.53a8,8,0,0,1,2,.54,5.64,5.64,0,0,1,1.59.95,1.17,1.17,0,0,1,.45.7.71.71,0,0,1-.25.63L236.3,103a.75.75,0,0,1-.57.21,1.38,1.38,0,0,1-.7-.31,5,5,0,0,0-1.31-.69,4.37,4.37,0,0,0-1.41-.25,2.44,2.44,0,0,0-1.23.27.79.79,0,0,0-.47.71.69.69,0,0,0,.28.56,2.1,2.1,0,0,0,.86.38l2.59.64a6.55,6.55,0,0,1,3.16,1.57,3.56,3.56,0,0,1,1,2.65,4,4,0,0,1-1.27,3,5.9,5.9,0,0,1-3.41,1.57v1.5a.45.45,0,0,1-.14.34A.5.5,0,0,1,233.37,115.25Z" fill="#d99d08"/></g><path d="M194.8,115.58c.79-.22,1.25-1.31,2.15-2.11,1.73-1.52,4.09-2.2,6.1-3.23a27.94,27.94,0,0,0,6.25-4.2,15,15,0,0,0,4.58-7.2,14.94,14.94,0,0,0-.36-7.44c-.47-1.79-1.06-4.23-3.05-4.88-2.59-.85-5.55,2.19-7.19,4a24,24,0,0,1-7.8,5.94c.08-1.61.61-2.81.59-4.23a2.7,2.7,0,0,0-.2-1.17,2.05,2.05,0,0,0-2.8-.58A5.08,5.08,0,0,0,191.12,93c-2,4.61-1.74,9.14-3.31,13.91-.29.88-.86,2.48-1.69,2.92q3.49,2.86,7.24,5.39A1.77,1.77,0,0,0,194.8,115.58Z" fill="#b44f28"/><path d="M70.72,164.79c8.56,6.53,46.56,21.74,87.81-1.22,28-15.61,38.71-41.55,41.59-49.32l-15.94-9.12S162.36,131,136.79,137s-52.31,2.13-52.31,2.13Z" fill="#3e1714"/><path d="M136.39,121.69a15.49,15.49,0,0,1-4.25,8.52,14.92,14.92,0,0,1-8.55,4.37,2.36,2.36,0,0,1-2.09-.73,10.64,10.64,0,0,1-3.17-7l-2,5.64a2.77,2.77,0,0,1-3.21,1.82,15.35,15.35,0,0,1-11.53-12.82A167.17,167.17,0,0,1,136.39,121.69Z" fill="#deceac"/><g id="neck_n_shadow" data-name="neck n shadow"><path d="M127.48,124.17a.84.84,0,0,1,0,.31l0,.08a.89.89,0,0,1-.37.2,24.43,24.43,0,0,1-17.53-1.64.51.51,0,0,1-.34-.65c.31-2.31.63-4.63.95-6.94.25-1.88.5-3.77.76-5.65.28-2.1.58-4.2.86-6.29.14-1.06.29-2.1.43-3.16.1-.69-.1-2.38.85-2.29l15.79,1.51-.9,16.87C127.75,119.06,127.62,121.62,127.48,124.17Z" fill="#b44f28"/><path d="M127.89,116.52l-.66.2a25.2,25.2,0,0,1-12.56.36,24.84,24.84,0,0,1-4.57-1.55c.25-1.88.5-3.77.76-5.65.28-2.1.58-4.2.86-6.29.14-1.06.29-2.1.43-3.16.1-.69-.1-2.38.85-2.29l15.79,1.51Z" fill="#974221"/></g><path id="head" d="M144.42,98.45a25.52,25.52,0,0,1-16.29,14.31,22.64,22.64,0,0,1-11.5.36,26.55,26.55,0,0,1-16-12.06A30.64,30.64,0,0,1,98,95.62a33.26,33.26,0,0,1-1.86-14.86c0-.21.05-.4.08-.59,1.4-11.56,8.94-21.88,22.29-23.41a21.7,21.7,0,0,1,21.35,9.53c.24.35.47.71.7,1.07a37.64,37.64,0,0,1,3.39,7.28C146.63,82.31,147.45,90.92,144.42,98.45Z" fill="#b44f28"/><path id="ear" d="M98.83,90.26a4.57,4.57,0,0,1-.22-.62c-.6-2.36,1.4-4.92.48-7.18a4.3,4.3,0,0,0-4-2.33,5.88,5.88,0,0,0-3.95,1.35C87.31,84.87,90.6,92,93.81,94.55A5.6,5.6,0,0,0,97.33,96a2.8,2.8,0,0,0,2.79-2.19C100.28,92.53,99.34,91.45,98.83,90.26Z" fill="#b44f28"/><path id="hair_shadow" data-name="hair shadow" d="M143.26,61.68a7.33,7.33,0,0,1-3.15,3.44c.24.35-.31.57-.08.93a7.82,7.82,0,0,1-6.88,3.08c-2.8-.26-6.27-3.39-6.27-3.39s-3.64-1.28-6.61.31c-2,1-2.84-.65-3.22-1.93a6.8,6.8,0,0,1-2.81,6c-2.6,2.14-2.13,2.6-4.93,2.34s-1.63,7.31-5.45,7.88c-3.61.54-3.45,5.6-4,3.76l0-.12c0-.08,0-.17-.08-.29a3.16,3.16,0,0,0-.17-.52,6.81,6.81,0,0,0-3.4-3,10.92,10.92,0,0,0-1.67-.67c-2.13-.57-3.39-1.32-4.07-2.26a3.94,3.94,0,0,1-.56-3.18,13.58,13.58,0,0,1,.67-2.41,6.78,6.78,0,0,1,5.1-4.18,8,8,0,0,1-.94-1.54,6.56,6.56,0,0,1,1.11-.31,7.85,7.85,0,0,1-1.61-4.08,6.48,6.48,0,0,1,2.32-3.32c4.83-4,6.7-1.24,6.7-1.24a6.15,6.15,0,0,1-.07-2.11,4.75,4.75,0,0,1,.13-.68,5.9,5.9,0,0,1,4.37-4.26c6.79-2.16,9.15,2.73,9.15,2.73s.35-3.7,11.54-2.65c11.41,1.08,15.37,5.57,15.53,9.8A8.13,8.13,0,0,1,143.26,61.68Z" fill="#974221"/><path id="hair" d="M143.91,59.81a8.13,8.13,0,0,1-.65,1.87,12.5,12.5,0,0,1-3.41,4.61c-2.36,1.81-4.63,1.17-6.53,1-2.79-.26-6.26-3.39-6.26-3.39s-3.64-1.28-6.61.31c-2.4,1.28-3.29-.33-3.56-1v0a.83.83,0,0,1,0-.18l0,0s0,.11,0,.21c.07.86.11,3.79-2.42,5.14-3,1.59-2.12,2.6-4.92,2.34S107.85,78,104,78.52c-3.6.54-3.6,7.22-4.15,5.61l0-.12c0-.08,0-.17-.08-.29a3.16,3.16,0,0,0-.17-.52,5.26,5.26,0,0,0-3.48-2.44,10.06,10.06,0,0,0-1.68-.34c-2.13-.56-3.35-.37-4-1.81-.44-1-2-3.89-2-5a12.71,12.71,0,0,1,1-4c.83-2.36,4-3.23,5.25-3.68a6.56,6.56,0,0,1,1.11-.31,7.85,7.85,0,0,1-1.61-4.08,6,6,0,0,1,2.49-5.18c3.87-3.17,5.83-2.06,6.46-1.49a1.4,1.4,0,0,1,.24.26,6.27,6.27,0,0,1-.11-.94c-.08-1.58.34-4.77,4.55-6.11,6.78-2.16,9.14,2.73,9.14,2.73s.35-3.7,11.54-2.65C141.65,49.4,144.94,55.14,143.91,59.81Z" fill="#e7ddc5"/><g id="face_things" data-name="face things"><path d="M108.41,80.6l-.11,0A.47.47,0,0,1,108,80c.06-.15,1.36-3.72,6.24-6.06a10.4,10.4,0,0,1,9.33.14.46.46,0,0,1,.16.64.48.48,0,0,1-.64.17,9.57,9.57,0,0,0-8.44-.12c-4.54,2.18-5.75,5.5-5.76,5.53A.47.47,0,0,1,108.41,80.6Z" fill="#431d0f"/><path d="M147.45,80.5a.48.48,0,0,1-.41-.35A7.72,7.72,0,0,0,141.19,75a13.25,13.25,0,0,0-8.38.51.47.47,0,1,1-.42-.83,13.92,13.92,0,0,1,9-.58A8.66,8.66,0,0,1,148,79.92a.48.48,0,0,1-.34.57Z" fill="#431d0f"/><path d="M118.67,81.77a2.17,2.17,0,0,1-3,1.79c-2.84-1.3,0-5.76,2.38-3.51A2,2,0,0,1,118.67,81.77Z" fill="#431d0f"/><path d="M142.24,81.19a2.16,2.16,0,0,1-3,1.79c-2.85-1.3,0-5.75,2.37-3.51A2,2,0,0,1,142.24,81.19Z" fill="#431d0f"/><path d="M128.67,95.92a8.58,8.58,0,0,1-4.35-2.08.47.47,0,0,1,0-.66.46.46,0,0,1,.66,0s3.27,2.94,5.88,1.38c3-1.78-1.3-10.75-3.21-14.06a.45.45,0,0,1,.18-.63.46.46,0,0,1,.63.17c.75,1.3,7.19,12.75,2.88,15.32A4.29,4.29,0,0,1,128.67,95.92Z" fill="#431d0f"/><path d="M120.35,100.63a.47.47,0,0,0-.39.71c1.43,2.17,3.38,4.22,5.66,4.85,3.34.93,6.84-1.59,8.14-5a.5.5,0,0,0-.47-.68Z" fill="#431d0f"/></g><path d="M97.37,85.13c-.12-.22-.23-.44-.36-.66A2.63,2.63,0,0,0,96,83.32a1.9,1.9,0,0,0-1.87.28,3.88,3.88,0,0,0-1.26,4.49,14.25,14.25,0,0,0,2.77,3.81,1.62,1.62,0,0,0,1.07.67c.65,0,1.11-.61,1.34-1.21A7.85,7.85,0,0,0,97.37,85.13Z" fill="#974221"/><path d="M164.47,161.91A82.12,82.12,0,0,1,142,175.62a69.93,69.93,0,0,1-12.7,3.84,64.76,64.76,0,0,1-13.25,1.2c-8.94-.14-17.59-2.3-26-4.72l-12.59-3.77c-4.18-1.3-8.39-2.56-12.45-4.23,4.2,1.24,8.44,2.3,12.71,3.28s8.51,2.13,12.74,3.21,8.47,2.1,12.74,2.86c2.14.39,4.28.73,6.43,1,1.07.14,2.15.2,3.22.28l1.61.1,1.62,0a69.58,69.58,0,0,0,25.36-4.49A99.59,99.59,0,0,0,164.47,161.91Z" fill="#230d0c"/><path d="M92,135.11a58.61,58.61,0,0,0,7.4,2.92,55.35,55.35,0,0,0,7.66,2,43.6,43.6,0,0,0,15.69.48l1-.13,1-.23,1.91-.44c1.28-.35,2.55-.74,3.82-1.12,2.54-.76,5.06-1.6,7.58-2.41s5-1.71,7.52-2.64,5-1.87,7.41-2.92a125.71,125.71,0,0,1-14.67,6.29c-2.5.92-5,1.74-7.57,2.55-1.27.4-2.54.8-3.83,1.17l-2,.48-1,.24-1,.15a42.84,42.84,0,0,1-16-.72A54.51,54.51,0,0,1,92,135.11Z" fill="#230d0c"/><path d="M163.05,226.43a10.54,10.54,0,0,1-3.47,3.62,18.38,18.38,0,0,1-4.56,2.23A32.29,32.29,0,0,1,145,233.72l-2.54-.07c-.85,0-1.68-.16-2.52-.23-1.69-.14-3.35-.44-5-.73a59.73,59.73,0,0,1-9.79-2.63,73.4,73.4,0,0,1-9.21-4.18,99.47,99.47,0,0,1-8.58-5.27c-2.78-1.86-5.46-3.86-8.23-5.66a25.52,25.52,0,0,0-4.31-2.37,6.17,6.17,0,0,0-4.77-.21,5.06,5.06,0,0,1,2.42-.68,8.61,8.61,0,0,1,2.52.39,25.59,25.59,0,0,1,4.64,2c2.94,1.63,5.74,3.45,8.57,5.19a95.59,95.59,0,0,0,17.64,8.88,60.77,60.77,0,0,0,9.47,2.66c1.61.32,3.22.67,4.85.84s3.26.37,4.9.49a34.2,34.2,0,0,0,9.73-.83,17.59,17.59,0,0,0,4.57-1.74,12.73,12.73,0,0,0,2-1.38A8.3,8.3,0,0,0,163.05,226.43Z" fill="#230d0c"/></g><g id="person_1" data-name="person 1"><path id="back_hair-2" data-name="back hair" d="M159.27,343.4c-1.18,3-3.27,5.74-3.64,9-.14,1.23-.07,2.61-.84,3.55l-.08.09a4.28,4.28,0,0,1-3.2,1.05A28,28,0,0,1,141,355.23a31.48,31.48,0,0,0-5.59-2c-3.5-.63-7.21.59-10.64-.4-2.67-.78-4.78-2.8-7.22-4.16a16,16,0,0,0-8.91-2c-1.95.15-4.26.54-5.59-.91-.56-.61-.81-1.46-1.35-2.08a20.08,20.08,0,0,0-2.13-1.64,7.68,7.68,0,0,1-2-3.75c-1.39-4.69-2.45-10.05.12-14.19,2.66-4.29,8.12-5.63,12.63-7.9,2.11-1.05,4.21-2.55,4.93-4.79a14.55,14.55,0,0,0,.19-4.8,18.2,18.2,0,0,1,.5-4.76A18,18,0,0,1,134,288h.07c5.56.17,10.87,2.55,15.36,5.83,3.1,2.26,5.95,5.08,7.36,8.65,2,5.06.76,10.87-1.59,15.77-.84,1.75-1.84,3.72-1.15,5.53a8.4,8.4,0,0,0,1.88,2.45A16.76,16.76,0,0,1,159.27,343.4Z" fill="#0c0909"/><g id="neck_n_shadow-2" data-name="neck n shadow"><path d="M144.54,354.93a1.28,1.28,0,0,1-.38.63,3.4,3.4,0,0,1-1.36.67,32.73,32.73,0,0,1-15.75.87,25.74,25.74,0,0,1-13.76-7.55,5.36,5.36,0,0,1-1.22-1.81c-.89-2.52,2.28-4,4.23-4.47a27.57,27.57,0,0,1,3.86-.53c1-.1-1.5-.42-.67-1.13.53-.44-.69-1.38-1-2-.94-1.88-1.88-.23,3-5l.5-.49.54-.53c2.47-2.47,4.34-3.3,5.25-6.68L139,329.75c-.52,2.13,2,2.73,1.46,4.86a18.42,18.42,0,0,1-4.1,6.29l-.09.07-.39.32c-.62.56-1.11,1.11-1.42,1.32-3,2-2.3,2.69-1,4,2.14,2.16,9.71,4.3,10.87,7.11A1.9,1.9,0,0,1,144.54,354.93Z" fill="#b44f28"/><path d="M140.49,334.61a18.42,18.42,0,0,1-4.1,6.29,18.32,18.32,0,0,1-2.21-.13,21.37,21.37,0,0,1-3.8-.87,24.44,24.44,0,0,1-8.93-5.27l.5-.49.54-.53c2.47-2.47,4.34-3.3,5.25-6.68L139,329.75C138.51,331.88,141,332.48,140.49,334.61Z" fill="#974221"/></g><path d="M136.31,338.91a19.85,19.85,0,0,1-3.72-1.17,24.74,24.74,0,0,1-14.08-15.89c-3.7-13.12,4.37-28.05,18.64-29a21.28,21.28,0,0,1,16,5.93,6.54,6.54,0,0,1,2,2.95c.35,1.42-.13,2.89-.4,4.33-1.09,5.66,1,11.47.51,17.21a18.8,18.8,0,0,1-5.07,11.15,15.17,15.17,0,0,1-7.91,4.56A14.71,14.71,0,0,1,136.31,338.91Z" fill="#b44f28"/><path d="M119.67,318.29a3.15,3.15,0,0,1,0-.52c0-1.95,2-3.56,1.71-5.49a3.42,3.42,0,0,0-2.65-2.54,4.57,4.57,0,0,0-3.29.32c-3.59,1.92-2.37,8-.38,10.63a4.37,4.37,0,0,0,2.44,1.77,2.23,2.23,0,0,0,2.56-1.19C120.37,320.32,119.84,319.31,119.67,318.29Z" fill="#b44f28"/><path id="front_hair" data-name="front hair" d="M156.42,302.79c-.7,2.1-3.24,5.35-9.33,4.69a9.14,9.14,0,0,1-6.79-5.36c-2.59,5.77-7,9.36-10.49,10.53-7.83,2.63-10.38-1.9-10.75-2.78a23,23,0,0,1-2.12-7.7c2.18-8.09,9.38-12.16,18.15-11.64h.06a30.08,30.08,0,0,1,12.91,5A51.44,51.44,0,0,1,156.42,302.79Z" fill="#974221"/><path id="front_hair-2" data-name="front hair" d="M155.79,301.87a6.76,6.76,0,0,1-1.49,2.1c-2.12,2-5.34,2.34-8.19,1.82-2.68-.49-5.45-1.88-6.41-4.41-1.61,4.39-7.21,9.05-10.68,10.33-8.88,3.3-10.88-1.9-11.28-2.77a19,19,0,0,1-1.77-7A18,18,0,0,1,134,288h.07a30,30,0,0,1,13.05,4.56c3.31,2,6.43,4.6,8.12,8.09A12.78,12.78,0,0,1,155.79,301.87Z" fill="#0c0909"/><g id="face"><path d="M129.36,310.19a.31.31,0,0,1-.17-.13.38.38,0,0,1,.08-.52,9.5,9.5,0,0,1,6.81-1.07,8.15,8.15,0,0,1,5.93,4.35.36.36,0,0,1-.19.48.35.35,0,0,1-.48-.18A7.52,7.52,0,0,0,136,309.2a8.93,8.93,0,0,0-6.26.94A.35.35,0,0,1,129.36,310.19Z" fill="#3e1714"/><path d="M158.26,317.94a.36.36,0,0,1-.33-.28,6.13,6.13,0,0,0-4.58-4.15,10.4,10.4,0,0,0-6.62.36.36.36,0,0,1-.49-.16.37.37,0,0,1,.16-.5,10.88,10.88,0,0,1,7.13-.41,6.84,6.84,0,0,1,5.12,4.69.37.37,0,0,1-.28.44A.2.2,0,0,1,158.26,317.94Z" fill="#3e1714"/><path d="M135.88,315a1.71,1.71,0,0,1-2.77-.15c-1.28-2.11,2.55-3.8,3.11-1.27A1.58,1.58,0,0,1,135.88,315Z" fill="#3e1714"/><path d="M152.47,318.89a1.71,1.71,0,0,1-2.77.14c-1.5-1.95,2.14-4,3-1.59A1.58,1.58,0,0,1,152.47,318.89Z" fill="#3e1714"/><path d="M140.71,326.06a7.46,7.46,0,0,1-2-1.13.38.38,0,0,1,0-.52.37.37,0,0,1,.52-.05s2.06,1.72,3.82,1.13c2.22-.73,1.18-6.22.58-8.28a.37.37,0,0,1,.26-.45.35.35,0,0,1,.45.25c.1.33,2.29,8.07-1.06,9.18A3.8,3.8,0,0,1,140.71,326.06Z" fill="#3e1714"/><path d="M135.64,328.58a.82.82,0,0,0-.8.9,5.11,5.11,0,0,0,1.67,3.21,4,4,0,0,0,3.18,1c1.54-.24,3.66-2.22,1.43-3.17C139.5,329.82,137.52,328.64,135.64,328.58Z" fill="#3e1714"/></g><path d="M118.41,320.34a2.27,2.27,0,0,0-.1-.94,15.13,15.13,0,0,1-.44-6.35.94.94,0,0,0-.13-.84,1,1,0,0,0-.37-.18,3.15,3.15,0,0,0-1.05-.2c-1.19,0-1.36,1.27-1.31,2.21a15,15,0,0,0,1,4.53,7,7,0,0,0,1,1.74c.22.28.64.65,1,.51A.56.56,0,0,0,118.41,320.34Z" fill="#974221"/><path id="earring" d="M119.13,321.45a1.44,1.44,0,0,1,1.08.44c.87,1.09,0,4-.27,5.26-.21.81-.41,1.49-1.35,1a8.56,8.56,0,0,1-2.67-2,3.59,3.59,0,0,1-.93-1.68c-.41-2.09,2.33-3,4-3Z" fill="#eb834b"/><path d="M163.49,505.61a16.35,16.35,0,0,1-15,7c-10-1-13,0-26-5l-17-9.32-28-15.3v3.62c0,1-10,2-10,2l-2.61-3.48-9.39-12.52h3c-7-3.82-12-6.52-13-7-4-2-11-9-11-17s1-23,1-23l73,8,.55.51c3.76,3.4,25.89,23.54,40.8,38.62,7.21,7.3,12.73,13.42,13.65,15.87C166.49,496.61,163.49,505.61,163.49,505.61Z" fill="#191919"/><path d="M146.49,470.33c-15,7.18-34.12,20.29-42.6,26.28L77,480.87v3.73c0,1-9.6,2-9.6,2l-2.51-3.58,42.42-52.46C110.91,434.11,132.17,454.82,146.49,470.33Z" fill="#070707" opacity="0.5"/><path d="M140.49,491.61c-2.51-1.62-4.92-3.34-7.3-5.09s-4.73-3.52-7.09-5.28S121.41,477.7,119,476c-1.19-.85-2.39-1.7-3.62-2.48a12.83,12.83,0,0,0-3.93-1.88,9.83,9.83,0,0,1,4.38,1,36.08,36.08,0,0,1,4,2,77.93,77.93,0,0,1,7.41,5c2.37,1.81,4.67,3.68,6.87,5.68A73.55,73.55,0,0,1,140.49,491.61Z" fill="#070707"/><g id="shoe_back" data-name="shoe back"><path d="M62.49,489s-4,13.5-1,16.39,2,4.82,2,4.82-1.87.15-4.32.27c-3.75.19-8.86.32-10.68-.27-3-1-16-26-15-30.86l.35-.23c1.81-1.19,10.31-6.63,15.65-7.48a22.61,22.61,0,0,0,6,1c3,0,12,12.54,12,12.54V488Z" fill="#c8ccca"/><path d="M55.49,508.61c1.41,0,2.67,1,3.68,1.84-3.75.19-8.86.32-10.68-.27-3-1-18-26.57-15-30.86l.35-.23c13.44,2.69,11.21,15.64,15.63,24.38C50.67,505.84,52.49,508.61,55.49,508.61Z" fill="#aaafac"/></g><path d="M116.49,389.61s17,27,27,31,45,22,45,22,9,16,15,14,13-3,11-8-7-9-7-9,1-1,5-2,3-4,3-4-6,2-10,2a37.84,37.84,0,0,1-8-1s-31-23-39-25-28-34-28-34Z" fill="#974221"/><path d="M34.83,438.7s-4,34.29,27.94,32.42l22-1.29-5.52,8.34,16.55,9s36.48-27.18,57.91-37.45,19.21-14.15,20-17.2-.64-11-5.87-14.68-29-16.33-58.49-6.59c0,0-13.8,3.81-18.79,4.11s-14.15-2.18-14.15-2.18l-27.83,3.63L37.65,418.5Z" fill="#222"/><path d="M324.06,511.61H186.92c-6.32,0-11.43-4.26-11.43-9.51V388c0-5.25,5.11-9.51,11.43-9.51h48.24c1.79,0,3.14-1.35,2.81-2.83a17.48,17.48,0,0,0-1-3.11,20.62,20.62,0,0,0-1.56-2.83,16.46,16.46,0,0,1-2.72-9.69,15.09,15.09,0,0,1,.4-2.93c1.94-8.44,10.78-15,21.35-15.44,11.65-.45,21.47,6.35,23.55,15.43a17,17,0,0,1,.4,3.57,16.57,16.57,0,0,1-2.83,9.18,17.63,17.63,0,0,0-1.5,2.71,16.25,16.25,0,0,0-1,3.14c-.33,1.46,1,2.8,2.81,2.8h48.26c6.31,0,11.43,4.26,11.43,9.51V502.1C335.49,507.35,330.37,511.61,324.06,511.61Z" fill="#e0e0e0"/><g id="full_bulb" data-name="full bulb"><g id="bulb"><path d="M255.9,469.57a4.11,4.11,0,0,1-4.74-5.13l8.67.05C260.2,466.94,258.81,469.53,255.9,469.57Z" fill="#707070"/><path d="M258.09,465.31c-8.31.52-9.92-1.23-9.07-6.27l13,.07C262.33,462.13,261.62,465.19,258.09,465.31Z" fill="#a3a3a3"/><path d="M270.05,442.7c.11,5.05-2.57,8.37-5.31,11.86-.08,7.17-2.77,5.25-10.65,5.47-5.56.12-8.41.36-8-5-1.16-3-4.66-5.62-5-9.51C238.27,423.37,269.31,421.53,270.05,442.7Z" fill="#f9bf2e"/></g></g><path d="M244.46,426.78c-.29,1.75-3,0-.85-.8A1,1,0,0,1,244.46,426.78Z" fill="#f9bf2e"/><path d="M255.54,422.4c-.28,1.75-3,0-.85-.79A.94.94,0,0,1,255.54,422.4Z" fill="#f9bf2e"/><path d="M268.12,426.78c-.28,1.75-3,0-.85-.8A1,1,0,0,1,268.12,426.78Z" fill="#f9bf2e"/><path d="M136.49,375.61s17,27,27,31,45,22,45,22,9,16,15,14,13-3,11-8-7-9-7-9,1-1,5-2,3-4,3-4-6,2-10,2a37.84,37.84,0,0,1-8-1s-31-23-39-25-28-34-28-34Z" fill="#b44f28"/><path d="M35.49,434.61s1-14,3-18,4-3,6-6,25-45,60-66c0,0,3-3,10-6s19,4,24,9,20,22,20,22l-21,12s-2,13-8,16-21,3-21,3l-14,13h9s-14,16-30,19S35.49,434.61,35.49,434.61Z" fill="#f8c23a"/><path d="M44.35,412.63a33.43,33.43,0,0,1,4.86.68c1.6.35,3.18.78,4.76,1.23,3.14.91,6.21,2,9.34,2.84a38.53,38.53,0,0,0,9.53,1.46,20.14,20.14,0,0,0,9.38-2,15.78,15.78,0,0,1-4.47,2.05,22,22,0,0,1-4.9.73,33.07,33.07,0,0,1-9.8-1.27c-3.17-.87-6.25-2-9.32-3.07A64.64,64.64,0,0,0,44.35,412.63Z" fill="#eaad24"/><path d="M115,375.11a5.15,5.15,0,0,1,1.44-2.43,8.15,8.15,0,0,1,2.41-1.57,15.6,15.6,0,0,1,5.58-1.16,21.89,21.89,0,0,1,5.65.54,14.91,14.91,0,0,1,2.69.9,5.08,5.08,0,0,1,2.23,1.72,5.4,5.4,0,0,0-2.4-1.26,18.71,18.71,0,0,0-2.67-.59,29.38,29.38,0,0,0-5.46-.31,18.76,18.76,0,0,0-5.33.88A6.94,6.94,0,0,0,115,375.11Z" fill="#eaad24"/><path d="M124.93,366.78a3.82,3.82,0,0,1-1-1.72,7.93,7.93,0,0,1-.36-2,9.67,9.67,0,0,1,.56-4,7.46,7.46,0,0,1,2.41-3.3,7.35,7.35,0,0,1,3.74-1.36,10.67,10.67,0,0,0-3.24,2,8.14,8.14,0,0,0-2,3.06,11.72,11.72,0,0,0-.72,3.64,7.53,7.53,0,0,0,0,.95,7.43,7.43,0,0,0,.07.94A4.24,4.24,0,0,0,124.93,366.78Z" fill="#eaad24"/><path d="M84,470.11l16.39-10.81c2.72-1.82,5.45-3.61,8.12-5.49s5.35-3.72,8-5.66,5.18-3.94,7.58-6.09a30.37,30.37,0,0,0,3.32-3.4c.48-.58,1-1.3,1.54-1.93s1.09-1.27,1.67-1.87a25.13,25.13,0,0,1,8.2-5.72,21.87,21.87,0,0,1,4.79-1.39,15.7,15.7,0,0,1,4.93-.14,20.15,20.15,0,0,0-9.32,2.37,26.09,26.09,0,0,0-7.49,5.91c-.53.6-1,1.21-1.52,1.85s-.9,1.28-1.44,2a32.79,32.79,0,0,1-3.42,3.72,88.44,88.44,0,0,1-7.65,6.32c-5.29,3.92-10.8,7.5-16.42,10.88S89.86,467.19,84,470.11Z" fill="#191919"/><path d="M94.49,413.61l-7,1s8-8,11-9c2.49-.83,8-8,8-8l1,2c.44.88,1,1,1,1Z" fill="#eaad24"/><g id="shoe"><path d="M120.91,507.61a17.36,17.36,0,0,1-.42,3h-59a4.15,4.15,0,0,1-.92-3c0-9,12.92-31,12.92-31s3-1,11,2,10,6,10,6l4-5,3,2s-4,8-1,12,4,3,6,5,13,4,14,6A6.32,6.32,0,0,1,120.91,507.61Z" fill="#e5e5e5"/><path d="M120.91,507.61a17.36,17.36,0,0,1-.42,3h-59a4.15,4.15,0,0,1-.92-3Z" fill="#adadad"/></g></g><g id="person_2" data-name="person 2"><g id="neck_shoulder" data-name="neck + shoulder"><path d="M389.49,142.61s-22,20-21,12a31.52,31.52,0,0,0,.19-4.56c0-.48,0-1,0-1.46a113.85,113.85,0,0,0-2.13-15.88.65.65,0,0,0,0-.1l5.85-10.11,1.83-3.16,3.32-5.73a124.39,124.39,0,0,0,4,16c.3,1,.62,2,1,3A24.18,24.18,0,0,0,389.49,142.61Z" fill="#b44f28"/><path d="M381.53,129.63a41.11,41.11,0,0,1-6,12,27.72,27.72,0,0,1-6.85,7,114.49,114.49,0,0,0-2.15-16l11-19A124.39,124.39,0,0,0,381.53,129.63Z" fill="#974221"/><path d="M375.87,127.64c-.41-2.62-1.06-5.2-1.59-7.8,0-.16-.07-.33-.11-.5-.42-2-1-4.52-.73-6.47-.46,3-.53,6.08-1,9.09,0,.18-.06.36-.1.54a17,17,0,0,1-3.18,7.89,9.25,9.25,0,0,1-2.65,2.32,113.85,113.85,0,0,1,2.13,15.88c0,.49,0,1,0,1.46a16.74,16.74,0,0,0,5.72-7.72A27.76,27.76,0,0,0,375.87,127.64Z" fill="#974221"/></g><path d="M277.49,267.61s-15,8-14,11,10,19,22,7l12-12s61-9,64-18,7-43,7-51-25-6-25-6-2,27,1,35c1.65,4.4-9.06,6.89-18,11-14.95,6.86-33.19,14.66-34,16l-10-1s-12,6-13,6S269.49,269.61,277.49,267.61Z" fill="#974221"/><path d="M365.68,252.61S320.31,334,326.44,351.92s29.71,91.77,40.81,104.69,21-.16,21-.16,3.41-77-6.73-94.95c0,0,15.75-33.13,18.58-55.15s6.64-46.05,6.64-46.05Z" fill="#b79963"/><path d="M412.49,462.61l17,3s21-1,20-49-1-134-9-150-48,0-48,0-1,95,5,115S402.49,456.61,412.49,462.61Z" fill="#c3a86f"/><path d="M344.49,201.61l25,3-3-57.35s-10,.35-15,12.35-10,41-10,41Z" fill="#ef8007"/><path d="M445.49,287.61s-38.15,0-61.06-7.31a56.49,56.49,0,0,1-6.94-2.69L371.28,275l-7.79-3.34v-48c0-1-7-24-9-27s3-34,4-40,10-11,10-11l1,6s18-9,18-11c0,0,28,2,34,11,2.16,3.24,5.22,10.61,8.3,20.41.72,2.28,1.45,4.7,2.15,7.23.8,2.83,1.58,5.8,2.34,8.87,1.55,6.27,3,13,4.13,19.9a213.65,213.65,0,0,1,3.08,29.59C442.49,273.61,445.49,287.61,445.49,287.61Z" fill="#fc8c00"/><path d="M282.56,299.84c10.65,1.21,18.81,9.7,18.45,19.19a16.68,16.68,0,0,1-3.15,9.18,17.12,17.12,0,0,0-3.35,8.69l-.05.75,46.67,3.4c5.73.41,10.67-3.36,11-8.44l8-110.31c.37-5.08-4-9.53-9.7-10L303.83,209l-.06.74a17.18,17.18,0,0,0,2.05,9.08,16.65,16.65,0,0,1,1.8,9.55c-1,9.44-10.32,16.65-21,16.31-11.95-.37-21.15-9.5-20.39-19.94A16.91,16.91,0,0,1,269.4,216a16.55,16.55,0,0,0,3.26-8.56l.06-.76-46.67-3.4c-5.73-.42-10.68,3.36-11.05,8.44l-2.82,38.81a2.53,2.53,0,0,1-3.23,2,22.63,22.63,0,0,1-6.23-2.49,22.85,22.85,0,0,0-9.84-3c-11.78-.86-21.91,7.15-22.12,17.75-.19,9.5,8.1,17.88,18.76,19a22.91,22.91,0,0,0,10.72-1.43,24.35,24.35,0,0,1,6.64-1.62,2.55,2.55,0,0,1,2.92,2.49L207,322c-.37,5.07,4,9.53,9.7,9.94l46.67,3.4.06-.76a16.72,16.72,0,0,0-2-8.94,16.75,16.75,0,0,1-1.92-9.06C260.26,306.17,270.68,298.48,282.56,299.84Z" fill="#191919"/><path d="M387.49,259.61l-3.06,20.69a56.49,56.49,0,0,1-6.94-2.69L371.28,275l-7.79-3.34v-48S391.49,214.61,387.49,259.61Z" fill="#ef8007"/><path d="M431.94,179.25c-.45,26.36-9.72,68.56-11.45,76.36-2,9-57,16-57,16v-5l41-31,25-64,.3.41C430.51,174.3,431.24,176.72,431.94,179.25Z" fill="#ef8007"/><path d="M331.49,264.61s-15,8-14,11,10,19,22,7l12-12s61-9,64-18,7-43,7-51-25-6-25-6-2,27,1,35c1.65,4.4-9.06,6.89-18,11-14.95,6.86-33.19,14.66-34,16l-10-1s-12,6-13,6S323.49,266.61,331.49,264.61Z" fill="#b44f28"/><path d="M429.49,171.61s-2,41-7,41c0,0-22-1-26-7s-9-39-4-47,6-9,6-9" fill="#fc8c00"/><path d="M354.49,143.61s10,5,20-9,7-25,7-25,0-13-9-16-30-4-31,5S341.49,139.61,354.49,143.61Z" fill="#b44f28"/><path d="M373.49,95.61s-3.26,5.11,2,13c4,6,.39,12.39,4,16,2,2,9-4,9-15s-6-32-25-28-15,3-15,3,11.84,4.68,15,11C365.49,99.61,373.49,95.61,373.49,95.61Z" fill="#3e1714"/><path d="M376.78,119.88a5.53,5.53,0,0,0,0-.71c0-2.67-2.49-4.79-2.22-7.45a4.49,4.49,0,0,1,3.07-3.62,4.8,4.8,0,0,1,3.94.27c4.35,2.46,3.1,10.91.81,14.58a5.55,5.55,0,0,1-2.85,2.56,2.53,2.53,0,0,1-3.1-1.5C376,122.71,376.61,121.29,376.78,119.88Z" fill="#b44f28"/><path d="M376.56,118.59a2.28,2.28,0,0,0,0-.45c0-1.69-1.7-3.06-1.49-4.73a2.91,2.91,0,0,1,2.16-2.25,3.66,3.66,0,0,1,2.74.22c3,1.6,2.08,6.92.47,9.21a3.75,3.75,0,0,1-2,1.58,1.84,1.84,0,0,1-2.15-1C376,120.36,376.44,119.48,376.56,118.59Z" fill="#974221"/><path d="M373,108.33c-.5-3-1-6.18-2.61-8.85a8.23,8.23,0,0,0-4.3-3.78c-3.17-1.06-6.58.6-9.33,2.48-3.82,2.62-7.27,5.33-12.13,4-6.66-1.86-13.23-8.72-10.73-15.9,2.71-7.79,12.58-8.51,19.11-5.34,2.3,1.11,4.44,2.7,6.92,3.42s5.14-.15,7.67.45a9.1,9.1,0,0,1,5.69,5,23.43,23.43,0,0,1,2.16,11.33A13.08,13.08,0,0,1,373,108.33Z" fill="#3e1714"/><path d="M366.2,112.6a.36.36,0,0,1-.35-.18,5.83,5.83,0,0,0-5.25-2.63,9.8,9.8,0,0,0-6,2,.36.36,0,0,1-.5,0,.36.36,0,0,1,0-.49,10.3,10.3,0,0,1,6.42-2.18,6.52,6.52,0,0,1,5.88,3,.36.36,0,0,1-.14.48Z" fill="#3e1714"/><path d="M339,114.76l-.11,0a.35.35,0,0,1-.23-.44,6.53,6.53,0,0,1,5.17-4.09,10.39,10.39,0,0,1,6.73.86.35.35,0,0,1-.36.61,9.79,9.79,0,0,0-6.24-.79,5.83,5.83,0,0,0-4.63,3.62A.34.34,0,0,1,339,114.76Z" fill="#3e1714"/><path d="M346.15,115a1.62,1.62,0,0,1-2.27,1.34c-2.13-1,0-4.34,1.79-2.64A1.53,1.53,0,0,1,346.15,115Z" fill="#3e1714"/><path d="M361.82,114.64a1.63,1.63,0,0,1-2.27,1.34c-2.13-1,0-4.34,1.79-2.64A1.51,1.51,0,0,1,361.82,114.64Z" fill="#3e1714"/><path d="M349.48,126.61a6.78,6.78,0,0,0,3.88-1.61.4.4,0,0,0,0-.57.43.43,0,0,0-.58,0s-2.67,2.27-4.74,1c-2.37-1.43,1.2-8.44,2.78-11a.41.41,0,0,0-.7-.41c-.63,1-6,10-2.5,12.11A3.48,3.48,0,0,0,349.48,126.61Z" fill="#3e1714"/><path d="M348,132.65c-.3.2-.12.67,0,.92a3.7,3.7,0,0,0,1.27,1.6,5.63,5.63,0,0,0,2.94.72,4.35,4.35,0,0,0,1.72-.32,2.45,2.45,0,0,0,1.36-1.57,4.16,4.16,0,0,0,.18-1.23.41.41,0,0,0-.44-.35c-2.18,0-4.36.08-6.54.13a1.14,1.14,0,0,0-.37,0Z" fill="#3e1714"/><path d="M375.87,123.64c-.41-2.62-1.06-5.2-1.59-7.8-.42-2.07-1.16-4.85-.84-7-.46,3-.53,6.08-1,9.09a17.72,17.72,0,0,1-3.28,8.43c-5.89,7.36-14.69.38-22.23,1.76a3,3,0,0,0-2.27,1.34l-.06.17a3.4,3.4,0,0,0-.11,1.39,30.42,30.42,0,0,0,7,17.44,5.76,5.76,0,0,0,1.93,1.65c1.5.65,3.21.05,4.78-.43,3.45-1.06,7.17-1.51,10.2-3.48a16.54,16.54,0,0,0,6-7.9A27.76,27.76,0,0,0,375.87,123.64Zm-17.34,13.92a2.39,2.39,0,0,1-1,.87c-2.23,1.18-5.82,1.46-7.66-.54a11.41,11.41,0,0,1-1.42-2.08c-.33-.59-.66-1.18-1-1.77-.24-.44-.77-1.09-.74-1.6a.87.87,0,0,1,.2-.54c.44-.52,1.46-.56,2.05-.59l4-.2a6.14,6.14,0,0,1,3.27.44,4.6,4.6,0,0,1,1.93,2.63C358.52,135.15,359.07,136.59,358.53,137.56Z" fill="#3e1714"/><path d="M400.49,482.61l-7,10s-1-1-4,1a6.46,6.46,0,0,0-3,5,117.8,117.8,0,0,1-13,11c-7,5-17,1-20,0-2.78-.93-1.26-5.3-1-8.32,0-.24,0-.46,0-.68,0-3,13-20,14-27,.95-6.66-2.62-22.35-3-23.88l0-.12.4.14a29.79,29.79,0,0,0,12.6.86l.56-.08c.56-.09,1.08-.19,1.58-.32,6.22-1.51,7.86-5.6,7.86-5.6s3,15,5,17S400.49,482.61,400.49,482.61Z" fill="#007933"/><path d="M383.49,482.61c-1,7-15,15-20,20-3.45,3.45-8.34.71-11-1.32,0-.24,0-.46,0-.68,0-3,13-20,14-27,.95-6.66-2.62-22.35-3-23.88l.37,0a29.79,29.79,0,0,0,12.6.86l.56-.08c.56-.09,1.08-.19,1.58-.32C379.51,454.14,384.4,476.24,383.49,482.61Z" fill="#01682b"/><path d="M437.49,511.61s-6,1-8,0l-4-2a3.7,3.7,0,0,1-3,2c-2,0-28,2-30,0l-2-2s0-5.19,1.28-7.91a3.69,3.69,0,0,1,.72-1.09c2-2,10-7,13-12s5-29,5-29,13.21-.83,18.62,1.28a5.56,5.56,0,0,1,1.38.72c4,3,4,5,4,5v18s2,10,3,17S437.49,511.61,437.49,511.61Z" fill="#007933"/><path d="M427.49,489.61c2,14-10,10-17,13-6.36,2.73-16.86-.33-18.72-.91a3.69,3.69,0,0,1,.72-1.09c2-2,10-7,13-12s5-29,5-29,13.21-.83,18.62,1.28C428.25,466.46,426.25,480.92,427.49,489.61Z" fill="#01682b"/><path d="M277.42,270.9l5.83,5.26L277.48,271Z" fill="none"/><path d="M285.48,278.39a.83.83,0,0,1-.4.92.85.85,0,0,1-1-.1l-6-5.43.53,3.75a.83.83,0,0,1-.25.72L272,284.48a13.16,13.16,0,0,0,15.18,1.62l-3.09-13.85Z" fill="#008037"/><path d="M267.6,274.64a13.08,13.08,0,0,0,3.23,8.63l6.05-5.92-.81-5.65a.85.85,0,0,1,1.35-.8l-6.07-5.46A13.1,13.1,0,0,0,267.6,274.64Z" fill="#0b9c39"/><path d="M296.57,259.86a1,1,0,0,0-.3-.7l-4.18,4a.82.82,0,0,1,.19.53v4.95a.85.85,0,1,1-1.7,0v-3l-6.47,6.6,3.09,13.85a12.76,12.76,0,0,0,2.85-2.16C297.29,276.71,296.61,260.54,296.57,259.86Z" fill="#057032"/><path d="M295.53,258.82c-.68,0-16.84-.72-24.08,6.52l-.1.1,6.07,5.46.06.05,5.77,5.21-.9-4a.86.86,0,0,1,.22-.78l6.68-6.81H286a.85.85,0,0,1,0-1.7h5.47a.85.85,0,0,1,.67.32l4.18-4A1.07,1.07,0,0,0,295.53,258.82Z" fill="#3aaa45"/></g><g id="stars"><polygon points="314.47 0 316 6.32 320.35 7.5 316 8.68 314.47 15 312.94 8.68 308.59 7.5 312.94 6.32 314.47 0" fill="#deceac"/><polygon points="428 85.81 430.6 96.55 438 98.56 430.6 100.58 428 111.31 425.4 100.58 418 98.56 425.4 96.55 428 85.81" fill="#deceac"/><polygon points="209.78 360 210.84 363.36 213.85 363.99 210.84 364.62 209.78 367.99 208.72 364.62 205.7 363.99 208.72 363.36 209.78 360" fill="#deceac"/><polygon points="79.37 21 81.72 30.69 88.39 32.5 81.72 34.31 79.37 44 77.03 34.31 70.35 32.5 77.03 30.69 79.37 21" fill="#deceac"/><polygon points="9.8 252.01 12.35 262.54 19.61 264.51 12.35 266.48 9.8 277.01 7.25 266.48 0 264.51 7.25 262.54 9.8 252.01" fill="#deceac"/></g></g></g></g></svg>