<?xml version="1.0" encoding="utf-8"?>
<!-- Generator: Adobe Illustrator 23.1.1, SVG Export Plug-In . SVG Version: 6.00 Build 0)  -->
<svg version="1.1" id="Layer_1" xmlns="http://www.w3.org/2000/svg" xmlns:xlink="http://www.w3.org/1999/xlink" x="0px" y="0px"
	 viewBox="0 0 472.7 512.7" style="enable-background:new 0 0 472.7 512.7;" xml:space="preserve">
<style type="text/css">
	.st0{opacity:0.1;fill:#DECEAC;enable-background:new    ;}
	.st1{fill:#E7DDC5;}
	.st2{fill:#3E1714;}
	.st3{fill:#A84036;}
	.st4{fill:#9A3B32;}
	.st5{fill:#007933;}
	.st6{fill:#F8C23A;}
	.st7{fill:#D99D08;}
	.st8{fill:#B44F28;}
	.st9{fill:#DECEAC;}
	.st10{fill:#974221;}
	.st11{fill:#431D0F;}
	.st12{fill:#230D0C;}
	.st13{fill:#0C0909;}
	.st14{fill:#EB834B;}
	.st15{fill:#191919;}
	.st16{opacity:0.5;fill:#070707;enable-background:new    ;}
	.st17{fill:#070707;}
	.st18{fill:#C8CCCA;}
	.st19{fill:#AAAFAC;}
	.st20{fill:#222222;}
	.st21{fill:#E0E0E0;}
	.st22{fill:#707070;}
	.st23{fill:#A3A3A3;}
	.st24{fill:#F9BF2E;}
	.st25{fill:#EAAD24;}
	.st26{fill:#E5E5E5;}
	.st27{fill:#ADADAD;}
	.st28{fill:#B79963;}
	.st29{fill:#C3A86F;}
	.st30{fill:#EF8007;}
	.st31{fill:#FC8C00;}
	.st32{fill:#01682B;}
	.st33{fill:none;}
	.st34{fill:#008037;}
	.st35{fill:#0B9C39;}
	.st36{fill:#057032;}
	.st37{fill:#3AAA45;}
</style>
<title>hero-img</title>
<g>
	<g id="Layer_6">
		<g id="hero_image">
			<path id="bg" class="st0" d="M203,508c-3.7-2.4-6.4-6.1-8.9-9.9c-13-19.5-34.6-50.3-45.6-70.5c-17.5-32.4-21.3-54.7-37.6-87.8
				c-25-50.7-47.4-102.9-63.8-157.1c-10.7-35.3-18.9-72.1-15.2-108.8c1.6-16.7,6.8-34.6,20.7-43.9c13.5-9,31.3-7.4,47.3-4.8
				c28.5,4.7,57.7,11.9,80.5,29.6c34.1,26.5,47.8,71.5,52.4,114.4s1.3,63.5,11.6,105.3c14.2-34,30.8-44.5,53.7-73.4
				s53.7-52.7,89.5-61.2c24.1-5.8,52.5-3.2,69.4,15c16,17.2,17.5,43.3,14.2,66.6c-8.7,60.6-43.6,114.6-84.8,160
				c-26.2,28.8-55.2,55-86.5,78.2c-17.4,12.9-72.4,60.7-95.4,49.1C204,508.6,203.5,508.3,203,508z"/>
			<g id="person_3">
				<path id="back_hair" class="st1" d="M97.1,70c-10.6,15.8,6.8,26.6,1.5,37c-3.4,6.7,31.5,4.8,39.4-18.7
					c8.1-24.3,1.4-10.2,6.8-22.2C149.5,55.5,112.1,52.9,97.1,70z"/>
				<path class="st2" d="M238,71.5c-1,8.2-5.4,35.9-29.1,57.6c-13.7,12.7-30.9,21.1-49.3,24c-3.3,0.5-6.7,0.9-10.1,1
					c-12.2,0.5-21.7-1.6-25.8-3.5l7.5-28.2c5.8-0.6,11.6-1.6,17.3-2.9c1-0.2,2.1-0.5,3.1-0.7c6.9-1.7,13.8-3.8,20.4-6.4
					c1-0.4,2.1-0.8,3.1-1.2c2.2-0.9,4.4-1.9,6.5-3c23.5-11.7,38.8-41.9,38.8-41.9L238,71.5z"/>
				<path class="st3" d="M194.5,511.6h-32c0,0-13-89-13-96c0-4.4-10.7-50.2-18.6-83.7c-4.7-19.8-8.4-35.3-8.4-35.3l0.6,44.9
					l2.4,169.1h-35c0,0-13.5-59.3-23.4-117.6c-1.4-8-2.7-16.1-3.8-23.9c-1.4-9.5-2.7-18.8-3.7-27.5c-3.3-27.9-2-49.5,0.6-65.1
					c3.8-22.5,10.4-32.9,10.4-32.9l96,4c0,0,3.2,8.7,7.7,21.3c9.4,26.4,24.3,70.1,26.3,87.7c0.3,2.8,0.5,7,0.5,12.3
					C201.3,409.3,194.5,511.6,194.5,511.6z"/>
				<path class="st4" d="M155.5,301.6l-24.6,30.3l-7.8,9.6l-49.6,61.1l-6.4-9.6c-1.4-8-2.7-16.1-3.8-23.9l31.3-26.5c0,0-10-22-2-25
					s16-2,18-6s1-16,4-19s14.5-14.2,24-10C156.5,290.6,155.5,301.6,155.5,301.6z"/>
				<path class="st4" d="M174.2,268.9c-6.4,2.1-19.3,4.7-44.7,5.7c-29.5,1.3-54.7,1.7-69.4,1.9c3.8-22.5,10.4-32.9,10.4-32.9l96,4
					C166.5,247.6,169.7,256.3,174.2,268.9z"/>
				<path class="st2" d="M72.5,224.6c1.2-16.1-13-42.9-12-59c1-17,1.1-16.5,3-29c1.6-10.8,14.3-11.3,25.3-13.3
					c4.3-0.8,8.5-1.4,12.8-1.8c11.6-1.2,23.2-1.1,34.8,0.2c1.4,0.2,2.8,0.3,4.3,0.5c6,0.8,12.4,2.2,16.9,6.3
					c5.2,5,6.6,12.7,7.5,19.9c3.3,25,1.5,50.2-1.5,72.2c-1.4,10.2,11.2,27.7,12,38c-38.3,0.1-76.9-4.1-115.1-4
					C60.8,245.1,71.8,234.1,72.5,224.6z"/>
				<path class="st5" d="M236.9,196.9c-10.2,0.2-18.8-6.3-19.6-14.8c-0.3-3,0.4-5.9,1.9-8.5c0.9-1.6,1.6-3.4,1.9-5.3
					c0.1-1.2-0.9-2.3-2.1-2.3c-0.2,0-0.3,0-0.5,0l-41.5,2.4c-5.4,0.3-10.1-3.1-10.3-7.6l-5.7-98.5c-0.3-4.5,3.9-8.5,9.4-8.8
					l41.5-2.4c1.2,0.1,2.3-0.9,2.3-2.1c0-0.2,0-0.3,0-0.5c-0.5-1.8-1.4-3.5-2.5-5c-1.8-2.4-2.8-5.3-2.8-8.2
					c-0.2-8.5,7.7-16,17.8-16.9c11.3-1.1,21,5.9,21.6,15.2c0.1,2.8-0.6,5.6-2,8.1c-0.9,1.6-1.6,3.4-1.9,5.2
					c-0.1,1.2,0.9,2.3,2.1,2.3c0.2,0,0.3,0,0.5,0l41.6-2.4c5.4-0.3,10.1,3.1,10.3,7.6l5.7,98.5c0.3,4.5-3.9,8.5-9.4,8.8l-41.6,2.4
					c-1.2-0.1-2.3,0.9-2.3,2.1c0,0.1,0,0.3,0,0.4c0.5,1.8,1.4,3.5,2.5,4.9c1.7,2.3,2.7,5,2.9,7.8
					C257.1,188.7,248.2,196.7,236.9,196.9z"/>
				<g id="coin">
					<circle class="st6" cx="232.4" cy="106" r="16.6"/>
					<path class="st7" d="M233.4,115.2h-1.8c-0.1,0-0.3,0-0.4-0.1c-0.1-0.1-0.1-0.2-0.1-0.3v-1.5c-0.9-0.1-1.7-0.3-2.5-0.7
						c-0.7-0.3-1.3-0.7-1.9-1.2c-0.2-0.2-0.4-0.5-0.4-0.8c0-0.3,0.1-0.5,0.3-0.7l1.6-1.2c0.2-0.1,0.4-0.2,0.6-0.2
						c0.2,0.1,0.5,0.2,0.6,0.4c0.4,0.4,0.9,0.7,1.5,0.9c0.5,0.2,1.1,0.3,1.7,0.3c0.5,0,0.9-0.1,1.3-0.3c0.3-0.2,0.5-0.5,0.5-0.8
						c0-0.3-0.1-0.5-0.3-0.7c-0.4-0.2-0.8-0.4-1.2-0.5l-2.6-0.6c-1-0.2-2-0.7-2.7-1.5c-0.7-0.7-1-1.7-1-2.6c0-1.1,0.4-2.1,1.2-2.8
						c0.9-0.8,2.1-1.4,3.3-1.5v-1.5c0-0.1,0.1-0.2,0.1-0.3c0.1-0.1,0.2-0.1,0.4-0.1h1.8c0.1,0,0.3,0,0.4,0.1
						c0.1,0.1,0.1,0.2,0.1,0.3v1.5c0.7,0.1,1.4,0.3,2,0.5c0.6,0.2,1.1,0.5,1.6,0.9c0.2,0.2,0.4,0.4,0.4,0.7c0,0.2-0.1,0.5-0.2,0.6
						l-1.3,1.4c-0.2,0.1-0.4,0.2-0.6,0.2c-0.3,0-0.5-0.1-0.7-0.3c-0.4-0.3-0.8-0.5-1.3-0.7c-0.5-0.2-0.9-0.2-1.4-0.2
						c-0.4,0-0.9,0.1-1.2,0.3c-0.3,0.1-0.5,0.4-0.5,0.7c0,0.2,0.1,0.4,0.3,0.6c0.3,0.2,0.5,0.3,0.9,0.4l2.6,0.6
						c1.2,0.2,2.3,0.8,3.2,1.6c0.7,0.7,1,1.7,1,2.7c0,1.1-0.4,2.2-1.3,3c-0.9,0.9-2.1,1.4-3.4,1.6v1.5c0,0.1,0,0.3-0.1,0.3
						C233.6,115.2,233.5,115.3,233.4,115.2z"/>
				</g>
				<path class="st8" d="M194.8,115.6c0.8-0.2,1.2-1.3,2.1-2.1c1.7-1.5,4.1-2.2,6.1-3.2c2.3-1.1,4.4-2.5,6.2-4.2
					c2.2-1.9,3.8-4.4,4.6-7.2c0.5-2.5,0.4-5-0.4-7.4c-0.5-1.8-1.1-4.2-3.1-4.9c-2.6-0.8-5.6,2.2-7.2,4c-2.2,2.5-4.8,4.5-7.8,5.9
					c0.1-1.6,0.6-2.8,0.6-4.2c0-0.4,0-0.8-0.2-1.2c-0.6-0.9-1.9-1.2-2.8-0.6c-0.9,0.6-1.6,1.5-1.9,2.5c-2,4.6-1.7,9.1-3.3,13.9
					c-0.3,0.9-0.9,2.5-1.7,2.9c2.3,1.9,4.7,3.7,7.2,5.4C193.8,115.5,194.3,115.7,194.8,115.6z"/>
				<path class="st2" d="M70.7,164.8c8.6,6.5,46.6,21.7,87.8-1.2c28-15.6,38.7-41.6,41.6-49.3l-15.9-9.1c0,0-21.8,25.9-47.4,31.9
					s-52.3,2.1-52.3,2.1L70.7,164.8z"/>
				<path class="st9" d="M136.4,121.7c-0.5,3.2-2,6.2-4.2,8.5c-2.3,2.4-5.3,3.9-8.6,4.4c-0.8,0.1-1.6-0.2-2.1-0.7
					c-1.9-1.9-3-4.4-3.2-7l-2,5.6c-0.5,1.3-1.8,2.1-3.2,1.8c-6.1-1.5-10.7-6.6-11.5-12.8C113.2,120.3,124.8,120.4,136.4,121.7z"/>
				<g id="neck_n_shadow">
					<path class="st8" d="M127.5,124.2c0,0.1,0,0.2,0,0.3v0.1c-0.1,0.1-0.2,0.2-0.4,0.2c-5.8,1.7-12.1,1.1-17.5-1.6
						c-0.3-0.1-0.4-0.4-0.3-0.6c0,0,0,0,0,0c0.3-2.3,0.6-4.6,0.9-6.9c0.2-1.9,0.5-3.8,0.8-5.7c0.3-2.1,0.6-4.2,0.9-6.3
						c0.1-1.1,0.3-2.1,0.4-3.2c0.1-0.7-0.1-2.4,0.8-2.3l15.8,1.5l-0.9,16.9C127.8,119.1,127.6,121.6,127.5,124.2z"/>
					<path class="st10" d="M127.9,116.5l-0.7,0.2c-4.1,1.2-8.4,1.3-12.6,0.4c-1.6-0.4-3.1-0.9-4.6-1.6c0.2-1.9,0.5-3.8,0.8-5.7
						c0.3-2.1,0.6-4.2,0.9-6.3c0.1-1.1,0.3-2.1,0.4-3.2c0.1-0.7-0.1-2.4,0.8-2.3l15.8,1.5L127.9,116.5z"/>
				</g>
				<path id="head" class="st8" d="M144.4,98.4c-3,7-9,12.2-16.3,14.3c-3.7,1.1-7.7,1.2-11.5,0.4c-6.7-1.8-12.4-6.1-16-12.1
					c-1.1-1.7-1.9-3.5-2.6-5.4c-1.7-4.7-2.4-9.8-1.9-14.9c0-0.2,0.1-0.4,0.1-0.6c1.4-11.6,8.9-21.9,22.3-23.4
					c8.4-1.3,16.7,2.5,21.3,9.5c0.2,0.3,0.5,0.7,0.7,1.1c1.4,2.3,2.5,4.7,3.4,7.3C146.6,82.3,147.4,90.9,144.4,98.4z"/>
				<path id="ear" class="st8" d="M98.8,90.3c-0.1-0.2-0.2-0.4-0.2-0.6c-0.6-2.4,1.4-4.9,0.5-7.2c-0.8-1.5-2.3-2.4-4-2.3
					c-1.4,0-2.8,0.4-3.9,1.3c-3.8,3.4-0.5,10.5,2.7,13.1c1,0.9,2.2,1.4,3.5,1.4c1.3,0,2.5-0.9,2.8-2.2
					C100.3,92.5,99.3,91.4,98.8,90.3z"/>
				<path id="hair_shadow" class="st10" d="M143.3,61.7c-0.6,1.5-1.8,2.7-3.1,3.4c0.2,0.3-0.3,0.6-0.1,0.9c-1.6,2.1-4.2,3.3-6.9,3.1
					c-2.8-0.3-6.3-3.4-6.3-3.4s-3.6-1.3-6.6,0.3c-2,1-2.8-0.7-3.2-1.9c0.2,2.4-0.9,4.6-2.8,6c-2.6,2.1-2.1,2.6-4.9,2.3
					s-1.6,7.3-5.4,7.9c-3.6,0.5-3.4,5.6-4,3.8V84c0-0.1,0-0.2-0.1-0.3c0-0.2-0.1-0.4-0.2-0.5c-0.8-1.4-2-2.4-3.4-3
					c-0.5-0.3-1.1-0.5-1.7-0.7c-2.1-0.6-3.4-1.3-4.1-2.3c-0.6-0.9-0.8-2.1-0.6-3.2c0.1-0.8,0.4-1.6,0.7-2.4c0.9-2.2,2.8-3.8,5.1-4.2
					c-0.4-0.5-0.7-1-0.9-1.5c0.4-0.1,0.7-0.2,1.1-0.3c-0.9-1.2-1.5-2.6-1.6-4.1c0.4-1.3,1.2-2.5,2.3-3.3c4.8-4,6.7-1.2,6.7-1.2
					c-0.1-0.7-0.2-1.4-0.1-2.1c0-0.2,0.1-0.5,0.1-0.7c0.6-2.1,2.2-3.8,4.4-4.3c6.8-2.2,9.2,2.7,9.2,2.7s0.3-3.7,11.5-2.7
					c11.4,1.1,15.4,5.6,15.5,9.8C143.8,60.5,143.6,61.1,143.3,61.7z"/>
				<path id="hair" class="st1" d="M143.9,59.8c-0.1,0.6-0.4,1.3-0.6,1.9c-0.8,1.8-1.9,3.4-3.4,4.6c-2.4,1.8-4.6,1.2-6.5,1
					c-2.8-0.3-6.3-3.4-6.3-3.4s-3.6-1.3-6.6,0.3c-2.4,1.3-3.3-0.3-3.6-1l0,0c0-0.1,0-0.1,0-0.2l0,0c0,0,0,0.1,0,0.2
					c0.1,0.9,0.1,3.8-2.4,5.1c-3,1.6-2.1,2.6-4.9,2.3s-1.7,7.3-5.6,7.8c-3.6,0.5-3.6,7.2-4.2,5.6V84c0-0.1,0-0.2-0.1-0.3
					c0-0.2-0.1-0.4-0.2-0.5c-0.8-1.3-2-2.2-3.5-2.4c-0.5-0.2-1.1-0.3-1.7-0.3c-2.1-0.6-3.3-0.4-4-1.8c-0.4-1-2-3.9-2-5
					c0.1-1.4,0.5-2.7,1-4c0.8-2.4,4-3.2,5.2-3.7c0.4-0.1,0.7-0.2,1.1-0.3c-0.9-1.2-1.5-2.6-1.6-4.1c-0.1-2,0.8-4,2.5-5.2
					c3.9-3.2,5.8-2.1,6.5-1.5c0.1,0.1,0.2,0.2,0.2,0.3c-0.1-0.3-0.1-0.6-0.1-0.9c-0.1-1.6,0.3-4.8,4.6-6.1c6.8-2.2,9.1,2.7,9.1,2.7
					s0.3-3.7,11.5-2.7C141.6,49.4,144.9,55.1,143.9,59.8z"/>
				<g id="face_things">
					<path class="st11" d="M108.4,80.6h-0.1c-0.2-0.1-0.4-0.3-0.3-0.6c0,0,0,0,0,0c0.1-0.2,1.4-3.7,6.2-6.1c3-1.4,6.4-1.4,9.3,0.1
						c0.2,0.1,0.3,0.4,0.2,0.6c0,0,0,0,0,0c-0.1,0.2-0.4,0.3-0.6,0.2c-2.6-1.3-5.8-1.4-8.4-0.1c-4.5,2.2-5.8,5.5-5.8,5.5
						C108.8,80.5,108.6,80.6,108.4,80.6z"/>
					<path class="st11" d="M147.4,80.5c-0.2,0-0.4-0.2-0.4-0.3c-0.9-2.6-3.1-4.6-5.8-5.2c-2.8-0.7-5.7-0.6-8.4,0.5
						c-0.2,0.1-0.5,0.1-0.7-0.1s-0.1-0.5,0.1-0.7c0,0,0.1,0,0.1-0.1c2.9-1.2,6-1.4,9-0.6c3.1,0.6,5.6,2.8,6.6,5.8
						c0.1,0.3-0.1,0.5-0.3,0.6L147.4,80.5z"/>
					<path class="st11" d="M118.7,81.8c-0.1,1.2-1.2,2.1-2.4,1.9c-0.2,0-0.4-0.1-0.6-0.2c-2.8-1.3,0-5.8,2.4-3.5
						C118.5,80.5,118.8,81.1,118.7,81.8z"/>
					<path class="st11" d="M142.2,81.2c-0.1,1.2-1.2,2.1-2.3,2c-0.2,0-0.4-0.1-0.7-0.2c-2.9-1.3,0-5.8,2.4-3.5
						C142.1,79.9,142.3,80.5,142.2,81.2z"/>
					<path class="st11" d="M128.7,95.9c-1.6-0.3-3.1-1-4.3-2.1c-0.2-0.2-0.2-0.5,0-0.7c0.2-0.2,0.5-0.2,0.7,0c0,0,0,0,0,0
						c0,0,3.3,2.9,5.9,1.4c3-1.8-1.3-10.8-3.2-14.1c-0.1-0.2-0.1-0.5,0.2-0.6c0,0,0,0,0,0c0.2-0.1,0.5-0.1,0.6,0.2c0,0,0,0,0,0
						c0.8,1.3,7.2,12.8,2.9,15.3C130.5,95.8,129.6,96,128.7,95.9z"/>
					<path class="st11" d="M120.3,100.6c-0.3,0-0.5,0.2-0.5,0.5c0,0.1,0,0.2,0.1,0.2c1.4,2.2,3.4,4.2,5.7,4.8c3.3,0.9,6.8-1.6,8.1-5
						c0.1-0.3,0-0.5-0.3-0.6c-0.1,0-0.1,0-0.2,0L120.3,100.6z"/>
				</g>
				<path class="st10" d="M97.4,85.1c-0.1-0.2-0.2-0.4-0.4-0.7c-0.2-0.5-0.6-0.9-1-1.1c-0.6-0.2-1.3-0.1-1.9,0.3
					c-1.4,1-1.9,2.9-1.3,4.5c0.7,1.4,1.6,2.7,2.8,3.8c0.3,0.4,0.6,0.6,1.1,0.7c0.7,0,1.1-0.6,1.3-1.2C98.7,89.3,98.5,87,97.4,85.1z"
					/>
				<path class="st12" d="M164.5,161.9c-6.7,5.7-14.3,10.4-22.5,13.7c-4.1,1.7-8.4,3-12.7,3.8c-4.4,0.9-8.8,1.3-13.2,1.2
					c-8.9-0.1-17.6-2.3-26-4.7l-12.6-3.8c-4.2-1.3-8.4-2.6-12.4-4.2c4.2,1.2,8.4,2.3,12.7,3.3s8.5,2.1,12.7,3.2s8.5,2.1,12.7,2.9
					c2.1,0.4,4.3,0.7,6.4,1c1.1,0.1,2.2,0.2,3.2,0.3l1.6,0.1h1.6c8.7,0.1,17.3-1.4,25.4-4.5C149.6,171.1,157.4,167,164.5,161.9z"/>
				<path class="st12" d="M92,135.1c2.4,1.1,4.9,2.1,7.4,2.9c2.5,0.8,5.1,1.5,7.7,2c5.2,1.1,10.5,1.3,15.7,0.5l1-0.1l1-0.2l1.9-0.4
					c1.3-0.4,2.6-0.7,3.8-1.1c2.5-0.8,5.1-1.6,7.6-2.4s5-1.7,7.5-2.6s5-1.9,7.4-2.9c-4.8,2.4-9.7,4.5-14.7,6.3
					c-2.5,0.9-5,1.7-7.6,2.6c-1.3,0.4-2.5,0.8-3.8,1.2l-2,0.5l-1,0.2l-1,0.1c-5.3,0.8-10.8,0.5-16-0.7
					C101.7,139.6,96.7,137.7,92,135.1z"/>
				<path class="st12" d="M163.1,226.4c-0.8,1.5-2,2.7-3.5,3.6c-1.4,1-2.9,1.7-4.6,2.2c-3.2,1-6.6,1.5-10,1.4l-2.5-0.1
					c-0.9,0-1.7-0.2-2.5-0.2c-1.7-0.1-3.4-0.4-5-0.7c-3.3-0.6-6.6-1.5-9.8-2.6c-3.2-1.2-6.2-2.6-9.2-4.2c-2.9-1.6-5.8-3.4-8.6-5.3
					c-2.8-1.9-5.5-3.9-8.2-5.7c-1.4-0.9-2.8-1.7-4.3-2.4c-1.5-0.7-3.2-0.8-4.8-0.2c0.7-0.4,1.6-0.7,2.4-0.7c0.9,0,1.7,0.1,2.5,0.4
					c1.6,0.5,3.2,1.2,4.6,2c2.9,1.6,5.7,3.4,8.6,5.2c5.6,3.6,11.5,6.5,17.6,8.9c3.1,1.1,6.2,2,9.5,2.7c1.6,0.3,3.2,0.7,4.9,0.8
					s3.3,0.4,4.9,0.5c3.3,0.2,6.5-0.1,9.7-0.8c1.6-0.4,3.1-1,4.6-1.7c0.7-0.4,1.4-0.9,2-1.4C162,227.7,162.6,227.1,163.1,226.4z"/>
			</g>
			<g id="person_1">
				<path id="back_hair-2" class="st13" d="M159.3,343.4c-1.2,3-3.3,5.7-3.6,9c-0.1,1.2-0.1,2.6-0.8,3.5l-0.1,0.1
					c-0.9,0.8-2,1.2-3.2,1c-3.6,0.1-7.2-0.6-10.5-1.9c-1.8-0.8-3.7-1.5-5.6-2c-3.5-0.6-7.2,0.6-10.6-0.4c-2.7-0.8-4.8-2.8-7.2-4.2
					c-2.7-1.5-5.8-2.2-8.9-2c-1.9,0.1-4.3,0.5-5.6-0.9c-0.6-0.6-0.8-1.5-1.3-2.1c-0.7-0.6-1.4-1.1-2.1-1.6c-1-1-1.7-2.3-2-3.8
					c-1.4-4.7-2.4-10,0.1-14.2c2.7-4.3,8.1-5.6,12.6-7.9c2.1-1,4.2-2.5,4.9-4.8c0.3-1.6,0.4-3.2,0.2-4.8c0-1.6,0.1-3.2,0.5-4.8
					c2-8.3,9.5-14.1,18.1-13.9h0.1c5.6,0.2,10.9,2.5,15.4,5.8c3.1,2.3,5.9,5.1,7.4,8.6c2,5.1,0.8,10.9-1.6,15.8
					c-0.8,1.8-1.8,3.7-1.1,5.5c0.5,0.9,1.1,1.8,1.9,2.5C160.2,330.9,161.5,337.5,159.3,343.4z"/>
				<g id="neck_n_shadow-2">
					<path class="st8" d="M144.5,354.9c-0.1,0.2-0.2,0.5-0.4,0.6c-0.4,0.3-0.9,0.6-1.4,0.7c-5.1,1.6-10.5,1.9-15.8,0.9
						c-5.3-1-10.1-3.7-13.8-7.5c-0.5-0.5-0.9-1.1-1.2-1.8c-0.9-2.5,2.3-4,4.2-4.5c1.3-0.3,2.6-0.4,3.9-0.5c1-0.1-1.5-0.4-0.7-1.1
						c0.5-0.4-0.7-1.4-1-2c-0.9-1.9-1.9-0.2,3-5l0.5-0.5l0.5-0.5c2.5-2.5,4.3-3.3,5.2-6.7l11.2,2.8c-0.5,2.1,2,2.7,1.5,4.9
						c-0.9,2.4-2.3,4.5-4.1,6.3l-0.1,0.1l-0.4,0.3c-0.6,0.6-1.1,1.1-1.4,1.3c-3,2-2.3,2.7-1,4c2.1,2.2,9.7,4.3,10.9,7.1
						C144.5,354.1,144.6,354.5,144.5,354.9z"/>
					<path class="st10" d="M140.5,334.6c-0.9,2.4-2.3,4.5-4.1,6.3c-0.7,0-1.5,0-2.2-0.1c-1.3-0.2-2.6-0.5-3.8-0.9
						c-3.3-1.1-6.4-2.9-8.9-5.3l0.5-0.5l0.5-0.5c2.5-2.5,4.3-3.3,5.2-6.7l11.3,2.8C138.5,331.9,141,332.5,140.5,334.6z"/>
				</g>
				<path class="st8" d="M136.3,338.9c-1.3-0.3-2.5-0.7-3.7-1.2c-6.8-2.9-12-8.7-14.1-15.9c-3.7-13.1,4.4-28,18.6-29
					c5.9-0.3,11.7,1.8,16,5.9c0.9,0.8,1.6,1.8,2,3c0.4,1.4-0.1,2.9-0.4,4.3c-1.1,5.7,1,11.5,0.5,17.2c-0.4,4.2-2.2,8.1-5.1,11.1
					c-2.1,2.3-4.9,3.9-7.9,4.6C140.3,339.4,138.3,339.3,136.3,338.9z"/>
				<path class="st8" d="M119.7,318.3c0-0.2,0-0.3,0-0.5c0-2,2-3.6,1.7-5.5c-0.3-1.3-1.3-2.3-2.7-2.5c-1.1-0.3-2.3-0.2-3.3,0.3
					c-3.6,1.9-2.4,8-0.4,10.6c0.6,0.9,1.4,1.5,2.4,1.8c1,0.3,2.1-0.2,2.6-1.2C120.4,320.3,119.8,319.3,119.7,318.3z"/>
				<path id="front_hair" class="st10" d="M156.4,302.8c-0.7,2.1-3.2,5.4-9.3,4.7c-3-0.5-5.6-2.5-6.8-5.4c-2.6,5.8-7,9.4-10.5,10.5
					c-7.8,2.6-10.4-1.9-10.8-2.8c-1.2-2.4-1.9-5-2.1-7.7c2.2-8.1,9.4-12.2,18.2-11.6h0.1c4.6,0.6,9.1,2.4,12.9,5
					C151.1,297.6,153.9,300.1,156.4,302.8z"/>
				<path id="front_hair-2" class="st13" d="M155.8,301.9c-0.4,0.8-0.9,1.5-1.5,2.1c-2.1,2-5.3,2.3-8.2,1.8
					c-2.7-0.5-5.4-1.9-6.4-4.4c-1.6,4.4-7.2,9-10.7,10.3c-8.9,3.3-10.9-1.9-11.3-2.8c-1-2.2-1.6-4.6-1.8-7c1.9-8.3,9.5-14.2,18-13.9
					h0.1c4.6,0.5,9.1,2,13.1,4.6c3.3,2,6.4,4.6,8.1,8.1C155.4,301,155.6,301.5,155.8,301.9z"/>
				<g id="face">
					<path class="st2" d="M129.4,310.2c-0.1,0-0.1-0.1-0.2-0.1c-0.1-0.2-0.1-0.4,0.1-0.5c2.1-1.2,4.5-1.6,6.8-1.1
						c2.6,0.4,4.8,2,5.9,4.4c0.1,0.2,0,0.4-0.2,0.5c0,0,0,0,0,0c-0.2,0.1-0.4,0-0.5-0.2c0,0,0,0,0,0c-1.1-2.1-3-3.5-5.3-3.9
						c-2.1-0.5-4.4-0.1-6.3,0.9C129.6,310.2,129.5,310.3,129.4,310.2z"/>
					<path class="st2" d="M158.3,317.9c-0.2,0-0.3-0.1-0.3-0.3c-0.7-2.1-2.4-3.7-4.6-4.1c-2.2-0.6-4.5-0.5-6.6,0.4
						c-0.2,0.1-0.4,0-0.5-0.2c0,0,0,0,0,0c-0.1-0.2,0-0.4,0.2-0.5c0,0,0,0,0,0c2.3-0.9,4.8-1.1,7.1-0.4c2.4,0.5,4.4,2.3,5.1,4.7
						c0,0.2-0.1,0.4-0.3,0.4C158.3,317.9,158.3,317.9,158.3,317.9z"/>
					<path class="st2" d="M135.9,315c-0.6,0.7-1.7,0.9-2.4,0.3c-0.1-0.1-0.3-0.3-0.4-0.4c-1.3-2.1,2.6-3.8,3.1-1.3
						C136.3,314.1,136.2,314.6,135.9,315z"/>
					<path class="st2" d="M152.5,318.9c-0.5,0.8-1.6,1-2.4,0.5c-0.2-0.1-0.3-0.2-0.4-0.4c-1.5-2,2.1-4,3-1.6
						C152.9,317.9,152.8,318.5,152.5,318.9z"/>
					<path class="st2" d="M140.7,326.1c-0.7-0.3-1.4-0.7-2-1.1c-0.1-0.1-0.1-0.4,0-0.5c0.1-0.2,0.4-0.2,0.5,0c0,0,2.1,1.7,3.8,1.1
						c2.2-0.7,1.2-6.2,0.6-8.3c-0.1-0.2,0.1-0.4,0.3-0.5c0.2-0.1,0.4,0,0.4,0.2c0,0,0,0,0,0c0.1,0.3,2.3,8.1-1.1,9.2
						C142.4,326.4,141.5,326.4,140.7,326.1z"/>
					<path class="st2" d="M135.6,328.6c-0.5,0-0.8,0.4-0.8,0.8c0,0,0,0,0,0.1c0.1,1.2,0.7,2.4,1.7,3.2c0.9,0.8,2,1.1,3.2,1
						c1.5-0.2,3.7-2.2,1.4-3.2C139.5,329.8,137.5,328.6,135.6,328.6z"/>
				</g>
				<path class="st10" d="M118.4,320.3c0-0.3,0-0.6-0.1-0.9c-0.6-2.1-0.7-4.2-0.4-6.4c0.1-0.3,0-0.6-0.1-0.8
					c-0.1-0.1-0.2-0.1-0.4-0.2c-0.3-0.1-0.7-0.2-1.1-0.2c-1.2,0-1.4,1.3-1.3,2.2c0.1,1.6,0.4,3.1,1,4.5c0.2,0.6,0.6,1.2,1,1.7
					c0.2,0.3,0.6,0.6,1,0.5C118.2,320.8,118.4,320.6,118.4,320.3z"/>
				<path id="earring" class="st14" d="M119.1,321.5c0.4,0,0.8,0.1,1.1,0.4c0.9,1.1,0,4-0.3,5.3c-0.2,0.8-0.4,1.5-1.3,1
					c-1-0.5-1.9-1.2-2.7-2c-0.5-0.5-0.8-1-0.9-1.7c-0.4-2.1,2.3-3,4-3L119.1,321.5z"/>
				<path class="st15" d="M163.5,505.6c-0.5,0.7-1,1.4-1.6,2c-3.4,3.6-8.4,5.5-13.4,5c-9.2-0.9-12.5-0.1-23-3.9
					c-0.9-0.3-1.9-0.7-3-1.1l-1.5-0.8l-15.5-8.5l-20.1-11l-7.9-4.3v3.6c0,1-10,2-10,2l-0.2-0.3l-0.2-0.2l-2.2-3l-9.4-12.5l0,0h3
					c-1.1-0.6-2.2-1.2-3.3-1.8c0,0,0,0,0,0c-5.3-2.9-8.9-4.8-9.7-5.2c-2-1-4.8-3.3-7-6.3c0,0,0,0,0,0c0,0,0,0,0,0
					c-4.9-9.3-3.6-20.6-3.6-20.6l0.8-5.6v0c0.2-1.7,0.4-4.5,0.8-7.4l0.2,0l37.1,4.1l6.6,0.7l24.8,2.7l3.3,0.4l0.5,0.5
					c1.5,1.4,6,5.4,11.7,10.8c0.5,0.4,1,0.9,1.4,1.3c0.8,0.7,1.6,1.5,2.4,2.2c3.3,3.1,6.9,6.5,10.5,9.9c0.4,0.4,0.8,0.7,1.2,1.1h0
					c4.7,4.5,9.4,9.1,13.5,13.2c3.2,3.2,6,6.2,8.3,8.8c2.9,3.2,4.8,5.7,5.3,7.1C166.5,496.6,163.5,505.6,163.5,505.6z"/>
				<path class="st16" d="M146.5,470.3c-15,7.2-34.1,20.3-42.6,26.3L77,480.9v3.7c0,1-9.6,2-9.6,2l-2.5-3.6l42.4-52.5
					C110.9,434.1,132.2,454.8,146.5,470.3z"/>
				<path class="st17" d="M140.5,491.6c-2.5-1.6-4.9-3.3-7.3-5.1s-4.7-3.5-7.1-5.3s-4.7-3.5-7.1-5.2c-1.2-0.9-2.4-1.7-3.6-2.5
					c-1.2-0.8-2.5-1.5-3.9-1.9c1.5,0,3,0.3,4.4,1c1.4,0.6,2.7,1.3,4,2c2.6,1.5,5,3.2,7.4,5c2.4,1.8,4.7,3.7,6.9,5.7
					C136.4,487.3,138.5,489.4,140.5,491.6z"/>
				<g id="shoe_back">
					<path class="st18" d="M62.5,489c0,0-4,13.5-1,16.4c3,2.9,2,4.8,2,4.8s-1.9,0.1-4.3,0.3c-3.8,0.2-8.9,0.3-10.7-0.3
						c-3-1-16-26-15-30.9l0.3-0.2c1.8-1.2,10.3-6.6,15.6-7.5c1.9,0.6,4,0.9,6,1c3,0,12,12.5,12,12.5v2.8L62.5,489z"/>
					<path class="st19" d="M55.5,508.6c1.4,0,2.7,1,3.7,1.8c-3.8,0.2-8.9,0.3-10.7-0.3c-3-1-18-26.6-15-30.9l0.3-0.2
						c13.4,2.7,11.2,15.6,15.6,24.4C50.7,505.8,52.5,508.6,55.5,508.6z"/>
				</g>
				<path class="st10" d="M116.5,389.6c0,0,17,27,27,31s45,22,45,22s9,16,15,14s13-3,11-8s-7-9-7-9s1-1,5-2s3-4,3-4s-6,2-10,2
					c-2.7,0-5.4-0.4-8-1c0,0-31-23-39-25s-28-34-28-34L116.5,389.6z"/>
				<path class="st20" d="M173.7,432.5c-0.2,0.7-0.2,1.5-0.4,2.4c-0.6,2.5-2.5,5.9-13.5,11.8c-1.8,1-3.8,2-6.1,3.1l0,0
					c-5.2,2.5-11.2,5.9-17.4,9.8h0c0,0,0,0,0,0c-3.8,2.3-7.6,4.8-11.4,7.3c-3,2-6,4-8.8,5.9h0c-0.3,0.2-0.6,0.4-0.9,0.6
					c-5.9,4.1-11,7.7-14.5,10.3c-3,2.2-4.8,3.5-4.8,3.5L84,480.8l-4.7-2.6l0.7-1l2.5-3.8v0l2.3-3.5l-0.2,0c0,0,0,0,0,0l-0.1,0
					l-2.7,0.2l-6.6,0.4h0l-12.3,0.7c-2.8,0.2-5.3,0-7.5-0.3c0,0,0,0,0,0c-8.8-1.3-13.9-6.1-16.8-11.5c0,0,0,0,0,0c0,0,0,0,0,0
					c-4.9-9.3-3.6-20.6-3.6-20.6l0.8-5.6v0l1-7.3l0.8-6c0,0,0,0,0,0c0.1-0.4,0.2-0.8,0.3-1.2l10.8-1.7l6.9-0.9c0,0,0,0,0,0l2-0.3
					l13.2-1.7l5.6-0.7c0,0,9.2,2.5,14.2,2.2c2.2-0.1,5.9-0.9,9.5-1.8c4.8-1.1,9.3-2.4,9.3-2.4c5.1-1.7,10-2.7,14.7-3.2
					c1.8-0.2,3.6-0.3,5.4-0.4c3.3-0.1,6.5,0,9.5,0.4c3.5,0.4,6.7,1,9.7,1.7c9.8,2.4,16.7,6.3,19.3,8.1
					C173.1,421.5,174.5,429.5,173.7,432.5z"/>
				<path class="st21" d="M324.1,511.6H186.9c-6.3,0-11.4-4.3-11.4-9.5V388c0-5.2,5.1-9.5,11.4-9.5h48.2c1.8,0,3.1-1.4,2.8-2.8
					c-0.2-1.1-0.6-2.1-1-3.1c-0.4-1-1-1.9-1.6-2.8c-1.9-2.9-2.8-6.3-2.7-9.7c0-1,0.2-2,0.4-2.9c1.9-8.4,10.8-15,21.4-15.4
					c11.7-0.5,21.5,6.4,23.6,15.4c0.3,1.2,0.4,2.4,0.4,3.6c0,3.3-1,6.5-2.8,9.2c-0.6,0.9-1.1,1.8-1.5,2.7c-0.4,1-0.8,2.1-1,3.1
					c-0.3,1.5,1,2.8,2.8,2.8h48.3c6.3,0,11.4,4.3,11.4,9.5v114.1C335.5,507.4,330.4,511.6,324.1,511.6z"/>
				<g id="full_bulb">
					<g id="bulb">
						<path class="st22" d="M255.9,469.6c-2.2,0.4-4.4-1-4.8-3.3c-0.1-0.6-0.1-1.3,0.1-1.9l8.7,0
							C260.2,466.9,258.8,469.5,255.9,469.6z"/>
						<path class="st23" d="M258.1,465.3c-8.3,0.5-9.9-1.2-9.1-6.3l13,0.1C262.3,462.1,261.6,465.2,258.1,465.3z"/>
						<path class="st24" d="M270,442.7c0.1,5-2.6,8.4-5.3,11.9c-0.1,7.2-2.8,5.2-10.6,5.5c-5.6,0.1-8.4,0.4-8-5
							c-1.2-3-4.7-5.6-5-9.5C238.3,423.4,269.3,421.5,270,442.7z"/>
					</g>
				</g>
				<path class="st24" d="M244.5,426.8c-0.3,1.8-3,0-0.9-0.8C244,426,244.4,426.4,244.5,426.8z"/>
				<path class="st24" d="M255.5,422.4c-0.3,1.8-3,0-0.9-0.8C255.1,421.6,255.5,422,255.5,422.4z"/>
				<path class="st24" d="M268.1,426.8c-0.3,1.8-3,0-0.9-0.8C267.7,426,268,426.4,268.1,426.8z"/>
				<path class="st8" d="M136.5,375.6c0,0,17,27,27,31s45,22,45,22s9,16,15,14s13-3,11-8s-7-9-7-9s1-1,5-2s3-4,3-4s-6,2-10,2
					c-2.7,0-5.4-0.4-8-1c0,0-31-23-39-25s-28-34-28-34L136.5,375.6z"/>
				<path class="st6" d="M158.5,369.6l-2,1.1l-14.6,8.3l-2.3,1.3l-2.2,1.2c0,0-0.2,1.5-0.8,3.5c-0.7,2.6-1.8,6.2-3.6,9
					c-1,1.5-2.2,2.8-3.6,3.5c-1.4,0.7-3.4,1.3-5.6,1.7c-0.2,0.1-0.5,0.1-0.8,0.2c-6.7,1.2-14.7,1.2-14.7,1.2l-14,13h9
					c0,0-10.2,11.6-23.1,16.9c-2,0.8-4,1.5-6.1,1.9c-0.2,0.1-0.5,0.1-0.8,0.2c-16,3-38,2-38,2s0-0.6,0.1-1.5v0
					c0.2-1.7,0.4-4.5,0.8-7.4c0.3-2.1,0.6-4.2,1-6c0,0,0,0,0,0c0.1-0.4,0.2-0.8,0.3-1.2c0.2-0.7,0.4-1.4,0.7-1.9c2-4,4-3,6-6
					c1.1-1.6,8.4-14.9,20.5-30c9.8-12.2,22.6-25.6,37.9-35.1c0.5-0.3,1.1-0.7,1.6-1c0,0,2-2,6.6-4.4c1-0.5,2.1-1.1,3.4-1.6
					c1.1-0.5,2.3-0.7,3.5-0.7c1.6-0.1,3.3,0.2,5,0.7c0.6,0.2,1.3,0.4,1.9,0.6c2.9,1,5.8,2.6,8.3,4.3c0.1,0.1,0.3,0.2,0.4,0.3
					c1.9,1.3,3.5,2.6,4.8,3.9c1,1,2.3,2.4,3.9,4.1c0.7,0.7,1.4,1.5,2.1,2.2c0,0,0,0,0,0c0.9,0.9,1.7,1.9,2.6,2.9
					C152.7,363,158.5,369.6,158.5,369.6z"/>
				<path class="st25" d="M44.3,412.6c1.6,0.1,3.3,0.3,4.9,0.7c1.6,0.4,3.2,0.8,4.8,1.2c3.1,0.9,6.2,2,9.3,2.8
					c3.1,0.9,6.3,1.4,9.5,1.5c3.2,0.1,6.5-0.6,9.4-2c-1.4,0.9-2.9,1.6-4.5,2c-1.6,0.4-3.2,0.7-4.9,0.7c-3.3,0.1-6.6-0.4-9.8-1.3
					c-3.2-0.9-6.2-2-9.3-3.1C50.7,414.2,47.5,413.3,44.3,412.6z"/>
				<path class="st25" d="M115,375.1c0.2-0.9,0.7-1.8,1.4-2.4c0.7-0.7,1.5-1.2,2.4-1.6c1.8-0.7,3.7-1.1,5.6-1.2
					c1.9-0.1,3.8,0.1,5.6,0.5c0.9,0.2,1.8,0.5,2.7,0.9c0.9,0.4,1.7,0.9,2.2,1.7c-0.7-0.6-1.5-1.1-2.4-1.3c-0.9-0.3-1.8-0.5-2.7-0.6
					c-1.8-0.3-3.6-0.4-5.5-0.3c-1.8,0-3.6,0.3-5.3,0.9C117.4,372.3,115.9,373.5,115,375.1z"/>
				<path class="st25" d="M124.9,366.8c-0.5-0.5-0.8-1.1-1-1.7c-0.2-0.6-0.3-1.3-0.4-2c-0.1-1.4,0.1-2.7,0.6-4
					c0.5-1.3,1.3-2.4,2.4-3.3c1.1-0.8,2.4-1.3,3.7-1.4c-1.2,0.5-2.3,1.1-3.2,2c-0.9,0.9-1.6,1.9-2,3.1c-0.4,1.2-0.7,2.4-0.7,3.6
					c0,0.3,0,0.6,0,1c0,0.3,0,0.6,0.1,0.9C124.4,365.6,124.6,366.2,124.9,366.8z"/>
				<path class="st15" d="M84,470.1l16.4-10.8c2.7-1.8,5.4-3.6,8.1-5.5s5.3-3.7,8-5.7s5.2-3.9,7.6-6.1c1.2-1,2.3-2.2,3.3-3.4
					c0.5-0.6,1-1.3,1.5-1.9s1.1-1.3,1.7-1.9c2.3-2.4,5.1-4.4,8.2-5.7c1.5-0.6,3.1-1.1,4.8-1.4c1.6-0.3,3.3-0.4,4.9-0.1
					c-3.3,0-6.5,0.8-9.3,2.4c-2.8,1.5-5.4,3.5-7.5,5.9c-0.5,0.6-1,1.2-1.5,1.9s-0.9,1.3-1.4,2c-1,1.3-2.2,2.6-3.4,3.7
					c-2.4,2.2-5,4.4-7.7,6.3c-5.3,3.9-10.8,7.5-16.4,10.9S89.9,467.2,84,470.1z"/>
				<path class="st25" d="M94.5,413.6l-7,1c0,0,8-8,11-9c2.5-0.8,8-8,8-8l1,2c0.4,0.9,1,1,1,1L94.5,413.6z"/>
				<g id="shoe">
					<path class="st26" d="M120.9,507.6c-0.1,1-0.2,2-0.4,3h-59c-0.7-0.8-1-1.9-0.9-3c0-9,12.9-31,12.9-31s3-1,11,2s10,6,10,6l4-5
						l3,2c0,0-4,8-1,12s4,3,6,5s13,4,14,6C120.9,505.6,121,506.6,120.9,507.6z"/>
					<path class="st27" d="M120.9,507.6c-0.1,1-0.2,2-0.4,3h-59c-0.7-0.8-1-1.9-0.9-3H120.9z"/>
				</g>
			</g>
			<g id="person_2">
				<g id="neck_shoulder">
					<path class="st8" d="M389.5,142.6c0,0-22,20-21,12c0.2-1.5,0.2-3,0.2-4.6c0-0.5,0-1,0-1.5c-0.3-5.3-1-10.6-2.1-15.9
						c0,0,0-0.1,0-0.1l5.9-10.1l1.8-3.2l3.3-5.7c1,5.4,2.3,10.8,4,16c0.3,1,0.6,2,1,3C384,136.5,386.4,139.9,389.5,142.6z"/>
					<path class="st10" d="M381.5,129.6c-1.3,4.3-3.4,8.4-6,12c-1.8,2.7-4.2,5.1-6.9,7c-0.3-5.4-1.1-10.7-2.1-16l11-19
						C378.5,119,379.8,124.4,381.5,129.6z"/>
					<path class="st10" d="M375.9,127.6c-0.4-2.6-1.1-5.2-1.6-7.8c0-0.2-0.1-0.3-0.1-0.5c-0.4-2-1-4.5-0.7-6.5c-0.5,3-0.5,6.1-1,9.1
						c0,0.2-0.1,0.4-0.1,0.5c-0.4,2.9-1.5,5.6-3.2,7.9c-0.7,0.9-1.6,1.7-2.6,2.3c1.1,5.2,1.8,10.5,2.1,15.9c0,0.5,0,1,0,1.5
						c2.6-2,4.6-4.6,5.7-7.7C376.2,137.7,376.7,132.6,375.9,127.6z"/>
				</g>
				<path class="st10" d="M277.5,267.6c0,0-15,8-14,11s10,19,22,7l12-12c0,0,61-9,64-18s7-43,7-51s-25-6-25-6s-2,27,1,35
					c1.6,4.4-9.1,6.9-18,11c-15,6.9-33.2,14.7-34,16l-10-1c0,0-12,6-13,6S269.5,269.6,277.5,267.6z"/>
				<path class="st28" d="M365.7,252.6c0,0-45.4,81.4-39.2,99.3s29.7,91.8,40.8,104.7s21-0.2,21-0.2s3.4-77-6.7-95
					c0,0,15.8-33.1,18.6-55.1s6.6-46,6.6-46L365.7,252.6z"/>
				<path class="st29" d="M412.5,462.6l17,3c0,0,21-1,20-49s-1-134-9-150s-48,0-48,0s-1,95,5,115S402.5,456.6,412.5,462.6z"/>
				<path class="st30" d="M344.5,201.6l25,3l-3-57.3c0,0-10,0.4-15,12.4s-10,41-10,41L344.5,201.6z"/>
				<path class="st31" d="M445.5,287.6c0,0-38.1,0-61.1-7.3c-2.4-0.7-4.7-1.6-6.9-2.7l-6.2-2.6l-7.8-3.3v-48c0-1-7-24-9-27
					s3-34,4-40s10-11,10-11l1,6c0,0,18-9,18-11c0,0,28,2,34,11c2.2,3.2,5.2,10.6,8.3,20.4c0.7,2.3,1.5,4.7,2.1,7.2
					c0.8,2.8,1.6,5.8,2.3,8.9c1.5,6.3,3,13,4.1,19.9c1.7,9.8,2.7,19.7,3.1,29.6C442.5,273.6,445.5,287.6,445.5,287.6z"/>
				<path class="st15" d="M282.6,299.8c10.6,1.2,18.8,9.7,18.5,19.2c-0.1,3.3-1.2,6.5-3.1,9.2c-1.9,2.5-3.1,5.5-3.4,8.7l0,0.8
					l46.7,3.4c5.7,0.4,10.7-3.4,11-8.4l8-110.3c0.4-5.1-4-9.5-9.7-10l-46.6-3.3l-0.1,0.7c-0.2,3.2,0.5,6.3,2,9.1
					c1.5,2.9,2.2,6.3,1.8,9.6c-1,9.4-10.3,16.6-21,16.3c-12-0.4-21.1-9.5-20.4-19.9c0.2-3.2,1.3-6.2,3.2-8.7c1.9-2.5,3-5.5,3.3-8.6
					l0.1-0.8l-46.7-3.4c-5.7-0.4-10.7,3.4-11.1,8.4l-2.8,38.8c-0.2,1.4-1.5,2.3-2.9,2.1c-0.1,0-0.2,0-0.3-0.1
					c-2.2-0.5-4.3-1.4-6.2-2.5c-3-1.7-6.4-2.8-9.8-3c-11.8-0.9-21.9,7.1-22.1,17.8c-0.2,9.5,8.1,17.9,18.8,19
					c3.6,0.4,7.3-0.1,10.7-1.4c2.1-0.8,4.4-1.4,6.6-1.6c1.4-0.2,2.7,0.8,2.9,2.2c0,0.1,0,0.2,0,0.3L207,322c-0.4,5.1,4,9.5,9.7,9.9
					l46.7,3.4l0.1-0.8c0.2-3.1-0.5-6.2-2-8.9c-1.5-2.8-2.1-5.9-1.9-9.1C260.3,306.2,270.7,298.5,282.6,299.8z"/>
				<path class="st30" d="M387.5,259.6l-3.1,20.7c-2.4-0.7-4.7-1.6-6.9-2.7l-6.2-2.6l-7.8-3.3v-48
					C363.5,223.7,391.5,214.6,387.5,259.6z"/>
				<path class="st30" d="M431.9,179.2c-0.5,26.4-9.7,68.6-11.5,76.4c-2,9-57,16-57,16v-5l41-31l25-64l0.3,0.4
					C430.5,174.3,431.2,176.7,431.9,179.2z"/>
				<path class="st8" d="M331.5,264.6c0,0-15,8-14,11s10,19,22,7l12-12c0,0,61-9,64-18s7-43,7-51s-25-6-25-6s-2,27,1,35
					c1.6,4.4-9.1,6.9-18,11c-15,6.9-33.2,14.7-34,16l-10-1c0,0-12,6-13,6S323.5,266.6,331.5,264.6z"/>
				<path class="st31" d="M429.5,171.6c0,0-2,41-7,41c0,0-22-1-26-7s-9-39-4-47s6-9,6-9L429.5,171.6z"/>
				<path class="st8" d="M354.5,143.6c0,0,10,5,20-9s7-25,7-25s0-13-9-16s-30-4-31,5S341.5,139.6,354.5,143.6z"/>
				<path class="st2" d="M373.5,95.6c0,0-3.3,5.1,2,13c4,6,0.4,12.4,4,16c2,2,9-4,9-15s-6-32-25-28s-15,3-15,3s11.8,4.7,15,11
					C365.5,99.6,373.5,95.6,373.5,95.6z"/>
				<path class="st8" d="M376.8,119.9c0-0.2,0-0.5,0-0.7c0-2.7-2.5-4.8-2.2-7.4c0.2-1.7,1.4-3.1,3.1-3.6c1.3-0.5,2.7-0.4,3.9,0.3
					c4.4,2.5,3.1,10.9,0.8,14.6c-0.6,1.2-1.6,2.1-2.9,2.6c-1.3,0.4-2.6-0.3-3.1-1.5C376,122.7,376.6,121.3,376.8,119.9z"/>
				<path class="st10" d="M376.6,118.6c0-0.1,0-0.3,0-0.4c0-1.7-1.7-3.1-1.5-4.7c0.2-1.1,1.1-2,2.2-2.2c0.9-0.3,1.9-0.2,2.7,0.2
					c3,1.6,2.1,6.9,0.5,9.2c-0.5,0.7-1.2,1.3-2,1.6c-0.9,0.2-1.8-0.2-2.1-1C376,120.4,376.4,119.5,376.6,118.6z"/>
				<path class="st2" d="M373,108.3c-0.5-3-1-6.2-2.6-8.8c-0.9-1.7-2.5-3.1-4.3-3.8c-3.2-1.1-6.6,0.6-9.3,2.5
					c-3.8,2.6-7.3,5.3-12.1,4c-6.7-1.9-13.2-8.7-10.7-15.9c2.7-7.8,12.6-8.5,19.1-5.3c2.3,1.1,4.4,2.7,6.9,3.4s5.1-0.2,7.7,0.4
					c2.5,0.8,4.6,2.6,5.7,5c1.7,3.5,2.4,7.4,2.2,11.3C375.4,103.7,374.5,106.2,373,108.3z"/>
				<path class="st2" d="M366.2,112.6c-0.1,0-0.3-0.1-0.4-0.2c-1.1-1.8-3.2-2.8-5.2-2.6c-2.2,0-4.3,0.7-6,2c-0.1,0.1-0.4,0.1-0.5,0
					c-0.1-0.1-0.1-0.4,0-0.5c1.8-1.4,4.1-2.2,6.4-2.2c2.4-0.1,4.6,1,5.9,3C366.5,112.3,366.4,112.5,366.2,112.6L366.2,112.6z"/>
				<path class="st2" d="M339,114.8h-0.1c-0.2-0.1-0.3-0.3-0.2-0.4c0,0,0,0,0,0c0.9-2.2,2.8-3.8,5.2-4.1c2.3-0.5,4.6-0.2,6.7,0.9
					c0.2,0.1,0.2,0.3,0.1,0.5c-0.1,0.2-0.3,0.2-0.5,0.1l0,0c-1.9-0.9-4.1-1.2-6.2-0.8c-2.1,0.3-3.9,1.7-4.6,3.6
					C339.3,114.7,339.1,114.8,339,114.8z"/>
				<path class="st2" d="M346.1,115c-0.1,0.9-0.9,1.6-1.8,1.5c-0.2,0-0.4-0.1-0.5-0.1c-2.1-1,0-4.3,1.8-2.6
					C346,114,346.2,114.5,346.1,115z"/>
				<path class="st2" d="M361.8,114.6c-0.1,0.9-0.9,1.6-1.8,1.5c-0.2,0-0.3-0.1-0.5-0.1c-2.1-1,0-4.3,1.8-2.6
					C361.7,113.7,361.9,114.2,361.8,114.6z"/>
				<path class="st2" d="M349.5,126.6c1.4-0.1,2.8-0.7,3.9-1.6c0.2-0.2,0.2-0.4,0-0.6c0,0,0,0,0,0c-0.2-0.2-0.4-0.2-0.6,0
					c0,0-2.7,2.3-4.7,1c-2.4-1.4,1.2-8.4,2.8-11c0.1-0.2,0-0.4-0.2-0.5c-0.2-0.1-0.4,0-0.5,0.1c-0.6,1-6,10-2.5,12.1
					C348.2,126.5,348.8,126.6,349.5,126.6z"/>
				<path class="st2" d="M348,132.6c-0.3,0.2-0.1,0.7,0,0.9c0.3,0.6,0.7,1.2,1.3,1.6c0.9,0.5,1.9,0.8,2.9,0.7c0.6,0,1.2-0.1,1.7-0.3
					c0.7-0.3,1.2-0.9,1.4-1.6c0.1-0.4,0.2-0.8,0.2-1.2c0-0.2-0.2-0.4-0.4-0.4c-2.2,0-4.4,0.1-6.5,0.1c-0.1,0-0.2,0-0.4,0L348,132.6z
					"/>
				<path class="st2" d="M375.9,123.6c-0.3-1.8-0.7-3.5-1.1-5.3v0c-0.2-0.8-0.4-1.7-0.5-2.5c-0.4-2.1-1.2-4.9-0.8-7
					c-0.5,3-0.5,6.1-1,9.1c-0.3,3-1.5,6-3.3,8.4c-5.9,7.4-14.7,0.4-22.2,1.8c-0.9,0.1-1.8,0.6-2.3,1.3l-0.1,0.2
					c-0.1,0.2-0.1,0.4-0.1,0.7v0c0,0.2,0,0.5,0,0.7c0.4,6.4,2.9,12.5,7,17.4c0.5,0.7,1.2,1.2,1.9,1.6c1.5,0.7,3.2,0,4.8-0.4
					c0.9-0.3,1.7-0.5,2.6-0.7c1-0.2,2-0.5,2.9-0.8c0,0,0,0,0,0c0.6-0.2,1.2-0.4,1.7-0.6l0,0c0.3-0.1,0.6-0.2,0.8-0.3h0
					c0.7-0.3,1.3-0.6,2-1c0,0,0,0,0,0s0,0,0,0c0,0,0,0,0.1,0c0,0,0,0,0,0c0,0,0,0,0,0c0,0,0,0,0.1,0c2.7-2,4.7-4.7,5.8-7.8
					c0.7-1.9,1.2-3.9,1.5-5.8v0c0.1-0.7,0.2-1.4,0.2-2.2C376.3,128.1,376.2,125.8,375.9,123.6z M346.9,131.9
					c0.4-0.5,1.5-0.6,2.1-0.6l4-0.2c1.1-0.1,2.2,0,3.3,0.4c0.9,0.6,1.6,1.5,1.9,2.6c0.4,1,0.9,2.4,0.4,3.4c-0.2,0.4-0.6,0.7-1,0.9
					c-2.2,1.2-5.8,1.5-7.7-0.5c-0.5-0.6-1-1.3-1.4-2.1c-0.3-0.6-0.7-1.2-1-1.8c-0.2-0.4-0.8-1.1-0.7-1.6
					C346.7,132.2,346.8,132,346.9,131.9z"/>
				<path class="st5" d="M400.5,482.6l-7,10c0,0-1-1-4,1c-1.7,1.1-2.9,3-3,5c-4.1,4-8.4,7.7-13,11c-7,5-17,1-20,0
					c-2.8-0.9-1.3-5.3-1-8.3c0-0.2,0-0.5,0-0.7c0-3,13-20,14-27c1-6.7-2.6-22.4-3-23.9v-0.1l0.4,0.1c4.1,1.2,8.4,1.5,12.6,0.9
					l0.6-0.1c0.6-0.1,1.1-0.2,1.6-0.3c6.2-1.5,7.9-5.6,7.9-5.6s3,15,5,17S400.5,482.6,400.5,482.6z"/>
				<path class="st32" d="M383.5,482.6c-1,7-15,15-20,20c-3.5,3.5-8.3,0.7-11-1.3c0-0.2,0-0.5,0-0.7c0-3,13-20,14-27
					c1-6.7-2.6-22.4-3-23.9h0.4c4.1,1.2,8.4,1.5,12.6,0.9l0.6-0.1c0.6-0.1,1.1-0.2,1.6-0.3C379.5,454.1,384.4,476.2,383.5,482.6z"/>
				<path class="st5" d="M437.5,511.6c0,0-6,1-8,0l-4-2c-0.6,1.1-1.7,1.9-3,2c-2,0-28,2-30,0l-2-2c0,0,0-5.2,1.3-7.9
					c0.2-0.4,0.4-0.8,0.7-1.1c2-2,10-7,13-12s5-29,5-29s13.2-0.8,18.6,1.3c0.5,0.2,1,0.4,1.4,0.7c4,3,4,5,4,5v18c0,0,2,10,3,17
					S437.5,511.6,437.5,511.6z"/>
				<path class="st32" d="M427.5,489.6c2,14-10,10-17,13c-6.4,2.7-16.9-0.3-18.7-0.9c0.2-0.4,0.4-0.8,0.7-1.1c2-2,10-7,13-12
					s5-29,5-29s13.2-0.8,18.6,1.3C428.2,466.5,426.2,480.9,427.5,489.6z"/>
				<path class="st33" d="M277.4,270.9l5.8,5.3l-5.8-5.2L277.4,270.9z"/>
				<path class="st34" d="M285.5,278.4c0.1,0.4-0.1,0.7-0.4,0.9c-0.3,0.2-0.7,0.1-1-0.1l-6-5.4l0.5,3.8c0,0.3-0.1,0.5-0.2,0.7
					l-6.4,6.2c4.2,3.7,10.3,4.4,15.2,1.6l-3.1-13.9L285.5,278.4z"/>
				<path class="st35" d="M267.6,274.6c0,3.2,1.1,6.2,3.2,8.6l6-5.9l-0.8-5.6c-0.1-0.5,0.3-0.9,0.7-1c0.2,0,0.4,0,0.6,0.2l-6.1-5.5
					C268.9,267.9,267.6,271.2,267.6,274.6z"/>
				<path class="st36" d="M296.6,259.9c0-0.3-0.1-0.5-0.3-0.7l-4.2,4c0.1,0.1,0.2,0.3,0.2,0.5v5c0,0.5-0.4,0.9-0.9,0.9
					s-0.9-0.4-0.9-0.9v-3l-6.5,6.6l3.1,13.9c1-0.6,2-1.3,2.9-2.2C297.3,276.7,296.6,260.5,296.6,259.9z"/>
				<path class="st37" d="M295.5,258.8c-0.7,0-16.8-0.7-24.1,6.5l-0.1,0.1l6.1,5.5l0.1,0l5.8,5.2l-0.9-4c-0.1-0.3,0-0.6,0.2-0.8
					l6.7-6.8H286c-0.5,0-0.9-0.4-0.9-0.9s0.4-0.9,0.9-0.9h5.5c0.3,0,0.5,0.1,0.7,0.3l4.2-4C296.1,259,295.8,258.8,295.5,258.8z"/>
			</g>
			<g id="stars">
				<polygon class="st9" points="314.5,0 316,6.3 320.4,7.5 316,8.7 314.5,15 312.9,8.7 308.6,7.5 312.9,6.3 				"/>
				<polygon class="st9" points="428,85.8 430.6,96.6 438,98.6 430.6,100.6 428,111.3 425.4,100.6 418,98.6 425.4,96.6 				"/>
				<polygon class="st9" points="209.8,360 210.8,363.4 213.9,364 210.8,364.6 209.8,368 208.7,364.6 205.7,364 208.7,363.4 				"/>
				<polygon class="st9" points="79.4,21 81.7,30.7 88.4,32.5 81.7,34.3 79.4,44 77,34.3 70.3,32.5 77,30.7 				"/>
				<polygon class="st9" points="9.8,252 12.4,262.5 19.6,264.5 12.4,266.5 9.8,277 7.2,266.5 0,264.5 7.2,262.5 				"/>
			</g>
		</g>
	</g>
</g>
</svg>
