<svg xmlns="http://www.w3.org/2000/svg" viewBox="0 0 400 331.5"><title>learn-together</title><g id="Layer_2" data-name="Layer 2"><g id="Layer_3" data-name="Layer 3"><g id="learn_together" data-name="learn together"><rect y="20.5" width="400" height="300" rx="8" fill="#20bc55"/><polygon points="380 0.5 380 300.5 20 300.5 20 0.5 188 0.5 188 20.5 212 20.5 212 0.5 380 0.5" fill="#efefef"/><path d="M188,20.5h24v299a8.71,8.71,0,0,1-.05,1,12,12,0,0,1-23.9,0,8.71,8.71,0,0,1-.05-1Z" fill="#04773b"/><rect x="20" width="168" height="150" fill="#15a24a"/><rect x="212" y="151" width="168" height="150" fill="#15a24a"/><rect x="224" y="73" width="144" height="8" rx="4" fill="#bfc1c1"/><rect x="224" y="98" width="104" height="8" rx="4" fill="#bfc1c1"/><rect x="334" y="98" width="34" height="8" rx="4" fill="#bfc1c1"/><rect x="224" y="123" width="54" height="8" rx="4" fill="#bfc1c1"/><rect x="284" y="123" width="84" height="8" rx="4" fill="#bfc1c1"/><rect x="32" y="226" width="144" height="8" rx="4" fill="#bfc1c1"/><rect x="32" y="251" width="104" height="8" rx="4" fill="#bfc1c1"/><rect x="142" y="251" width="34" height="8" rx="4" fill="#bfc1c1"/><rect x="32" y="276" width="54" height="8" rx="4" fill="#bfc1c1"/><rect x="92" y="276" width="84" height="8" rx="4" fill="#bfc1c1"/><ellipse cx="296" cy="203.54" rx="21.94" ry="22.54" fill="#e1e1e1"/><path d="M296,233.72h0a34.68,34.68,0,0,1,34.68,34.68v28.44a4.16,4.16,0,0,1-4.16,4.16h-61a4.16,4.16,0,0,1-4.16-4.16V268.4A34.68,34.68,0,0,1,296,233.72Z" fill="#d7cbac"/><ellipse cx="104" cy="52.54" rx="21.94" ry="22.54" fill="#d7cbac"/><path d="M104,82.72h0a34.68,34.68,0,0,1,34.68,34.68v28.44a4.16,4.16,0,0,1-4.16,4.16h-61a4.16,4.16,0,0,1-4.16-4.16V117.4A34.68,34.68,0,0,1,104,82.72Z" fill="#098343"/><rect x="224" y="16" width="144" height="40" rx="4" fill="#bfc1c1"/><rect x="32" y="167" width="144" height="40" rx="4" fill="#bfc1c1"/></g></g></g></svg>