<svg xmlns="http://www.w3.org/2000/svg" viewBox="0 0 400 300"><title>market</title><g id="Layer_2" data-name="Layer 2"><g id="Layer_5" data-name="Layer 5"><g id="market"><rect width="400" height="300" fill="#e5e5e5" opacity="0.2"/><g id="market-2" data-name="market"><path d="M28,190.71H208a0,0,0,0,1,0,0V270a16,16,0,0,1-16,16H44a16,16,0,0,1-16-16V190.71A0,0,0,0,1,28,190.71Z" fill="#a84036"/><rect x="18" y="190.71" width="200" height="15.88" rx="7.94" fill="#9a3b32"/><rect x="34" y="82.51" width="12" height="108.2" fill="#deceac"/><rect x="191" y="82.51" width="12" height="108.2" fill="#deceac"/><path d="M178,71.59h40a0,0,0,0,1,0,0V83.35a20,20,0,0,1-20,20h0a20,20,0,0,1-20-20V71.59A0,0,0,0,1,178,71.59Z" fill="#007933"/><path d="M138,71.59h40a0,0,0,0,1,0,0V83.35a20,20,0,0,1-20,20h0a20,20,0,0,1-20-20V71.59A0,0,0,0,1,138,71.59Z" fill="#e5e5e5" opacity="0.8"/><path d="M98,71.59h40a0,0,0,0,1,0,0V83.35a20,20,0,0,1-20,20h0a20,20,0,0,1-20-20V71.59A0,0,0,0,1,98,71.59Z" fill="#007933"/><path d="M58,71.59H98a0,0,0,0,1,0,0V83.35a20,20,0,0,1-20,20h0a20,20,0,0,1-20-20V71.59A0,0,0,0,1,58,71.59Z" fill="#e5e5e5" opacity="0.8"/><path d="M18,71.59H58a0,0,0,0,1,0,0V83.35a20,20,0,0,1-20,20h0a20,20,0,0,1-20-20V71.59A0,0,0,0,1,18,71.59Z" fill="#007933"/><polygon points="218 71.59 178 71.59 174 16 198 16 218 71.59" fill="#008a3a"/><polygon points="178 71.59 138 71.59 134 16 174 16 178 71.59" fill="#e5e5e5" opacity="0.4"/><polygon points="138 71.59 98 71.59 101 16 134 16 138 71.59" fill="#008a3a"/><polygon points="98 71.59 58 71.59 62 16 101 16 98 71.59" fill="#e5e5e5" opacity="0.4"/><polygon points="62 16 58 71.59 18 71.59 37 16 62 16" fill="#008a3a"/><path d="M66,172.84h52a6,6,0,0,1,6,6v11.87a0,0,0,0,1,0,0H60a0,0,0,0,1,0,0V178.84A6,6,0,0,1,66,172.84Z" fill="#3d3d3d"/><rect x="72" y="143.06" width="16" height="29.78" fill="#222"/><rect x="60" y="127.18" width="40" height="15.88" rx="4" fill="#f9bf2e"/></g><g id="coin_stack" data-name="coin stack"><rect x="228" y="270" width="72" height="16" rx="8" fill="#f8c23a"/><rect x="228" y="254" width="72" height="16" rx="8" fill="#fad475"/><rect x="228" y="238" width="72" height="16" rx="8" fill="#f8c23a"/><rect x="228" y="222" width="72" height="16" rx="8" fill="#fad475"/></g><g id="coin_stack-2" data-name="coin stack"><rect x="312" y="270" width="72" height="16" rx="8" fill="#f8c23a"/><rect x="312" y="254" width="72" height="16" rx="8" fill="#fad475"/><rect x="312" y="238" width="72" height="16" rx="8" fill="#f8c23a"/><rect x="312" y="222" width="72" height="16" rx="8" fill="#fad475"/><rect x="312" y="206" width="72" height="16" rx="8" fill="#f8c23a"/><rect x="312" y="190" width="72" height="16" rx="8" fill="#fad475"/><rect x="312" y="174" width="72" height="16" rx="8" fill="#f8c23a"/><rect x="312" y="158" width="72" height="16" rx="8" fill="#fad475"/></g><g id="coin"><circle cx="264.15" cy="186.03" r="36" fill="#f8c23a"/><path d="M266.24,206h-3.89a1.08,1.08,0,0,1-.77-.3,1,1,0,0,1-.32-.73v-3.24a19.83,19.83,0,0,1-5.44-1.41,13.18,13.18,0,0,1-4.08-2.6,2.6,2.6,0,0,1-.92-1.69,1.7,1.7,0,0,1,.73-1.51l3.56-2.71a1.73,1.73,0,0,1,1.28-.4,2.59,2.59,0,0,1,1.38.78,9.85,9.85,0,0,0,3.18,2,10.06,10.06,0,0,0,3.71.69,5.32,5.32,0,0,0,2.83-.66,2,2,0,0,0,1.06-1.71,1.78,1.78,0,0,0-.75-1.47,7.69,7.69,0,0,0-2.67-1l-5.7-1.32a11.09,11.09,0,0,1-5.93-3.2,8.1,8.1,0,0,1-2.09-5.68,8.29,8.29,0,0,1,2.7-6.2,12.84,12.84,0,0,1,7.15-3.28V167a.94.94,0,0,1,.32-.7,1.12,1.12,0,0,1,.77-.29h3.89a1.11,1.11,0,0,1,.76.29.93.93,0,0,1,.31.7v3.34a17.49,17.49,0,0,1,4.38,1.16,12.89,12.89,0,0,1,3.46,2.06,2.56,2.56,0,0,1,1,1.53,1.58,1.58,0,0,1-.54,1.37l-3,3a1.57,1.57,0,0,1-1.24.46,3,3,0,0,1-1.52-.66,10.84,10.84,0,0,0-2.85-1.51,9.24,9.24,0,0,0-3.07-.54,5.46,5.46,0,0,0-2.68.58,1.74,1.74,0,0,0-1,1.55,1.5,1.5,0,0,0,.61,1.22,4.89,4.89,0,0,0,1.87.82l5.63,1.4a14.14,14.14,0,0,1,6.88,3.39,7.86,7.86,0,0,1,2.26,5.78,8.73,8.73,0,0,1-2.76,6.4,12.89,12.89,0,0,1-7.41,3.42V205a1,1,0,0,1-.31.73A1.07,1.07,0,0,1,266.24,206Z" fill="#d99d08"/></g><g id="coin-2" data-name="coin"><circle cx="348" cy="122.02" r="36" fill="#f8c23a"/><path d="M350.09,142h-3.88a1.1,1.1,0,0,1-.78-.31,1,1,0,0,1-.32-.73v-3.24a20.19,20.19,0,0,1-5.44-1.4,13.37,13.37,0,0,1-4.07-2.6,2.59,2.59,0,0,1-.93-1.69,1.69,1.69,0,0,1,.74-1.51l3.55-2.72a1.77,1.77,0,0,1,1.28-.4,2.67,2.67,0,0,1,1.39.79,9.68,9.68,0,0,0,3.17,2,10.07,10.07,0,0,0,3.72.69,5.28,5.28,0,0,0,2.82-.66,1.93,1.93,0,0,0,1.06-1.71,1.76,1.76,0,0,0-.75-1.46,7.47,7.47,0,0,0-2.67-1l-5.69-1.31a11.15,11.15,0,0,1-5.94-3.2,8.6,8.6,0,0,1,.61-11.88,12.84,12.84,0,0,1,7.15-3.28V103a.92.92,0,0,1,.32-.7,1.08,1.08,0,0,1,.78-.29h3.88a1,1,0,0,1,.76.29.91.91,0,0,1,.31.7v3.34a17.37,17.37,0,0,1,4.38,1.15,12.66,12.66,0,0,1,3.46,2.07,2.53,2.53,0,0,1,1,1.52,1.57,1.57,0,0,1-.54,1.37l-3,3a1.55,1.55,0,0,1-1.24.45,2.8,2.8,0,0,1-1.51-.66,11,11,0,0,0-2.86-1.5,9.2,9.2,0,0,0-3.07-.54,5.38,5.38,0,0,0-2.68.58,1.73,1.73,0,0,0-1,1.54,1.54,1.54,0,0,0,.61,1.23,5.05,5.05,0,0,0,1.87.82l5.63,1.4a14.09,14.09,0,0,1,6.88,3.39,7.83,7.83,0,0,1,2.26,5.78,8.71,8.71,0,0,1-2.76,6.39,12.89,12.89,0,0,1-7.41,3.42V141a1,1,0,0,1-.31.73A1.07,1.07,0,0,1,350.09,142Z" fill="#d99d08"/></g><g id="pie"><path d="M264.15,16V80a32,32,0,1,1,0-64Z" fill="#008a3a"/><path d="M296.15,48a32,32,0,0,1-32,32V16A32,32,0,0,1,296.15,48Z" fill="#007933"/><path d="M292.44,63a31.94,31.94,0,0,1-28.29,17V47.47Z" fill="#00c244"/></g><rect x="232.65" y="90" width="8" height="8" rx="1" fill="#008a3a"/><rect x="232.65" y="108" width="8" height="8" rx="1" fill="#007933"/><rect x="232.65" y="126" width="8" height="8" rx="1" fill="#00c244"/><rect x="243.65" y="92" width="52" height="4" rx="0.5" fill="#666"/><rect x="243.65" y="110" width="48" height="4" rx="0.5" fill="#666"/><rect x="243.65" y="128" width="24" height="4" rx="0.5" fill="#666"/><rect x="312" y="16" width="72" height="58" rx="8" fill="#e5e5e5" opacity="0.5"/><g id="Layer_3" data-name="Layer 3"><path d="M368,26.58v9.17a1.58,1.58,0,1,1-3.15,0h0V30.13l-12,12.22,2.55,11.38a1.55,1.55,0,0,1-.73,1.7,1.61,1.61,0,0,1-1.86-.18l-11.16-10,1,6.93a1.55,1.55,0,0,1-.44,1.32L330.35,65A5.63,5.63,0,0,1,328,62.84l11.36-11.05-1.49-10.45a1.56,1.56,0,0,1,1.3-1.78,1.58,1.58,0,0,1,1.21.3l.1.08,10.73,9.64-1.67-7.39a1.55,1.55,0,0,1,.41-1.43l12.43-12.62h-6.15a1.57,1.57,0,1,1,0-3.14h10.18a1.57,1.57,0,0,1,1.24.59A1.5,1.5,0,0,1,368,26.58Z" fill="#39b556"/></g></g></g></g></svg>