<svg xmlns="http://www.w3.org/2000/svg" viewBox="0 0 400 300"><title>more</title><g id="Layer_2" data-name="Layer 2"><g id="Layer_5" data-name="Layer 5"><g id="and_more" data-name="and more"><rect width="400" height="300" fill="#e5e5e5" opacity="0.2"/><path d="M29.54,18.67H90a11.65,11.65,0,0,1,11.79,11.52v57A11.66,11.66,0,0,1,90,98.67H29.54A11.66,11.66,0,0,1,17.75,87.15v-57A11.65,11.65,0,0,1,29.54,18.67Z" fill="#e5e5e5" opacity="0.5"/><path d="M123,18.67h60.42a11.65,11.65,0,0,1,11.79,11.52v57a11.66,11.66,0,0,1-11.79,11.52H123a11.66,11.66,0,0,1-11.79-11.52v-57A11.65,11.65,0,0,1,123,18.67Z" fill="#deceac" opacity="0.4"/><path d="M216.54,18.67H277a11.65,11.65,0,0,1,11.79,11.52v57A11.66,11.66,0,0,1,277,98.67H216.54a11.66,11.66,0,0,1-11.79-11.52v-57A11.65,11.65,0,0,1,216.54,18.67Z" fill="#e5e5e5" opacity="0.5"/><path d="M310,18.67h60.42a11.65,11.65,0,0,1,11.79,11.52v57a11.66,11.66,0,0,1-11.79,11.52H310a11.66,11.66,0,0,1-11.79-11.52v-57A11.65,11.65,0,0,1,310,18.67Z" fill="#deceac" opacity="0.4"/><path d="M29.54,110H90a11.66,11.66,0,0,1,11.79,11.52v57A11.66,11.66,0,0,1,90,190H29.54a11.66,11.66,0,0,1-11.79-11.52v-57A11.66,11.66,0,0,1,29.54,110Z" fill="#deceac" opacity="0.4"/><path d="M123,110h60.42a11.66,11.66,0,0,1,11.79,11.52v57A11.66,11.66,0,0,1,183.46,190H123a11.66,11.66,0,0,1-11.79-11.52v-57A11.66,11.66,0,0,1,123,110Z" fill="#e5e5e5" opacity="0.5"/><path d="M216.54,110H277a11.66,11.66,0,0,1,11.79,11.52v57A11.66,11.66,0,0,1,277,190H216.54a11.66,11.66,0,0,1-11.79-11.52v-57A11.66,11.66,0,0,1,216.54,110Z" fill="#deceac" opacity="0.4"/><path d="M310,110h60.42a11.66,11.66,0,0,1,11.79,11.52v57A11.66,11.66,0,0,1,370.46,190H310a11.66,11.66,0,0,1-11.79-11.52v-57A11.66,11.66,0,0,1,310,110Z" fill="#e5e5e5" opacity="0.5"/><path d="M29.54,201.33H90a11.66,11.66,0,0,1,11.79,11.52v57A11.65,11.65,0,0,1,90,281.33H29.54a11.65,11.65,0,0,1-11.79-11.52v-57A11.66,11.66,0,0,1,29.54,201.33Z" fill="#e5e5e5" opacity="0.4"/><rect x="120.66" y="207.9" width="65.17" height="66.87" rx="25.03" transform="translate(-125.76 179.05) rotate(-45)" fill="#deceac" opacity="0.4"/><path d="M237.7,207.33h18.1c14.89,0,26.95,11.69,26.95,26.12v15.77c0,14.42-12.06,26.11-26.95,26.11H237.7c-14.89,0-26.95-11.69-26.95-26.11V233.45C210.75,219,222.81,207.33,237.7,207.33Z" fill="#e5e5e5" opacity="0.8"/><path d="M376.25,241.33a6.75,6.75,0,0,1-2,4.81,6.86,6.86,0,0,1-4.85,2H347.11v20.4a6.86,6.86,0,0,1-13.72,0v-20.4H311.11a6.83,6.83,0,0,1-6.86-6.8,6.75,6.75,0,0,1,2-4.81,6.9,6.9,0,0,1,4.85-2h22.28v-20.4a6.83,6.83,0,0,1,6.86-6.8,6.92,6.92,0,0,1,4.85,2,6.75,6.75,0,0,1,2,4.81v20.4h22.28A6.83,6.83,0,0,1,376.25,241.33Z" fill="#00c244"/></g></g></g></svg>