<svg xmlns="http://www.w3.org/2000/svg" viewBox="0 0 400 300"><title>people</title><g id="Layer_2" data-name="Layer 2"><g id="Layer_5" data-name="Layer 5"><g id="people"><rect width="400" height="300" fill="#e5e5e5" opacity="0.2"/><g id="person_2" data-name="person 2"><path id="back_hair" data-name="back hair" d="M199,129.06c-.34,3.95-1.83,7.88-1.15,11.78.26,1.49.82,3.09.25,4.46a.42.42,0,0,0-.06.14c-.61,1.28-2.05,1.91-3.4,2.34a34,34,0,0,1-13,1.54,39.21,39.21,0,0,0-7.25-.36c-4.34.48-8.26,3.21-12.64,3.24-3.41,0-6.59-1.62-9.93-2.37a19.51,19.51,0,0,0-11.14.79c-2.25.86-4.83,2.12-6.89.88-.87-.52-1.46-1.43-2.32-2a23,23,0,0,0-3.06-1.18,9.4,9.4,0,0,1-3.61-3.73c-3.27-5-6.38-10.94-4.81-16.7,1.63-6,7.58-9.44,12.08-13.68,2.11-2,4.07-4.46,4.12-7.35,0-2-.83-3.82-1.45-5.7a22.49,22.49,0,0,1-1.08-5.76A22.08,22.08,0,0,1,150,72.81h.08c6.58-1.74,13.65-.8,20.07,1.49,4.42,1.57,8.76,3.89,11.65,7.6,4.1,5.25,4.69,12.5,3.63,19.07-.37,2.35-.86,5,.59,6.89a10,10,0,0,0,3.06,2.22A20.54,20.54,0,0,1,199,129.06Z" fill="#0c0909"/><g id="neck_n_shadow" data-name="neck n shadow"><path d="M186.62,149.79a1.59,1.59,0,0,1-.27.86,4.15,4.15,0,0,1-1.43,1.19,40.06,40.06,0,0,1-18.5,5.6,31.53,31.53,0,0,1-18.55-5,6.7,6.7,0,0,1-2-1.8c-1.78-2.74,1.56-5.44,3.74-6.55a34.65,34.65,0,0,1,4.44-1.74c1.19-.41,2.58-.8,3.36-1.89a4.37,4.37,0,0,0,.68-2.41c.06-1.28.1-2.58.13-3.87.13-4.28.17-8.56.28-12.84,4.75,0,9.5,0,14.25.09v8.07c0,2-.18,4.06,0,6.07a14,14,0,0,0,.23,1.62,7.65,7.65,0,0,0,3.91,5c3.18,2,7,3.25,9.14,6.27A2.32,2.32,0,0,1,186.62,149.79Z" fill="#b44f28"/><path d="M172.77,135.56a18.23,18.23,0,0,1-1.8.29,26.34,26.34,0,0,1-4.78.08,29.25,29.25,0,0,1-7.95-1.76c.13-4.28.17-8.56.28-12.84,4.75,0,9.5,0,14.25.09v8.07C172.77,131.46,172.59,133.55,172.77,135.56Z" fill="#974221"/></g><path d="M171,131.33a25.46,25.46,0,0,1-4.78.07,30.35,30.35,0,0,1-22.49-13.06C134.35,104.51,138,84,154.23,77.48a26.08,26.08,0,0,1,20.88.74,8,8,0,0,1,3.4,2.68c1,1.52,1,3.42,1.2,5.2.92,7,5.63,12.94,7.22,19.81a23,23,0,0,1-1.6,14.92,18.54,18.54,0,0,1-7.44,8.34A18.06,18.06,0,0,1,171,131.33Z" fill="#b44f28"/><path d="M143.7,113.37a4.24,4.24,0,0,1-.23-.59c-.72-2.27,1.09-4.88.09-7a4.18,4.18,0,0,0-4-2.06,5.6,5.6,0,0,0-3.76,1.53c-3.55,3.51,0,10.25,3.26,12.61a5.43,5.43,0,0,0,3.48,1.23,2.73,2.73,0,0,0,2.59-2.29C145.23,115.52,144.26,114.51,143.7,113.37Z" fill="#b44f28"/><path id="front_hair" data-name="front hair" d="M180.45,81.57c0,2.72-1.71,7.48-9,9.05a11.18,11.18,0,0,1-10-3.62c-.78,7.71-4.52,13.58-8.14,16.29-8.09,6.07-12.8,1.79-13.57.91-2-2.22-4.42-5.34-5.43-8.15-.58-10.24,6.22-17.74,16.62-20.52l.08,0a36.75,36.75,0,0,1,16.92.81C172.5,77.53,180.13,81.15,180.45,81.57Z" fill="#974221"/><path id="front_hair-2" data-name="front hair" d="M180.39,81.5a8,8,0,0,1-1,3c-1.79,3.07-5.46,4.6-9,5-3.32.36-7.05-.31-9.07-3-.36,5.72-5.31,13.14-8.93,15.86-9.29,7-13.44,1.55-14.22.68a23.68,23.68,0,0,1-4.54-7.64A22.08,22.08,0,0,1,150,72.81h.08a36.69,36.69,0,0,1,16.91.8c4.59,1.21,9.16,3.17,12.36,6.67C179.73,80.67,180.08,81.08,180.39,81.5Z" fill="#0c0909"/><g id="face"><path d="M150,100.6a.38.38,0,0,1-.25-.09.45.45,0,0,1-.1-.63c.09-.12,2.31-3.08,7.5-3.87a10,10,0,0,1,8.57,2.78.45.45,0,0,1-.66.61,9.18,9.18,0,0,0-7.77-2.5,10.91,10.91,0,0,0-6.91,3.52A.48.48,0,0,1,150,100.6Z" fill="#3e1714"/><path d="M186.62,98.63a.46.46,0,0,1-.49-.21,7.49,7.49,0,0,0-6.87-3.18,12.67,12.67,0,0,0-7.61,2.82.44.44,0,0,1-.63,0,.45.45,0,0,1,0-.64,13.34,13.34,0,0,1,8.18-3.08,8.42,8.42,0,0,1,7.7,3.63.47.47,0,0,1-.16.62Z" fill="#3e1714"/><path d="M159.46,103.68a2.09,2.09,0,0,1-3.28.89c-2.31-1.95,1.5-5.39,3.13-2.67A2,2,0,0,1,159.46,103.68Z" fill="#3e1714"/><path d="M180.2,101.84A2.1,2.1,0,0,1,177,103c-2.48-1.74,1-5.51,2.88-2.94A2,2,0,0,1,180.2,101.84Z" fill="#3e1714"/><path d="M169.33,114.69a8.59,8.59,0,0,1-2.75-.56.45.45,0,1,1,.34-.84s3.05,1.2,4.88-.15c2.3-1.71-1-7.69-2.51-9.85a.45.45,0,0,1,.12-.63.46.46,0,0,1,.63.11c.23.35,5.76,8.52,2.3,11.09A4.72,4.72,0,0,1,169.33,114.69Z" fill="#3e1714"/><path d="M176.08,119.56a1,1,0,0,1,.59,1.35,6.29,6.29,0,0,1-3.17,3.1,4.81,4.81,0,0,1-4.08-.05c-1.7-.87-3.41-4-.45-4.24C171.12,119.53,173.87,118.91,176.08,119.56Z" fill="#3e1714"/></g><path d="M143,116.22a2.78,2.78,0,0,0-.46-1.07,18.57,18.57,0,0,1-2.72-7.3,1.17,1.17,0,0,0-.45-.94,1.06,1.06,0,0,0-.5-.08,4.07,4.07,0,0,0-1.3.12c-1.39.44-1.16,2-.76,3.06a17.94,17.94,0,0,0,2.76,5,8.66,8.66,0,0,0,1.71,1.71c.36.25,1,.53,1.4.24A.73.73,0,0,0,143,116.22Z" fill="#974221"/><path id="earring" d="M144.17,117.27a1.78,1.78,0,0,1,1.42.15c1.41,1,1.46,4.73,1.52,6.27,0,1,0,1.88-1.22,1.68A10.5,10.5,0,0,1,142,123.9a4.56,4.56,0,0,1-1.68-1.64c-1.21-2.31,1.68-4.38,3.59-4.93Z" fill="#eb834b"/><path d="M219.14,281.52c-.25,1.76-.66,3.76-2.18,4.68a6.13,6.13,0,0,1-3.18.6L166,287l-47.81-.2a6.13,6.13,0,0,1-3.18-.6c-1.53-.92-1.93-2.92-2.18-4.68-1.46-10.33-2.32-22,4.31-30,3.38-4.1,8.44-6.81,10.48-11.87a15.38,15.38,0,0,0,.51-1.49c1.33-4.61.61-10-.45-14.48h0c-4.29-18.32-11.64-36.73-7.14-55.82,1.51-6.45,4.49-12.73,9.42-17.14,9.9-8.89,26.85-7.69,36,1.92,9.19-9.61,26.13-10.81,36-1.92,4.93,4.41,7.9,10.69,9.42,17.14,4.5,19.09-2.85,37.5-7.14,55.82h0c-1.06,4.51-1.78,9.87-.45,14.48a15.38,15.38,0,0,0,.51,1.49c2,5.06,7.1,7.77,10.48,11.87C221.46,259.53,220.6,271.19,219.14,281.52Z" fill="#f8c23a"/><path d="M203.84,238.13H128.1c1.33-4.61.61-10-.45-14.48h76.64C203.23,228.16,202.51,233.52,203.84,238.13Z" fill="#3d3d3d"/><path d="M171.4,235.87H160.54a3.17,3.17,0,0,1-3.17-3.17v-3.62a3.17,3.17,0,0,1,3.17-3.16H171.4a3.17,3.17,0,0,1,3.17,3.16v3.62A3.17,3.17,0,0,1,171.4,235.87Zm-10.86-7.24a.45.45,0,0,0-.45.45v3.62a.45.45,0,0,0,.45.45H171.4a.45.45,0,0,0,.45-.45v-3.62a.45.45,0,0,0-.45-.45Z" fill="#e5e5e5" opacity="0.5"/><path d="M192.81,147.57c2.7-3.32,7.94-4.12,11.42-4.46a46.38,46.38,0,0,1,11.23.24c3.13.46,6.33,1.28,8.78,3.27,2.81,2.28,4.27,5.79,5.46,9.19,4,11.55,6.17,23.68,7.36,35.85,1.1,11.28,1.21,23.41-4.8,33-4.22,6.74-11.1,11.5-18.5,14.41a82.61,82.61,0,0,1-20.11,4.66,3.3,3.3,0,0,1-3.61-2.38c-1.15-4.28-3.78-8.4-2.63-12.61a13.63,13.63,0,0,1,3.53-5.43,70.16,70.16,0,0,1,24.68-16.91L193,159.19c-1.71-3.56-3-7.47-.63-11.05A6,6,0,0,1,192.81,147.57Z" fill="#f8c23a"/><path d="M137.1,149.41c-2.85-3.19-8.12-3.75-11.61-3.93a46.31,46.31,0,0,0-11.21.75c-3.1.6-6.27,1.57-8.63,3.67-2.69,2.41-4,6-5,9.43-3.5,11.72-5.07,23.94-5.71,36.15-.58,11.31-.14,23.44,6.31,32.75,4.52,6.54,11.61,11,19.13,13.56a83.48,83.48,0,0,0,20.3,3.73,3.29,3.29,0,0,0,3.5-2.54c.95-4.33,3.39-8.57,2-12.72a13.57,13.57,0,0,0-3.77-5.26A70.11,70.11,0,0,0,117,209.23L137.42,161c1.55-3.64,2.69-7.6.13-11.07C137.41,149.77,137.26,149.59,137.1,149.41Z" fill="#f8c23a"/></g><g id="person_1" data-name="person 1"><path id="back_hair-2" data-name="back hair" d="M61.65,107.55c-8.78,16.26,9,25.13,4.79,35.76-2.71,6.82,30.75,1.77,36.18-21.75,5.62-24.33.45-10,4.53-22.13C110.77,88.71,74.53,89.6,61.65,107.55Z" fill="#3e1714"/><path d="M143.94,287l-111.77.2q1.74-37.37,6.06-74.56,2.12-18.27,4.85-36.47c1.58-10.55,6-14.92,16.75-16.82a162.71,162.71,0,0,1,50.51-1.07c5.89.8,12.09,2.09,16.41,6.17,5.12,4.83,6.39,12.37,7.31,19.35C138.58,218,141.26,252.5,143.94,287Z" fill="#008a3a"/><path d="M143.94,287q-55.87.12-111.77.2.6-12.86,1.5-25.73c.19-2.72,3.19-5.24,8.08-7.45.27-.12.54-.25.83-.36,19.8-8.43,67.38-11.81,88.82-2.08l.78.37c5.4,2.6,9,6.11,9.84,10.65C143.51,270.58,143.31,278.82,143.94,287Z" fill="#222"/><path d="M32.82,275.7c-.12.57.41,1.23.61,2.06.39,1.6,0,3.33,0,4.94a20.22,20.22,0,0,0,.56,5.37,10.8,10.8,0,0,0,3,5.31,10.63,10.63,0,0,0,4.83,2.26c1.29.31,3,.75,4.11-.29,1.4-1.36.47-4.25-.09-5.88a17.05,17.05,0,0,1-1.15-6.92c1,.59,1.58,1.32,2.48,1.79a2,2,0,0,0,.81.26,1.47,1.47,0,0,0,1.3-1.58,3.61,3.61,0,0,0-.94-2.08c-2.25-2.81-5.21-4.16-7.7-6.75-.46-.48-1.28-1.38-1.29-2.05-2,.83-3.93,1.76-5.83,2.78C33.09,275.17,32.88,275.42,32.82,275.7Z" fill="#b44f28"/><path d="M140.7,275.7c.13.57-.4,1.23-.61,2.06-.39,1.6,0,3.33,0,4.94a20.23,20.23,0,0,1-.57,5.37,9.44,9.44,0,0,1-7.85,7.57c-1.29.31-3,.75-4.11-.29-1.41-1.36-.48-4.25.09-5.88a17.05,17.05,0,0,0,1.15-6.92c-1,.59-1.58,1.32-2.48,1.79a2,2,0,0,1-.81.26,1.46,1.46,0,0,1-1.3-1.58,3.61,3.61,0,0,1,.94-2.08c2.25-2.81,5.21-4.16,7.7-6.75.46-.48,1.28-1.38,1.28-2.05q3,1.25,5.84,2.78C140.44,275.17,140.64,275.42,140.7,275.7Z" fill="#b44f28"/><path d="M52.85,161.37C43.8,165,14.34,187.45,13,230.15c-.89,29,14.3,49.36,19,55.2l14.47-8.14s-9.95-29-2.71-51.58S66.42,184,66.42,184Z" fill="#008a3a"/><path d="M52.86,185.81a109.7,109.7,0,0,0-7,18.21c-.88,3.16-1.68,6.38-2.29,9.64s-1.13,6.55-1.45,9.88a122.58,122.58,0,0,0-.48,20.1c.18,3.33.5,6.66.94,10-.29.11-.56.24-.83.36a94.75,94.75,0,0,1-1.52-10.15c-.33-3.41-.48-6.85-.48-10.28s.19-6.89.57-10.29a94.58,94.58,0,0,1,4.23-19.89,82.74,82.74,0,0,1,3.65-9.18A69,69,0,0,1,52.86,185.81Z" fill="#007933"/><path d="M120.68,160.47c9,3.62,38.51,26.07,39.82,68.78.89,29-14.3,49.36-19,55.2L127,276.3s10-29,2.71-51.58-22.62-41.63-22.62-41.63Z" fill="#008a3a"/><path d="M134.31,230.82c0,3.44-.15,6.88-.48,10.28a94.38,94.38,0,0,1-1.65,10.8l-.78-.37c0-.18,0-.37.07-.56.44-3.34.77-6.68.95-10a122.53,122.53,0,0,0-.48-20.1c-.32-3.33-.82-6.63-1.45-9.88s-1.41-6.48-2.29-9.65a110,110,0,0,0-7-18.21,69.74,69.74,0,0,1,4.66,8.37,82.13,82.13,0,0,1,3.65,9.19,93.85,93.85,0,0,1,4.22,19.88C134.12,223.93,134.26,227.38,134.31,230.82Z" fill="#007933"/><path d="M82.69,170.06a14,14,0,0,1-10.78-12.51,152.57,152.57,0,0,1,32.47,0,14,14,0,0,1-12,12.68,2.26,2.26,0,0,1-2-.67,9.56,9.56,0,0,1-2.93-6.31l-1.85,5.11A2.57,2.57,0,0,1,82.69,170.06Z" fill="#00c244"/><g id="neck_n_shadow-2" data-name="neck n shadow"><path d="M96.28,157.46a.67.67,0,0,1,0,.28l0,.08a.63.63,0,0,1-.3.21,21,21,0,0,1-15.55,0,.53.53,0,0,1-.29-.19.59.59,0,0,1-.06-.37q.12-3.18.25-6.36c.06-1.73.13-3.46.2-5.18q.11-2.9.23-5.78c0-1,.08-1.93.11-2.89,0-.64-.29-2.15.56-2.15l14,0q.32,7.67.62,15.36C96.09,152.81,96.19,155.14,96.28,157.46Z" fill="#b44f28"/><path d="M96,150.5l-.56.23a21.53,21.53,0,0,1-11,1.4,21.76,21.76,0,0,1-4.14-1c.06-1.73.13-3.46.2-5.18q.11-2.9.23-5.78c0-1,.08-1.93.11-2.89,0-.64-.29-2.15.56-2.15l14,0Q95.7,142.81,96,150.5Z" fill="#974221"/></g><path id="head" d="M109.81,130.85a24.16,24.16,0,0,1-11,13.73,24.43,24.43,0,0,1-3.33,1.63,21.74,21.74,0,0,1-11,1.4,25.62,25.62,0,0,1-16.5-10.23,29.16,29.16,0,0,1-3-5,32.42,32.42,0,0,1-3.15-14.24c0-.2,0-.39,0-.58.3-11.33,6.61-22,19.32-24.73a22,22,0,0,1,16.68,2.94,21.73,21.73,0,0,1,4.73,4.35l.77,1a36.65,36.65,0,0,1,3.92,6.75C110.46,115,112,123.27,109.81,130.85Z" fill="#b44f28"/><path id="ear" d="M65.2,127.07a4.8,4.8,0,0,1-.26-.57c-.8-2.24.89-4.9-.2-7a4.16,4.16,0,0,0-4-1.9A5.61,5.61,0,0,0,57,119.27c-3.39,3.63.43,10.2,3.75,12.42a5.44,5.44,0,0,0,3.52,1.08,2.73,2.73,0,0,0,2.49-2.38C66.81,129.14,65.8,128.18,65.2,127.07Z" fill="#b44f28"/><path id="hair_shadow" data-name="hair shadow" d="M105.34,95.31a7.16,7.16,0,0,1-2.72,3.62c.26.32-.25.58,0,.91a7.54,7.54,0,0,1-6.33,3.62c-2.72,0-6.34-2.72-6.34-2.72s-3.62-.9-6.33.91c-1.79,1.19-2.8-.37-3.28-1.58a6.65,6.65,0,0,1-2.15,6.1c-2.31,2.31-1.81,2.72-4.53,2.72s-.9,7.24-4.52,8.14c-3.42.85-2.81,5.74-3.48,4a.49.49,0,0,0,0-.11c0-.07-.06-.16-.1-.27a4.25,4.25,0,0,0-.21-.49,6.64,6.64,0,0,0-3.56-2.63,12.24,12.24,0,0,0-1.66-.5c-2.1-.35-3.39-1-4.12-1.81a3.9,3.9,0,0,1-.83-3,13.48,13.48,0,0,1,.42-2.4,6.58,6.58,0,0,1,4.53-4.52,7.46,7.46,0,0,1-1-1.41,5.13,5.13,0,0,1,1-.4,7.67,7.67,0,0,1-1.93-3.8,6.35,6.35,0,0,1,1.93-3.44c4.29-4.29,6.33-1.81,6.33-1.81a6.34,6.34,0,0,1-.25-2,5.43,5.43,0,0,1,0-.67A5.76,5.76,0,0,1,70,87.17c6.34-2.72,9,1.81,9,1.81s0-3.62,10.86-3.62c11.08,0,15.3,4,15.84,8.08A8,8,0,0,1,105.34,95.31Z" fill="#974221"/><path id="hair" d="M105.79,93.44a8,8,0,0,1-.45,1.87,12.37,12.37,0,0,1-2.86,4.78c-2.11,2-4.36,1.56-6.19,1.56-2.72,0-6.34-2.72-6.34-2.72s-3.62-.9-6.33.91c-2.19,1.45-3.2,0-3.51-.66h0A.71.71,0,0,1,80,99s0,0,0,0a1.23,1.23,0,0,1,0,.2c.15.82.46,3.66-1.85,5.2-2.72,1.81-1.81,2.72-4.53,2.72s-.9,7.24-4.52,8.14c-3.41.85-2.81,7.32-3.48,5.81a.49.49,0,0,0,0-.11c0-.07-.06-.16-.1-.27a4.25,4.25,0,0,0-.21-.49,5.08,5.08,0,0,0-3.57-2,10.19,10.19,0,0,0-1.65-.17A5.42,5.42,0,0,1,56,115.22a7.2,7.2,0,0,1-.83-3,14.15,14.15,0,0,1,.42-4.21,6.3,6.3,0,0,1,3.49-4.12,5.13,5.13,0,0,1,1-.4,7.67,7.67,0,0,1-1.93-3.8,5.8,5.8,0,0,1,1.93-5.25c3.43-3.43,5.42-2.54,6.08-2a1.55,1.55,0,0,1,.25.23,7.17,7.17,0,0,1-.2-.9C66,90.17,66.12,87,70,85.36c6.34-2.72,9,1.81,9,1.81s0-3.62,10.86-3.62C102.67,83.55,106.35,88.81,105.79,93.44Z" fill="#3e1714"/><g id="face_things" data-name="face things"><path d="M73.54,116.84l-.11,0a.45.45,0,0,1-.33-.55c0-.15,1-3.72,5.45-6.44a10,10,0,0,1,9-.71.45.45,0,0,1-.38.82,9.21,9.21,0,0,0-8.13.67c-4.17,2.52-5,5.85-5,5.88A.46.46,0,0,1,73.54,116.84Z" fill="#431d0f"/><path d="M111.09,113.17a.45.45,0,0,1-.43-.3,7.52,7.52,0,0,0-6.1-4.49,12.64,12.64,0,0,0-8,1.26.45.45,0,0,1-.62-.14.44.44,0,0,1,.14-.62,13.32,13.32,0,0,1,8.63-1.39,8.37,8.37,0,0,1,6.82,5.08.45.45,0,0,1-.27.57Z" fill="#431d0f"/><path d="M83.51,117a2.09,2.09,0,0,1-2.74,2c-2.85-1-.53-5.58,2-3.62A1.92,1.92,0,0,1,83.51,117Z" fill="#431d0f"/><path d="M106.14,114.32a2.09,2.09,0,0,1-2.74,2c-2.86-1-.53-5.57,2-3.61A2,2,0,0,1,106.14,114.32Z" fill="#431d0f"/><path d="M94.42,129.83a8.17,8.17,0,0,1-4.37-1.62.45.45,0,0,1-.09-.63.46.46,0,0,1,.64-.09s3.41,2.56,5.77.81C99.09,126.3,94.14,118,92,115a.44.44,0,0,1,.11-.63.46.46,0,0,1,.63.11c.84,1.19,8.07,11.7,4.16,14.59A4.05,4.05,0,0,1,94.42,129.83Z" fill="#431d0f"/><path d="M86.85,135.16a.45.45,0,0,0-.31.73c1.57,2,3.63,3.78,5.89,4.18,3.29.59,6.43-2.17,7.37-5.6a.49.49,0,0,0-.51-.62Z" fill="#431d0f"/></g><path d="M63.32,122.23c-.12-.2-.26-.4-.4-.6a2.53,2.53,0,0,0-1.13-1,1.83,1.83,0,0,0-1.77.44,3.81,3.81,0,0,0-.8,4.47,13.68,13.68,0,0,0,3,3.44,1.54,1.54,0,0,0,1.09.56c.63,0,1-.7,1.19-1.3A7.72,7.72,0,0,0,63.32,122.23Z" fill="#974221"/></g><g id="person_4" data-name="person 4"><g id="neck_n_shadow-3" data-name="neck n shadow"><path d="M254.76,124v19.33a1.28,1.28,0,0,1-.94,1.15,16.65,16.65,0,0,1-10.77,0,1.3,1.3,0,0,1-1-1.16V124Z" fill="#b44f28"/><path d="M252.19,124.53c-.87-.73-1.67-1.55-2.48-2.34l-.8-.77a1.57,1.57,0,0,0-1-.49,1.9,1.9,0,0,0-1.38.91c-.09.12-.18.24-.28.35a14.41,14.41,0,0,1-4.11,3.6v7.92a46.86,46.86,0,0,0,6.29.63,36.77,36.77,0,0,0,6.38-.21V126A8.74,8.74,0,0,1,252.19,124.53Z" fill="#974221"/></g><g id="head-2" data-name="head"><path d="M230.81,102.42a4.63,4.63,0,0,1-.07-.52c-.11-2,1.58-3.62,1.25-5.54a3.32,3.32,0,0,0-2.43-2.49,3.48,3.48,0,0,0-2.86.4c-3,2-1.71,8.1.15,10.67a4.06,4.06,0,0,0,2.21,1.72,1.85,1.85,0,0,0,2.18-1.25C231.51,104.44,231,103.44,230.81,102.42Z" fill="#b44f28"/><path d="M230.4,101.4a2.14,2.14,0,0,1-.08-.32c-.17-1.22.91-2.39.58-3.58a2.12,2.12,0,0,0-1.8-1.4,2.65,2.65,0,0,0-2,.45c-2,1.48-.77,5.23.64,6.71a2.7,2.7,0,0,0,1.62.93,1.34,1.34,0,0,0,1.45-.94C231,102.62,230.58,102,230.4,101.4Z" fill="#974221"/><path d="M266.3,102.56a4.67,4.67,0,0,0,0-.52c0-2-1.82-3.51-1.62-5.45A3.3,3.3,0,0,1,267,93.94a3.53,3.53,0,0,1,2.88.2c3.19,1.8,2.27,8,.6,10.66a4.1,4.1,0,0,1-2.09,1.87,1.84,1.84,0,0,1-2.26-1.1C265.74,104.63,266.18,103.59,266.3,102.56Z" fill="#b44f28"/><path d="M266.87,101.61a1.84,1.84,0,0,0,0-.33c0-1.23-1.24-2.23-1.09-3.46a2.12,2.12,0,0,1,1.58-1.64,2.69,2.69,0,0,1,2,.16c2.2,1.17,1.52,5.06.33,6.74a2.74,2.74,0,0,1-1.46,1.15,1.34,1.34,0,0,1-1.57-.72C266.47,102.91,266.78,102.26,266.87,101.61Z" fill="#974221"/><path d="M249.44,72.57c28.22,0,16.15,30.91-.56,32.34C232.76,106.3,216,72.57,249.44,72.57Z" fill="#3e1714"/><path d="M249.32,127c-6.08-.06-13.36-1.85-17-7.18a15.7,15.7,0,0,1-2.41-8.11,57,57,0,0,1,2-16.94c1.28-4.8,2.87-10.52,7-13.64,3-2.26,7-2.77,10.79-2.68a17.21,17.21,0,0,1,7.51,1.59,14.35,14.35,0,0,1,6.16,7A59.63,59.63,0,0,1,267,99.53a51.9,51.9,0,0,1,1.14,13.33,14.85,14.85,0,0,1-2.63,8C261.9,125.67,255,127.07,249.32,127Z" fill="#b44f28"/><path d="M262.33,96a.32.32,0,0,1-.29-.2,5.29,5.29,0,0,0-4.41-3A8.85,8.85,0,0,0,252.05,94a.33.33,0,0,1-.45-.08.32.32,0,0,1,.08-.44,9.35,9.35,0,0,1,6-1.22,5.91,5.91,0,0,1,4.93,3.37.32.32,0,0,1-.18.41A.27.27,0,0,1,262.33,96Z" fill="#3e1714"/><path d="M236,96.33h-.1a.33.33,0,0,1-.2-.4,5.87,5.87,0,0,1,4.73-3.65,9.33,9.33,0,0,1,6.07.87.31.31,0,0,1,.11.43.32.32,0,0,1-.44.11,8.83,8.83,0,0,0-5.64-.78,5.29,5.29,0,0,0-4.23,3.21A.3.3,0,0,1,236,96.33Z" fill="#3e1714"/><path d="M242.58,97.54a1.47,1.47,0,0,1-2.05,1.21c-1.93-.89,0-3.93,1.62-2.39A1.37,1.37,0,0,1,242.58,97.54Z" fill="#3e1714"/><path d="M258.58,97.2a1.48,1.48,0,0,1-2.06,1.21c-1.93-.89,0-3.93,1.62-2.39A1.41,1.41,0,0,1,258.58,97.2Z" fill="#3e1714"/><path d="M249.64,106.62a5.15,5.15,0,0,1-3-1.29.31.31,0,0,1,0-.44.33.33,0,0,1,.45,0s2.07,1.81,3.68.82c1.85-1.14-.93-6.71-2.15-8.76a.32.32,0,0,1,.11-.44.31.31,0,0,1,.43.11c.49.81,4.66,8,1.95,9.63A2.68,2.68,0,0,1,249.64,106.62Z" fill="#3e1714"/><path d="M243.62,113.3c-.38.3-.15,1,0,1.37a5.57,5.57,0,0,0,1.59,2.41,6.3,6.3,0,0,0,3.69,1.15,4.52,4.52,0,0,0,2.15-.42,3.41,3.41,0,0,0,1.72-2.29,7.69,7.69,0,0,0,.22-1.82.55.55,0,0,0-.55-.54c-2.74,0-5.48,0-8.21,0a1.38,1.38,0,0,0-.46.06Z" fill="#3e1714"/><path d="M232.37,94.2c.45-2.76.93-5.59,2.35-8a7.49,7.49,0,0,1,3.89-3.43c2.87-1,6,.54,8.44,2.25,3.46,2.37,6.59,4.82,11,3.58,6-1.69,12-7.89,9.71-14.39-2.46-7-11.39-7.7-17.3-4.83-2.08,1-4,2.44-6.26,3.09s-4.65-.13-6.94.41a8.23,8.23,0,0,0-5.15,4.48,21.35,21.35,0,0,0-2,10.26A11.85,11.85,0,0,0,232.37,94.2Z" fill="#3e1714"/><path d="M265.69,94.14s2.13,16.93-2.44,18.21-12.49-10-26.14-.2a2.59,2.59,0,0,1-3.32-.23,10.49,10.49,0,0,1-3.21-8.48A34.77,34.77,0,0,1,232,94.77c-2.88,8-5.44,19.79-.51,27.64a17.22,17.22,0,0,0,8.63,7.12,27.58,27.58,0,0,0,8.9,1.56c4.22.19,8.69-.29,12.15-2.65,6.28-4.27,7.21-12.65,6.95-19.47C268,104.34,267,97.45,265.69,94.14Zm-4,25.91c-.41,1.81-1.86,4-3.73,4.55a6.34,6.34,0,0,1-5.87-1.36c-.92-.78-1.74-1.68-2.62-2.49a1.27,1.27,0,0,0-.85-.4,1.48,1.48,0,0,0-1.1.73c-2,2.58-5.11,5.07-8.62,3.34a4.91,4.91,0,0,1-2.65-3.59,7.19,7.19,0,0,1,2.8-6.76c2.39-2,5.45-2.66,8.52-2.91a18,18,0,0,1,9,1.23C259.53,113.75,262.43,116.65,261.69,120.05Z" fill="#3e1714"/></g><path d="M298.09,253l-102,1.81,7.09-92.43c1.1-14.35,16.14-25.56,34.32-25.56h4.64l6.23,6.72,6.79-6.72h11.1c14.35,0,26.23,8.84,27.1,20.19Z" fill="#e1e1e1"/><path d="M297.82,240.28q.54,20.68.2,41.36a5.16,5.16,0,0,1-5,5.08q-20.24.54-40.48,0a4.09,4.09,0,0,1-4-4.06l-.2-20.34-7.08,22.13a3.61,3.61,0,0,1-1,1.81,3.52,3.52,0,0,1-2.28.51l-37.16-.08a4.77,4.77,0,0,1-4.75-4.73c-.08-11.1-.17-22.18-.78-33.28-.15-2.68-.17-5.75,2.72-7.14a6,6,0,0,1,2.24-.55c7.45-.4,15.81,2.69,23.26,3.57a213.09,213.09,0,0,0,25.12,1.45,215,215,0,0,0,25.11-1.53c2.11-.26,23.12-2.93,24.06-4.25Z" fill="#007933"/><path d="M368,103.19c.74-.08,1.22-1.07,2.1-1.7,1.67-1.2,3.92-1.42,5.84-2.07a21.43,21.43,0,0,0,6-3,12.3,12.3,0,0,0,4.58-6.33,16.15,16.15,0,0,0,0-7.51c-.37-1.88-.83-4.44-2.66-5.47-2.39-1.34-5.29,1.14-6.9,2.59a18.15,18.15,0,0,1-7.55,4.45c.14-1.6.68-2.69.73-4.12a3.12,3.12,0,0,0-.14-1.21,2.08,2.08,0,0,0-2.6-1.1,4,4,0,0,0-1.93,2.15c-2.07,4.23-2,8.82-3.68,13.28-.3.83-.91,2.32-1.69,2.6q3.14,3.54,6.55,6.77A1.84,1.84,0,0,0,368,103.19Z" fill="#b44f28"/><path d="M183.32,259.77c-.15.55.43,1.16.63,2,.39,1.52-.06,3.17-.13,4.71a16.54,16.54,0,0,0,.49,5.1,9.26,9.26,0,0,0,3.24,5,12.3,12.3,0,0,0,5.33,2c1.43.25,3.37.62,4.6-.4,1.6-1.33.64-4.05.05-5.59a13.91,13.91,0,0,1-1.1-6.57c1.1.54,1.73,1.22,2.72,1.64a2.3,2.3,0,0,0,.9.23,1.57,1.57,0,0,0,1.49-1.54,3,3,0,0,0-1-1.95c-2.43-2.63-5.7-3.83-8.41-6.24-.5-.44-1.39-1.27-1.38-1.91-2.24.84-4.44,1.78-6.59,2.8C183.64,259.26,183.4,259.51,183.32,259.77Z" fill="#b44f28"/><path d="M266.42,137.11s33.42.84,49.77-8.14c21.29-11.69,44.68-36,44.68-36l8.52,9.64S351.62,143,318,160.64c-34.39,18.1-48.65,1.05-48.65,1.05Z" fill="#e1e1e1"/><path d="M231.13,138s-70.59-4.53-48,125.79h17.2s1.81-49.78,4.52-64.25,16.29-24.44,16.29-24.44Z" fill="#e1e1e1"/><path d="M201.14,243c-.19-2.51-.2-5-.25-7.54s.08-5,.16-7.54.3-5,.5-7.53.47-5,.76-7.52.77-5,1.23-7.46.94-5,1.65-7.4a68.49,68.49,0,0,1,2.38-7.22,27.93,27.93,0,0,1,3.73-6.61l.11.07a30.56,30.56,0,0,0-3.16,6.78,66.64,66.64,0,0,0-2,7.22c-1.13,4.88-1.92,9.83-2.56,14.8S202.5,223,202.11,228s-.68,10-.83,15Z" fill="#cecdcc"/><polygon points="232.03 137.11 241.99 136.21 248.32 143.45 242.89 152.5 232.03 137.11" fill="#cecdcc"/><polygon points="265.51 136.21 254.66 136.21 248.32 143.44 254.66 152.5 265.51 136.21" fill="#cecdcc"/></g><g id="person_3" data-name="person 3"><g id="neck_n_shadow-4" data-name="neck n shadow"><path d="M325.72,115.14v20.09a1.32,1.32,0,0,1-1,1.19,17.33,17.33,0,0,1-11.2,0,1.38,1.38,0,0,1-1-1.21V115.14Z" fill="#b44f28"/><path d="M325.72,115.14v12.57a20.07,20.07,0,0,1-6.42,1,19.17,19.17,0,0,1-6.75-1.24V115.14Z" fill="#974221"/></g><g id="head-3" data-name="head"><path d="M339.53,97.68a2.88,2.88,0,0,0,.19-.45c.57-1.75-.8-3.76,0-5.42a3.23,3.23,0,0,1,3.09-1.55,4.33,4.33,0,0,1,2.88,1.2c2.7,2.73-.09,7.89-2.6,9.68a4.19,4.19,0,0,1-2.69.91,2.11,2.11,0,0,1-2-1.77C338.34,99.32,339.1,98.55,339.53,97.68Z" fill="#b44f28"/><path d="M298.73,97.68a4.22,4.22,0,0,1-.18-.45c-.57-1.75.8-3.76,0-5.42a3.2,3.2,0,0,0-3.08-1.55,4.31,4.31,0,0,0-2.88,1.2c-2.7,2.73.09,7.89,2.6,9.68a4.19,4.19,0,0,0,2.69.91,2.12,2.12,0,0,0,2-1.77C299.93,99.32,299.17,98.55,298.73,97.68Z" fill="#b44f28"/><path d="M298.3,97.14c0-.09-.07-.19-.1-.28-.3-1.06.57-2.23.14-3.25a1.93,1.93,0,0,0-1.81-1,2.55,2.55,0,0,0-1.75.65c-1.69,1.56-.14,4.73,1.32,5.86a2.52,2.52,0,0,0,1.59.62,1.27,1.27,0,0,0,1.23-1C299,98.15,298.54,97.67,298.3,97.14Z" fill="#974221"/><path d="M298.3,97.14c0-.09-.07-.19-.1-.28-.3-1.06.57-2.23.14-3.25a1.93,1.93,0,0,0-1.81-1,2.55,2.55,0,0,0-1.75.65c-1.69,1.56-.14,4.73,1.32,5.86a2.52,2.52,0,0,0,1.59.62,1.27,1.27,0,0,0,1.23-1C299,98.15,298.54,97.67,298.3,97.14Z" fill="#974221"/><path d="M340.8,97.23c0-.09.06-.19.08-.28.23-1.08-.7-2.2-.33-3.23a1.91,1.91,0,0,1,1.74-1.12,2.55,2.55,0,0,1,1.79.55c1.78,1.46.43,4.71-1,5.93a2.53,2.53,0,0,1-1.55.71,1.26,1.26,0,0,1-1.29-.94C340.18,98.28,340.59,97.77,340.8,97.23Z" fill="#974221"/><path d="M319.68,124.63a18.57,18.57,0,0,1-8.84-2.21c-6.91-3.76-10.95-11.57-12.2-19.44a63,63,0,0,1,.16-17.34c.83-6.93,2-11.81,9.59-12.86a80,80,0,0,1,25.79.48c5.78,1.13,5.48,7.83,6.05,12.6.81,6.74,1.06,13.68-.33,20.36a25.2,25.2,0,0,1-7.11,13.45A19.35,19.35,0,0,1,319.68,124.63Z" fill="#b44f28"/><path d="M302.49,90a.46.46,0,0,1-.22-.06.42.42,0,0,1-.12-.57c.08-.12,1.94-2.91,6.61-3.9a9.11,9.11,0,0,1,7.93,2.09.41.41,0,0,1-.58.59,8.38,8.38,0,0,0-7.18-1.87,9.8,9.8,0,0,0-6.09,3.54A.41.41,0,0,1,302.49,90Z" fill="#3e1714"/><path d="M337,90a.43.43,0,0,0,.22-.06.41.41,0,0,0,.12-.57c-.07-.12-1.94-2.91-6.61-3.9a9.08,9.08,0,0,0-7.92,2.09.4.4,0,0,0,0,.58.41.41,0,0,0,.58,0,8.39,8.39,0,0,1,7.18-1.87,9.76,9.76,0,0,1,6.09,3.54A.42.42,0,0,0,337,90Z" fill="#3e1714"/><path d="M311.43,92.17A1.9,1.9,0,0,1,308.94,94c-2.6-.9-.48-5.07,1.79-3.29A1.78,1.78,0,0,1,311.43,92.17Z" fill="#3e1714"/><path d="M332,92.17a1.91,1.91,0,0,1-2.5,1.82c-2.6-.9-.48-5.07,1.79-3.29A1.79,1.79,0,0,1,332,92.17Z" fill="#3e1714"/><path d="M315.48,111a2,2,0,0,0,0,1.35,5.25,5.25,0,0,0,3.37,3.24,6.51,6.51,0,0,0,5.44-.4,5.44,5.44,0,0,0,2.32-2.75,3.57,3.57,0,0,0,.31-1.81c-.16-.54-.8-.51-1.25-.47-2.91.29-5.84,0-8.76.16a2,2,0,0,0-1.14.35A1,1,0,0,0,315.48,111Z" fill="#3e1714"/><path d="M320.27,104.25a3.9,3.9,0,0,1-3.32-1.44c-1.56-2.11-.5-5.73-.46-5.89a.47.47,0,0,1,.57-.3.45.45,0,0,1,.3.56s-1,3.35.32,5.09a3,3,0,0,0,2.59,1.07,2.68,2.68,0,0,0,2.4-1c1.28-1.84-.1-5.57-.11-5.61a.45.45,0,1,1,.84-.32c.07.18,1.56,4.22,0,6.45A3.59,3.59,0,0,1,320.27,104.25Z" fill="#3e1714"/><path d="M342.49,63.36l-1.6,22c-.59-2.76-1.11-4.66-2.54-5.71-.23-.16-2.08-2.26-3.76-1.5-9,4.11-23,1.47-28,.82a6.19,6.19,0,0,0-3.29.82c-2.31.93-4.07,3.46-5.27,5.56-.37-5.79-.6-17.16-.67-21.4Z" fill="#974221"/><path d="M342.62,61.71l-.13,1.65-1.6,22-.21,2.9s-.77.77-1.63-3.77a18.88,18.88,0,0,0-1.43-5.24,3.91,3.91,0,0,0-1-1.22,3.11,3.11,0,0,0-3.05-.48c-8.52,3.09-20.65,1.19-25.08.53a5.85,5.85,0,0,0-5.3,2.1c-2.93,3.16-4.16,8.65-4.69,8.66-.18,0-.34-1.38-.48-3.49-.37-5.79-.6-17.16-.67-21.4,0-1,0-1.64,0-1.64Z" fill="#0c0909"/></g><path d="M275.19,269q0-6.28.24-12.56c.27-6.88.22-13.57,8.9-14.06,3.25-.19,6.45.73,9.6,1.52,19.33,4.87,40,5.23,59-.7,2.53-.78,5.92-1.37,7.26.91a5.8,5.8,0,0,1,.58,2.33q1.71,16.48,2.26,33.06c0,1.21,0,2.58-.82,3.45a4.51,4.51,0,0,1-2.24,1,101.4,101.4,0,0,1-31.86,2.68,5.37,5.37,0,0,1-2.93-.82,5.54,5.54,0,0,1-1.61-3.24l-4.13-17.18-1.57,18.61a4.14,4.14,0,0,1-.58,2.14,4.09,4.09,0,0,1-3.05,1.27A88.54,88.54,0,0,1,279,284.22a5.51,5.51,0,0,1-2.76-1.48,5.63,5.63,0,0,1-.9-3.49Q275.2,274.14,275.19,269Z" fill="#9a3b32"/><path d="M290.63,140.53C301,135,308.4,133.45,319,134.14c12.5.81,16.9-.27,28.13,6.57,10.08,6.14,10.14,21.83,12.54,32.84,5,22.78,10.39,46,7.42,69.15-.5,3.9-1.49,8.18-4.82,10.45a15.48,15.48,0,0,1-6.16,2,215.5,215.5,0,0,1-77.06-.33,10.38,10.38,0,0,1-4.48-1.59c-2.17-1.63-2.66-4.55-2.94-7.2a220,220,0,0,1,2.87-65.87C277.23,166.16,277.9,147.35,290.63,140.53Z" fill="#d7cbac"/><path d="M307.45,201.93a13.55,13.55,0,0,0-13.66-4.23c-8.7,2.14-8.56,5.9-8.56,5.9a10.76,10.76,0,0,0,7.93,9.6c1.82.57,8.14-1.4,8.14-1.4Z" fill="#b44f28"/><path d="M379.9,200.35c-.63,4.84-2,15.81-9.23,22.54-10.18,9.55-33.62,12.34-54.32.28l-.16-.09A63.43,63.43,0,0,1,301,210.59a12.22,12.22,0,0,1,2.05-6.15c2-3.07,4.1-3.07,4.1-3.07s28.77,1.48,40,5a3.13,3.13,0,0,0,4.07-3,43.29,43.29,0,0,0-2.05-15.37,50.29,50.29,0,0,0-2-5.12c-4.72-11.14-4.37-22.78-4.1-31.77.09-2.93,1-12.3,1-12.3a69.49,69.49,0,0,1,23.56,20.5C371.4,164.63,382.52,180.08,379.9,200.35Z" fill="#c3a86f"/><path d="M330.66,201.61s4.11-2.47,12.34,0,7.41,4.93,7.41,4.93-2.47,4.12-10.7,4.12h-4.94Z" fill="#b44f28"/><path d="M337.23,210.76a3,3,0,0,1-.3.88,4.83,4.83,0,0,1-1.18,1.35c-.87.74-1.75,1.46-2.67,2.14a48.7,48.7,0,0,1-5.72,3.72,44.09,44.09,0,0,1-11,4.32l-.16-.09a47.17,47.17,0,0,0,4.83-1.77,48.42,48.42,0,0,0,6-3,59.9,59.9,0,0,0,5.57-3.78c.89-.68,1.76-1.39,2.61-2.12a13.68,13.68,0,0,0,1.16-1.11,2.79,2.79,0,0,0,.45-.63,2.38,2.38,0,0,0,.25-.78A1.51,1.51,0,0,1,337.23,210.76Z" fill="#a58756"/><path d="M287,203.42a43.73,43.73,0,0,1,2-15.37,51,51,0,0,1,2.05-5.12c4.72-11.14,4.37-22.78,4.1-31.77-.09-2.94-1-12.3-1-12.3a69.42,69.42,0,0,0-23.57,20.5c-3.8,5.27-14.92,20.72-12.3,41,.63,4.84,2,15.81,9.22,22.54,12.85,12,42,8.48,69.68-12.3a12.22,12.22,0,0,0-2-6.14c-2-3.08-4.1-3.08-4.1-3.08s-40,2-44.07,7.17Z" fill="#c3a86f"/><path d="M328.05,139.84l-1.77.2a52.13,52.13,0,0,1-7.9.47,26.46,26.46,0,0,1-10.28-2.16,7.52,7.52,0,0,1-2.56-1.73c-.87-1-.5-2.06-.11-3.26.67-2.07,1.34-2.31,2.35-2.74,2.25-1,5.21.34,7.78.51a80.26,80.26,0,0,0,11.5.05c1.66-.12,3.54-.27,4.82.63a5.2,5.2,0,0,1,.31,6.69A7.72,7.72,0,0,1,328.05,139.84Z" fill="#c3a86f"/><g id="glasses"><rect x="302.17" y="88.59" width="14.48" height="10.86" rx="4" fill="#9a3b32" opacity="0.5"/><path d="M313,100.35h-7.24a4.53,4.53,0,0,1-4.53-4.52V92.21a4.53,4.53,0,0,1,4.53-4.53H313a4.53,4.53,0,0,1,4.52,4.53v3.62A4.53,4.53,0,0,1,313,100.35Zm-7.24-10.86a2.72,2.72,0,0,0-2.72,2.72v3.62a2.72,2.72,0,0,0,2.72,2.71H313a2.72,2.72,0,0,0,2.71-2.71V92.21A2.72,2.72,0,0,0,313,89.49Z" fill="#9a3b32"/><rect x="323.43" y="88.59" width="14.48" height="10.86" rx="4" fill="#9a3b32" opacity="0.5"/><path d="M334.29,100.35h-7.24a4.53,4.53,0,0,1-4.52-4.52V92.21a4.53,4.53,0,0,1,4.52-4.53h7.24a4.53,4.53,0,0,1,4.53,4.53v3.62A4.53,4.53,0,0,1,334.29,100.35Zm-7.24-10.86a2.72,2.72,0,0,0-2.71,2.72v3.62a2.72,2.72,0,0,0,2.71,2.71h7.24A2.72,2.72,0,0,0,337,95.83V92.21a2.72,2.72,0,0,0-2.72-2.72Z" fill="#9a3b32"/><path d="M322.75,95.83a.9.9,0,0,1-.9-.91c0-.36-.72-.9-1.81-.9s-1.81.54-1.81.9a.91.91,0,1,1-1.81,0c0-1.52,1.59-2.71,3.62-2.71s3.62,1.19,3.62,2.71A.91.91,0,0,1,322.75,95.83Z" fill="#9a3b32"/></g></g></g></g></g></svg>