<svg xmlns="http://www.w3.org/2000/svg" viewBox="0 0 282 346"><title>person</title><g id="Layer_2" data-name="Layer 2"><g id="Layer_3" data-name="Layer 3"><g id="people_first" data-name="people first"><ellipse cx="140.14" cy="65" rx="63.25" ry="65" fill="#15a24a"/><path d="M140.14,152h0a100,100,0,0,1,100,100v82a12,12,0,0,1-12,12h-176a12,12,0,0,1-12-12V252a100,100,0,0,1,100-100Z" fill="#098343"/><path d="M11.84,147.81,14,152.22a.83.83,0,0,0,.57.41l4.86.7c1.67.25,2,1.41.82,2.59l-3.49,3.39a.82.82,0,0,0-.22.67l.83,4.81c.28,1.65-.69,2.37-2.17,1.6l-4.38-2.29a.85.85,0,0,0-.7,0l-4.38,2.29c-1.48.77-2.45.05-2.17-1.6L4.43,160a.82.82,0,0,0-.22-.67L.72,155.92c-1.22-1.18-.85-2.34.82-2.59l4.86-.7a.83.83,0,0,0,.57-.41l2.19-4.41C9.9,146.33,11.1,146.33,11.84,147.81Z" fill="#f9bf2e"/><path d="M272.84,37.81,275,42.22a.83.83,0,0,0,.57.41l4.86.7c1.67.25,2,1.41.82,2.59l-3.49,3.39a.82.82,0,0,0-.22.67l.83,4.81c.28,1.65-.69,2.37-2.17,1.6l-4.38-2.29a.85.85,0,0,0-.7,0l-4.38,2.29c-1.48.77-2.45,0-2.17-1.6l.83-4.81a.82.82,0,0,0-.22-.67l-3.49-3.39c-1.22-1.18-.85-2.34.82-2.59l4.86-.7a.83.83,0,0,0,.57-.41l2.19-4.41C270.9,36.33,272.1,36.33,272.84,37.81Z" fill="#f9bf2e"/></g></g></g></svg>