<svg xmlns="http://www.w3.org/2000/svg" viewBox="0 0 331.99 393.43"><title>quality</title><g id="Layer_2" data-name="Layer 2"><g id="Layer_3" data-name="Layer 3"><g id="Quality"><path d="M69.58,55.34l6.68,13.23A2.53,2.53,0,0,0,78,69.8l14.81,2.11c5.1.72,6.23,4.22,2.51,7.76L84.65,89.82a2.53,2.53,0,0,0-.66,2l2.52,14.41c.87,5-2.1,7.12-6.6,4.81L66.54,104.2a2.56,2.56,0,0,0-2.1,0l-13.36,6.87c-4.5,2.31-7.48.15-6.61-4.81L47,91.85a2.57,2.57,0,0,0-.67-2L35.68,79.67c-3.72-3.54-2.58-7,2.52-7.76L53,69.8a2.56,2.56,0,0,0,1.72-1.23l6.68-13.23C63.65,50.88,67.33,50.88,69.58,55.34Z" fill="#f9bf2e"/><path d="M269.58,55.34l6.68,13.23A2.53,2.53,0,0,0,278,69.8l14.81,2.11c5.1.72,6.23,4.22,2.51,7.76L284.65,89.82a2.53,2.53,0,0,0-.66,2l2.52,14.41c.87,5-2.1,7.12-6.6,4.81l-13.37-6.87a2.56,2.56,0,0,0-2.1,0l-13.36,6.87c-4.5,2.31-7.48.15-6.61-4.81L247,91.85a2.57,2.57,0,0,0-.67-2L235.68,79.67c-3.72-3.54-2.58-7,2.52-7.76L253,69.8a2.56,2.56,0,0,0,1.72-1.23l6.68-13.23C263.65,50.88,267.33,50.88,269.58,55.34Z" fill="#f9bf2e"/><path d="M169.38,3.2l12.39,24.71a2.18,2.18,0,0,0,1.64,1.17L211,33c4.84.69,5.92,4,2.4,7.4L193.49,59.55a2.14,2.14,0,0,0-.63,1.93l4.71,27.05c.83,4.73-2,6.79-6.29,4.58L166.49,80.28a2.2,2.2,0,0,0-2,0L139.7,93.11c-4.28,2.21-7.11.15-6.29-4.58l4.72-27.05a2.17,2.17,0,0,0-.63-1.93L117.56,40.43c-3.52-3.38-2.44-6.71,2.4-7.4l27.62-4a2.18,2.18,0,0,0,1.63-1.17L161.6,3.2C163.74-1.07,167.24-1.07,169.38,3.2Z" fill="#f9bf2e"/><path d="M105,214H0a4,4,0,0,0,1,2.62l163.5,175.58a3.91,3.91,0,0,0,1.55,1v0Z" fill="#20bb55"/><path d="M165.57,141.45H55.64a4.06,4.06,0,0,0-1.6.4L105,214Z" fill="#20bb55"/><path d="M228,214l51.47-72.26a3.62,3.62,0,0,0-1.22-.24H166.42L228,214Z" fill="#20bb55"/><path d="M228,214,167.94,393.16a.68.68,0,0,1-.14.25,4,4,0,0,0,2.59-1.29L331,216.53a4,4,0,0,0,1-2.58Z" fill="#04773b"/><path d="M228,214H105l61.06,179.21v0a3.72,3.72,0,0,0,1.74.23.68.68,0,0,0,.14-.25Z" fill="#098343"/><path d="M332,214s0,0,0,0l-48.44-68-2.07-2.84a4.48,4.48,0,0,0-2-1.41L228,214Z" fill="#098343"/><path d="M105,214,54,141.85A4.16,4.16,0,0,0,52.45,143L.75,211.47A4,4,0,0,0,0,214Z" fill="#26cd5a"/><polygon points="104.99 213.95 227.99 213.95 166.42 141.45 165.57 141.45 104.99 213.95 104.99 213.95" fill="#15a24a"/></g></g></g></svg>