<svg xmlns="http://www.w3.org/2000/svg" viewBox="0 0 400 400"><title>shared-economy</title><g id="Layer_2" data-name="Layer 2"><g id="Layer_3" data-name="Layer 3"><g id="shared_economy" data-name="shared economy"><path d="M400,200v.42C399.77,310.69,310.32,400,200,400A200,200,0,0,1,0,200C0,89.54,89.54,0,200,0S400,89.54,400,200Z" fill="#20bc55"/><path d="M200,0V199.5L58.33,341.17A199.35,199.35,0,0,1,0,200C0,89.54,89.54,0,200,0Z" fill="#222"/><path d="M400,200v.42l-200-.92V0C310.46,0,400,89.54,400,200Z" fill="#04773b"/><path d="M229.5,311.56l-.66-.29a13.38,13.38,0,0,1-6.07-5.43,11.14,11.14,0,0,1-.85-1.9,9.63,9.63,0,0,1-.45-2.05c0-.32-.05-.64-.05-1,0,0,0,0,0-.06h8l.61,0c.14,0,.43-.07.54.06a.35.35,0,0,1,.06.18,4.44,4.44,0,0,0,1.42,2.32,6.45,6.45,0,0,0,2.38,1.43,12.5,12.5,0,0,0,5.74.29,8.34,8.34,0,0,0,3.36-1,3.07,3.07,0,0,0,.23-5.39,8.37,8.37,0,0,0-2.73-1.16c-3-.81-6.14-1.16-9.15-2a15.14,15.14,0,0,1-7.95-4.64,10.84,10.84,0,0,1-2.05-8.79,12.26,12.26,0,0,1,4.86-7.43,15.17,15.17,0,0,1,4.48-1.95,22.85,22.85,0,0,1,4.92-.86,26.6,26.6,0,0,1,5.57.21,18.18,18.18,0,0,1,7.58,2.67,10.36,10.36,0,0,1,4.55,6.45,2.41,2.41,0,0,1-.62,2.47,2.72,2.72,0,0,1-1.44.34c-1.61.08-3.23.09-4.85,0a2.87,2.87,0,0,1-1.2-.21c-.69-.34-1-1.13-1.42-1.77-1.5-2.28-4.64-2.76-7.36-2.56a7.93,7.93,0,0,0-3.75,1,3.41,3.41,0,0,0-1.69,3.28c.28,1.67,2,2.63,3.65,3.16,3.35,1.09,6.9,1.38,10.29,2.34s6.77,2.75,8.41,5.86a11,11,0,0,1,1,6.14,11.7,11.7,0,0,1-2.42,6.33c-2.47,3-6.53,4.24-10.4,4.81C237.91,313.09,233.45,313.13,229.5,311.56ZM238.24,267h0a1.31,1.31,0,0,1,1.31,1.3v48.17a1.31,1.31,0,0,1-1.31,1.3h0a1.3,1.3,0,0,1-1.3-1.3V268.29A1.3,1.3,0,0,1,238.24,267Z" fill="#fff"/><path d="M89.56,151h25.35a2,2,0,0,1,2,2v.51a2,2,0,0,1-2,2H89.56a2,2,0,0,1-2-2V153A2,2,0,0,1,89.56,151Zm-1.62,16.45a2,2,0,0,1,1.5-1.93,7.44,7.44,0,0,0,3.79-2.2A8.09,8.09,0,0,0,94.85,158a15.63,15.63,0,0,0-.31-3.05c-.2-1-.44-2.12-.71-3.2s-.52-2.18-.72-3.29a17.37,17.37,0,0,1-.31-3.26,10.62,10.62,0,0,1,4.43-9q4.41-3.27,12-3.27a32,32,0,0,1,5.58.46q1.54.27,2.73.6a2,2,0,0,1,1.44,1.93v3.75a2,2,0,0,1-2.46,1.94l-1.12-.22a24.1,24.1,0,0,0-4.36-.37,9.92,9.92,0,0,0-5.83,1.46,5.08,5.08,0,0,0-2,4.37,12.73,12.73,0,0,0,.27,2.59c.17.87.38,1.76.61,2.65s.44,1.83.62,2.79a17,17,0,0,1,.26,3,8.83,8.83,0,0,1-.91,4.32,8.28,8.28,0,0,1-3,2.91v.21h17.69a2,2,0,0,1,2,2v4.4a2,2,0,0,1-2,2H89.94a2,2,0,0,1-2-2Z" fill="#20bc55"/><path d="M261.55,113.86h37.38a1.31,1.31,0,0,1,1.31,1.3h0a1.31,1.31,0,0,1-1.31,1.3H261.55a1.3,1.3,0,0,1-1.3-1.3h0A1.3,1.3,0,0,1,261.55,113.86Zm0,10.28h37.38a1.31,1.31,0,0,1,1.31,1.3h0a1.31,1.31,0,0,1-1.31,1.31H261.55a1.31,1.31,0,0,1-1.3-1.31h0A1.3,1.3,0,0,1,261.55,124.14Zm4.25-24h8.82a1.31,1.31,0,0,1,1.2.79l10.5,24.58h.21V101.42a1.3,1.3,0,0,1,1.3-1.3h6.47a1.31,1.31,0,0,1,1.31,1.3v37.91a1.31,1.31,0,0,1-1.31,1.3h-8.82a1.31,1.31,0,0,1-1.2-.79l-10.5-24.69h-.23v24.18a1.31,1.31,0,0,1-1.31,1.3H265.8a1.3,1.3,0,0,1-1.3-1.3V101.42A1.3,1.3,0,0,1,265.8,100.12Z" fill="#d7cbac"/></g></g></g></svg>