<svg xmlns="http://www.w3.org/2000/svg" viewBox="0 0 400 400"><title>shared-own</title><g id="Layer_2" data-name="Layer 2"><g id="Layer_3" data-name="Layer 3"><g id="shared_economy" data-name="shared economy"><path d="M400,200v.42C399.77,310.69,310.32,400,200,400A200,200,0,0,1,0,200C0,89.54,89.54,0,200,0S400,89.54,400,200Z" fill="#15a24a"/><path d="M200,0V199.5L58.33,341.17A199.35,199.35,0,0,1,0,200C0,89.54,89.54,0,200,0Z" fill="#04773b"/><path d="M286.5,233.56l-.66-.29a13.38,13.38,0,0,1-6.07-5.43,11.14,11.14,0,0,1-.85-1.9,9.63,9.63,0,0,1-.45-2.05c0-.32-.05-.64-.05-1,0,0,0,0,0-.06s.05,0,.07,0h8l.61,0c.14,0,.43-.07.54.06a.35.35,0,0,1,.06.18,4.44,4.44,0,0,0,1.42,2.32,6.45,6.45,0,0,0,2.38,1.43,12.5,12.5,0,0,0,5.74.29,8.34,8.34,0,0,0,3.36-1,3.07,3.07,0,0,0,.23-5.39,8.37,8.37,0,0,0-2.73-1.16c-3-.81-6.14-1.16-9.15-2a15.14,15.14,0,0,1-7.95-4.64,10.84,10.84,0,0,1-2.05-8.79,12.26,12.26,0,0,1,4.86-7.43,15.17,15.17,0,0,1,4.48-1.95,22.85,22.85,0,0,1,4.92-.86,26.6,26.6,0,0,1,5.57.21,18.18,18.18,0,0,1,7.58,2.67,10.36,10.36,0,0,1,4.55,6.45,2.41,2.41,0,0,1-.62,2.47,2.72,2.72,0,0,1-1.44.34c-1.61.08-3.23.09-4.85,0a2.87,2.87,0,0,1-1.2-.21c-.69-.34-1-1.13-1.42-1.77-1.5-2.28-4.64-2.76-7.36-2.56a7.93,7.93,0,0,0-3.75,1,3.41,3.41,0,0,0-1.69,3.28c.28,1.67,2,2.63,3.65,3.16,3.35,1.09,6.9,1.38,10.29,2.34s6.77,2.75,8.41,5.86a11,11,0,0,1,1,6.14,11.7,11.7,0,0,1-2.42,6.33c-2.47,3-6.53,4.24-10.4,4.81C294.91,235.09,290.45,235.13,286.5,233.56ZM295.24,189h0a1.31,1.31,0,0,1,1.31,1.3v48.17a1.31,1.31,0,0,1-1.31,1.3h0a1.3,1.3,0,0,1-1.3-1.3V190.29A1.3,1.3,0,0,1,295.24,189Z" fill="#fff"/><g id="people_first" data-name="people first"><ellipse cx="106.56" cy="137.8" rx="8.5" ry="8.3" fill="#15a24a"/><path d="M104.56,148.9h4A11.44,11.44,0,0,1,120,160.34v11.94a1.37,1.37,0,0,1-1.37,1.37H94.49a1.37,1.37,0,0,1-1.37-1.37V160.34A11.44,11.44,0,0,1,104.56,148.9Z" fill="#d7cbac"/></g></g></g></g></svg>