<svg xmlns="http://www.w3.org/2000/svg" viewBox="0 0 400 400"><title>time-money</title><g id="Layer_2" data-name="Layer 2"><g id="Layer_3" data-name="Layer 3"><g id="shared_economy" data-name="shared economy"><path d="M400,200v.42C399.77,310.69,310.32,400,200,400A200,200,0,0,1,0,200C0,89.54,89.54,0,200,0S400,89.54,400,200Z" fill="#04773b"/><path d="M373,200v.36a173.18,173.18,0,1,1,0-.36Z" fill="#20bc55"/><path d="M199.79,90.87l13.57,89.3c2.71,16.92-3.48,34.47-12.43,34.85h-.58a10,10,0,0,1-3.3-.6c-7.66-2.73-12.53-17.82-10.65-32.79L198.53,91C198.69,89.68,199.59,89.62,199.79,90.87Z" fill="#04773b"/><path d="M89.84,201.24l89.3-13.56c16.91-2.71,34.47,3.48,34.85,12.43,0,.19,0,.38,0,.57a9.78,9.78,0,0,1-.61,3.31c-2.73,7.65-17.82,12.52-32.78,10.64L89.92,202.51C88.65,202.35,88.59,201.44,89.84,201.24Z" fill="#04773b"/><path d="M197.71,205l-.19-.08a3.77,3.77,0,0,1-1.7-1.53,2.79,2.79,0,0,1-.24-.53,2.93,2.93,0,0,1-.13-.57,2.53,2.53,0,0,1,0-.28h2.43s.12,0,.15,0a.08.08,0,0,1,0,.05,1.18,1.18,0,0,0,.4.65,1.8,1.8,0,0,0,.66.4,3.51,3.51,0,0,0,1.61.08,2.24,2.24,0,0,0,.95-.29,1,1,0,0,0,.48-.82,1,1,0,0,0-.42-.69,2.37,2.37,0,0,0-.77-.32c-.84-.23-1.72-.33-2.56-.56a4.25,4.25,0,0,1-2.23-1.3,3,3,0,0,1-.58-2.47,3.47,3.47,0,0,1,1.37-2.08,4.09,4.09,0,0,1,1.25-.54,6,6,0,0,1,1.38-.25,8.12,8.12,0,0,1,1.56.06,5.18,5.18,0,0,1,2.13.75,2.9,2.9,0,0,1,1.27,1.81.65.65,0,0,1-.17.69.77.77,0,0,1-.4.1c-.45,0-.91,0-1.36,0a.76.76,0,0,1-.34-.06c-.19-.09-.28-.32-.4-.5a2.19,2.19,0,0,0-2.06-.71,2.11,2.11,0,0,0-1.05.28,1,1,0,0,0-.48.92c.08.47.58.74,1,.88.94.31,1.93.39,2.88.66a3.71,3.71,0,0,1,2.36,1.64,3,3,0,0,1,.29,1.72,3.28,3.28,0,0,1-.68,1.78,4.49,4.49,0,0,1-2.91,1.35A6.84,6.84,0,0,1,197.71,205Zm2.45-12.5h0a.36.36,0,0,1,.36.37v13.5a.37.37,0,0,1-.36.37h0a.37.37,0,0,1-.37-.37v-13.5A.36.36,0,0,1,200.16,192.5Z" fill="#fff"/></g></g></g></svg>