<svg width="205" height="24" viewBox="0 0 205 24" fill="none" xmlns="http://www.w3.org/2000/svg">
<path d="M17.184 18H13.512L12.24 14.448H5.16L3.888 18H0.192L6.552 1.032H10.848L17.184 18ZM8.712 4.56L6.192 11.592H11.208L8.712 4.56ZM26.0072 5.664C29.0552 5.664 30.5912 7.224 30.5912 9.912V18H27.2792V10.608C27.2792 9 26.2712 8.304 24.9512 8.304C23.5592 8.304 22.3592 9 22.1672 10.944V18H18.8312V5.904H22.1672V7.272C23.0312 6.264 24.3752 5.664 26.0072 5.664ZM42.5768 7.392V-1.43051e-06H45.8888V18H42.5768V16.536C41.8568 17.64 40.4168 18.24 38.7608 18.24C35.5208 18.24 32.8808 15.912 32.8808 11.976C32.8808 8.04 35.5208 5.664 38.7608 5.664C40.4168 5.664 41.8568 6.288 42.5768 7.392ZM39.4808 15.48C41.3288 15.48 42.7208 14.184 42.7208 11.976C42.7208 9.768 41.3288 8.4 39.4808 8.4C37.6088 8.4 36.2168 9.768 36.2168 11.976C36.2168 14.184 37.6088 15.48 39.4808 15.48ZM69.7056 5.664C72.3216 5.664 73.8816 7.008 73.8816 9.24V18H70.5696V10.368C70.5696 8.976 69.6816 8.304 68.5296 8.304C67.2576 8.304 66.1536 9.048 66.1536 11.352V18H62.8176V10.368C62.8176 9 61.9296 8.304 60.7776 8.304C59.5056 8.304 58.4016 9.072 58.4016 11.352V18H55.0656V5.904H58.4016V7.32C59.2176 6.264 60.4416 5.664 61.9536 5.664C63.9216 5.664 65.2896 6.408 65.8656 7.728C66.6576 6.408 68.0016 5.664 69.7056 5.664ZM87.3538 10.104V15.816C87.3538 16.536 87.3538 17.184 87.5698 17.688V18H84.2818L84.1378 16.344C83.3218 17.616 81.6658 18.24 80.0818 18.24C78.1378 18.24 76.1458 17.376 76.1458 14.952C76.1458 12.264 78.5458 11.424 80.7058 10.968L82.9138 10.464C83.5378 10.32 84.0178 10.152 84.0178 9.576C84.0178 8.472 83.0098 8.016 81.9058 8.016C80.5618 8.016 79.6738 8.64 79.4098 9.864L76.2178 9.384C76.7458 6.816 78.9058 5.664 81.9538 5.664C85.4578 5.664 87.3538 7.224 87.3538 10.104ZM81.0658 15.936C82.6498 15.936 84.2098 14.664 84.2098 12.168L81.2338 12.936C80.2978 13.128 79.4578 13.56 79.4578 14.592C79.4578 15.48 80.1298 15.936 81.0658 15.936ZM97.3744 5.664C100.422 5.664 101.958 7.224 101.958 9.912V18H98.6464V10.608C98.6464 9 97.6384 8.304 96.3184 8.304C94.9264 8.304 93.7264 9 93.5344 10.944V18H90.1984V5.904H93.5344V7.272C94.3984 6.264 95.7424 5.664 97.3744 5.664ZM109.945 14.04L112.969 5.904H116.593L108.985 23.832H105.361L108.217 17.4L103.297 5.904H106.897L109.945 14.04ZM139.268 5.664C141.884 5.664 143.444 7.008 143.444 9.24V18H140.132V10.368C140.132 8.976 139.244 8.304 138.092 8.304C136.82 8.304 135.716 9.048 135.716 11.352V18H132.38V10.368C132.38 9 131.492 8.304 130.34 8.304C129.068 8.304 127.964 9.072 127.964 11.352V18H124.628V5.904H127.964V7.32C128.78 6.264 130.004 5.664 131.516 5.664C133.484 5.664 134.852 6.408 135.428 7.728C136.22 6.408 137.564 5.664 139.268 5.664ZM152.356 18.24C148.468 18.216 145.732 15.84 145.732 11.928C145.732 8.064 148.468 5.688 152.356 5.664C156.268 5.688 159.004 8.064 159.004 11.928C159.004 15.84 156.268 18.216 152.356 18.24ZM152.356 15.6C154.348 15.6 155.668 14.112 155.668 11.928C155.668 9.792 154.348 8.304 152.356 8.304C150.364 8.304 149.044 9.792 149.044 11.928C149.044 14.112 150.364 15.6 152.356 15.6ZM164.691 5.904V7.632C165.435 6.456 166.899 5.664 168.795 5.664V8.76C165.939 8.76 164.691 9.672 164.691 12.456V18H161.355V5.904H164.691ZM182.352 11.856L182.328 12.624H173.136C173.304 14.568 174.624 15.624 176.328 15.624C177.6 15.624 178.584 15.072 179.04 13.968L182.112 14.376C181.32 16.848 179.112 18.24 176.352 18.24C172.392 18.24 169.848 15.864 169.848 11.952C169.848 8.04 172.464 5.664 176.256 5.664C179.736 5.664 182.352 7.656 182.352 11.856ZM176.256 8.112C174.6 8.112 173.52 8.952 173.208 10.584H179.064C178.896 9.024 177.768 8.112 176.256 8.112ZM187.026 18.24C185.994 18.24 185.13 17.376 185.13 16.32C185.13 15.288 185.994 14.4 187.026 14.4C188.082 14.4 188.97 15.288 188.97 16.32C188.97 17.376 188.082 18.24 187.026 18.24ZM194.667 18.24C193.635 18.24 192.771 17.376 192.771 16.32C192.771 15.288 193.635 14.4 194.667 14.4C195.723 14.4 196.611 15.288 196.611 16.32C196.611 17.376 195.723 18.24 194.667 18.24ZM202.308 18.24C201.276 18.24 200.412 17.376 200.412 16.32C200.412 15.288 201.276 14.4 202.308 14.4C203.364 14.4 204.252 15.288 204.252 16.32C204.252 17.376 203.364 18.24 202.308 18.24Z" fill="black"/>
</svg>
