<svg width="400" height="400" viewBox="0 0 400 400" fill="none" xmlns="http://www.w3.org/2000/svg">
<g clip-path="url(#clip0_104_2)">
<path d="M246.608 270.329C247.176 272.753 246.95 275.296 245.963 277.582C244.977 279.869 243.282 281.778 241.128 283.028C238.979 284.272 236.492 284.806 234.021 284.555C231.55 284.304 229.222 283.279 227.367 281.628L144.585 206.773L152.005 258.43C152.26 260.244 152.087 262.094 151.5 263.83C150.913 265.566 149.929 267.141 148.625 268.429L61.0625 354.423C89.3317 379.402 124.671 394.971 162.183 398.973C199.696 402.976 237.525 395.213 270.429 376.761L227.707 185.675L246.608 270.329Z" fill="#098743"/>
<path d="M0.000771096 218.672C-0.0690889 242.514 4.60862 266.131 13.7612 288.147C21.2052 306.257 31.6072 323.004 44.5421 337.703L128.005 255.969L116.824 178.094C116.49 175.804 116.844 173.466 117.841 171.378C118.838 169.289 120.433 167.543 122.424 166.362C124.414 165.182 126.711 164.619 129.022 164.746C131.334 164.873 133.555 165.684 135.405 167.075L51.7223 91.6804C18.4607 125.569 -0.119839 171.19 0.000771096 218.672Z" fill="#15A64A"/>
<path d="M399.572 14.7657C399.409 11.125 397.923 7.66886 395.392 5.04639L337.75 60.7625C339.435 62.8604 340.353 65.4712 340.35 68.162V136.477C340.35 139.585 339.116 142.566 336.918 144.764C334.72 146.962 331.738 148.196 328.63 148.196C325.522 148.196 322.54 146.962 320.342 144.764C318.144 142.566 316.91 139.585 316.91 136.477V94.6202L227.707 185.674L270.348 376.721C284.754 368.611 297.989 358.58 309.689 346.903C409.492 247.11 400.012 24.2051 399.572 14.7657Z" fill="#04773B"/>
<path d="M385.233 0.426936C375.793 -0.0130338 152.867 -9.49238 53.0637 90.3007L51.7236 91.6806L135.406 167.075C135.666 167.295 135.946 167.495 136.186 167.715L215.828 239.53L203.468 184.514C203.009 182.619 203.045 180.637 203.574 178.759C204.103 176.882 205.107 175.172 206.488 173.795L298.611 79.8014H253.01C249.901 79.8014 246.92 78.5667 244.722 76.369C242.524 74.1712 241.289 71.1904 241.289 68.0823C241.289 64.9741 242.524 61.9933 244.722 59.7955C246.92 57.5978 249.901 56.3631 253.01 56.3631H328.572C330.332 56.3623 332.07 56.7553 333.658 57.5131C335.247 58.2709 336.645 59.3744 337.752 60.7428L395.394 5.04662C392.733 2.24865 389.091 0.592437 385.233 0.426936Z" fill="#20BF55"/>
</g>
<defs>
<clipPath id="clip0_104_2">
<rect width="400" height="400" fill="white"/>
</clipPath>
</defs>
</svg>
