<svg width="99" height="50" viewBox="0 0 99 50" fill="none" xmlns="http://www.w3.org/2000/svg">
<path d="M8.52153 21.8201C6.94296 21.8201 5.50664 21.4162 4.21258 20.6086C2.9277 19.801 1.90438 18.6216 1.14263 17.0706C0.380876 15.5196 0 13.6335 0 11.4125C0 9.18233 0.394643 7.28712 1.18393 5.72691C1.97321 4.16669 3.03783 2.97818 4.37778 2.16136C5.72691 1.33536 7.23206 0.922363 8.89323 0.922363C10.2699 0.922363 11.4355 1.15181 12.3899 1.61069C13.3536 2.0604 14.1337 2.64319 14.7303 3.35905C15.336 4.07492 15.7719 4.82749 16.0381 5.61678C16.3134 6.40606 16.4511 7.14028 16.4511 7.81943C16.4511 7.84697 16.4511 7.8745 16.4511 7.90203C16.4511 7.92956 16.4511 7.9571 16.4511 7.98463H12.9268C12.9268 7.9571 12.9268 7.92956 12.9268 7.90203C12.9268 7.8745 12.9268 7.84697 12.9268 7.81943C12.9268 7.34219 12.8442 6.87413 12.679 6.41524C12.5138 5.95635 12.2615 5.53876 11.9219 5.16248C11.5823 4.78619 11.1601 4.48791 10.6554 4.26765C10.1506 4.04738 9.5632 3.93725 8.89323 3.93725C7.98463 3.93725 7.1311 4.18964 6.33264 4.69441C5.54335 5.19919 4.90091 6.00224 4.40531 7.10357C3.91889 8.19572 3.67568 9.63204 3.67568 11.4125C3.67568 12.7616 3.81335 13.9089 4.08868 14.8542C4.36401 15.7995 4.73571 16.5658 5.20378 17.1532C5.68102 17.7406 6.22251 18.1719 6.82824 18.4473C7.44315 18.7134 8.09018 18.8465 8.76933 18.8465C9.6871 18.8465 10.4489 18.6905 11.0546 18.3784C11.6695 18.0664 12.1467 17.6763 12.4863 17.2083C12.8351 16.7402 13.0553 16.2813 13.1471 15.8316V14.2484H8.81063V11.5226H16.396V21.5172H14.3035L14.0006 19.2595C13.9364 19.4247 13.785 19.6495 13.5463 19.934C13.3169 20.2186 12.9865 20.5077 12.5551 20.8013C12.1238 21.0859 11.5731 21.3245 10.9032 21.5172C10.2424 21.7191 9.44848 21.8201 8.52153 21.8201Z" fill="#20BF55"/>
<path d="M20.0319 21.5172V6.89707H23.6525V11.7567L22.8128 11.2886C22.9045 10.6554 23.0743 10.0588 23.3221 9.49896C23.5699 8.92994 23.9003 8.43434 24.3133 8.01217C24.7263 7.58081 25.2265 7.24582 25.8139 7.0072C26.4013 6.76858 27.0712 6.64927 27.8238 6.64927C28.4204 6.64927 28.8884 6.69516 29.228 6.78694C29.5768 6.86954 29.7924 6.93837 29.875 6.99344L29.2142 10.3112C29.1225 10.2469 28.9343 10.1689 28.6498 10.0772C28.3745 9.9762 28.0028 9.92572 27.5347 9.92572C26.7913 9.92572 26.1672 10.0542 25.6625 10.3112C25.1669 10.559 24.7722 10.8986 24.4785 11.3299C24.1848 11.7521 23.9738 12.2202 23.8453 12.7341C23.7168 13.2389 23.6525 13.7437 23.6525 14.2484V21.5172H20.0319Z" fill="#20BF55"/>
<path d="M39.0757 21.8063C37.5338 21.8063 36.1755 21.4851 35.0007 20.8426C33.826 20.191 32.9036 19.2916 32.2336 18.1444C31.5728 16.9972 31.2425 15.6848 31.2425 14.2071C31.2425 12.7203 31.5728 11.4125 32.2336 10.2837C32.9036 9.14562 33.826 8.25537 35.0007 7.61293C36.1755 6.97049 37.5338 6.64927 39.0757 6.64927C40.6175 6.64927 41.9758 6.97049 43.1506 7.61293C44.3253 8.25537 45.2431 9.14562 45.9039 10.2837C46.5739 11.4125 46.9088 12.7203 46.9088 14.2071C46.9088 15.6848 46.5739 16.9972 45.9039 18.1444C45.2431 19.2916 44.3253 20.191 43.1506 20.8426C41.9758 21.4851 40.6175 21.8063 39.0757 21.8063ZM39.0757 18.8465C39.9108 18.8465 40.6404 18.6538 41.2645 18.2683C41.8886 17.8828 42.375 17.3459 42.7238 16.6576C43.0726 15.9601 43.2469 15.1433 43.2469 14.2071C43.2469 13.271 43.0726 12.4634 42.7238 11.7842C42.375 11.0959 41.8886 10.5636 41.2645 10.1873C40.6404 9.811 39.9108 9.62286 39.0757 9.62286C38.2497 9.62286 37.52 9.811 36.8868 10.1873C36.2627 10.5636 35.7763 11.0959 35.4275 11.7842C35.0787 12.4634 34.9044 13.271 34.9044 14.2071C34.9044 15.1433 35.0787 15.9601 35.4275 16.6576C35.7763 17.3459 36.2627 17.8828 36.8868 18.2683C37.52 18.6538 38.2497 18.8465 39.0757 18.8465Z" fill="#20BF55"/>
<path d="M61.3659 21.5172L57.9656 6.89707H60.7327L64.0504 20.3746H63.4585L65.5785 6.89707H69.3368L66.3357 21.5172H61.3659ZM51.2888 21.5172L48.2739 6.89707H52.0322L54.166 20.3746H53.574L56.8643 6.89707H59.6313L56.2861 21.5172H51.2888Z" fill="#20BF55"/>
<path d="M78.4017 21.7925C77.8785 21.7925 77.3462 21.7421 76.8047 21.6411C76.2633 21.5401 75.7677 21.352 75.318 21.0767C74.8682 20.8013 74.5057 20.3975 74.2304 19.8652C73.9551 19.3329 73.8174 18.6308 73.8174 17.7589C73.8174 17.557 73.8174 17.3551 73.8174 17.1532C73.8174 16.9421 73.8174 16.7264 73.8174 16.5062V9.78806H70.362V6.89707H71.7662C72.2434 6.89707 72.6197 6.87871 72.895 6.842C73.1704 6.79611 73.3723 6.69516 73.5008 6.53914C73.6292 6.38312 73.7119 6.13991 73.7486 5.80951C73.7945 5.46993 73.8174 5.00187 73.8174 4.40531V2.07876H77.4518V6.89707H81.802V9.78806H77.4518V15.6526C77.4518 15.827 77.4518 16.0014 77.4518 16.1758C77.4518 16.341 77.4518 16.5016 77.4518 16.6576C77.4518 17.3367 77.5344 17.8828 77.6996 18.2958C77.8648 18.7088 78.2548 18.9153 78.8697 18.9153C79.1634 18.9153 79.4388 18.8878 79.6957 18.8327C79.9619 18.7777 80.1592 18.7226 80.2877 18.6675V21.5034C80.1133 21.5677 79.8609 21.6319 79.5305 21.6962C79.2001 21.7604 78.8239 21.7925 78.4017 21.7925Z" fill="#20BF55"/>
<path d="M94.8885 21.5172V16.2446C94.8885 16.0243 94.8885 15.749 94.8885 15.4186C94.8885 15.0882 94.8885 14.7532 94.8885 14.4136C94.8885 14.0741 94.8885 13.7941 94.8885 13.5739C94.8885 12.3624 94.6499 11.4355 94.1726 10.793C93.7046 10.1414 92.9015 9.81559 91.7635 9.81559C91.0017 9.81559 90.3501 9.96702 89.8086 10.2699C89.2763 10.5636 88.8679 10.9766 88.5834 11.5089C88.2989 12.0412 88.1566 12.6561 88.1566 13.3536L86.835 12.6515C86.835 11.4859 87.0966 10.4534 87.6197 9.55403C88.152 8.64543 88.8862 7.93415 89.8224 7.4202C90.7585 6.90625 91.8323 6.64927 93.0438 6.64927C94.8151 6.64927 96.1688 7.17699 97.1049 8.23243C98.041 9.27869 98.5091 10.738 98.5091 12.6102C98.5091 13.0875 98.5091 13.6565 98.5091 14.3173C98.5091 14.9689 98.5091 15.7031 98.5091 16.5199V21.5172H94.8885ZM84.536 21.5172V0H88.1566V21.5172H84.536Z" fill="#20BF55"/>
<path d="M16.5888 42.3733C16.5888 43.236 16.4282 44.1125 16.1069 45.0027C15.7857 45.893 15.2947 46.719 14.6339 47.4807C13.9823 48.2333 13.1563 48.839 12.1559 49.2979C11.1555 49.7568 9.98079 49.9862 8.63166 49.9862C6.80529 49.9862 5.24508 49.5411 3.95102 48.6509C2.66613 47.7515 1.68411 46.517 1.00496 44.9477C0.334987 43.3783 0 41.5748 0 39.5374C0 37.4907 0.334987 35.6827 1.00496 34.1133C1.68411 32.5439 2.66613 31.3141 3.95102 30.4239C5.24508 29.5336 6.80529 29.0885 8.63166 29.0885C10.146 29.0885 11.4401 29.3776 12.5138 29.9558C13.5876 30.534 14.4458 31.2774 15.0882 32.186C15.7306 33.0946 16.162 34.0445 16.3823 35.0357C16.5199 35.6139 16.5888 36.1646 16.5888 36.6877H12.9406C12.9406 36.4215 12.9223 36.1462 12.8855 35.8617C12.7846 35.1642 12.5506 34.5309 12.1834 33.9619C11.8255 33.3837 11.3483 32.9294 10.7517 32.599C10.1552 32.2594 9.44848 32.0896 8.63166 32.0896C7.65882 32.0896 6.8007 32.3604 6.05731 32.9019C5.32309 33.4434 4.74489 34.2648 4.32271 35.3661C3.90054 36.4674 3.68945 37.8578 3.68945 39.5374C3.68945 41.1985 3.90054 42.5844 4.32271 43.6949C4.74489 44.8054 5.32309 45.636 6.05731 46.1866C6.8007 46.7373 7.65882 47.0126 8.63166 47.0126C9.32917 47.0126 9.94408 46.8842 10.4764 46.6272C11.0087 46.3702 11.4584 46.026 11.8255 45.5947C12.1926 45.1542 12.468 44.6586 12.6515 44.1079C12.8442 43.5572 12.9406 42.979 12.9406 42.3733H16.5888Z" fill="#20BF55"/>
<path d="M23.4007 28.1662V49.6834H19.8351V28.1662H23.4007Z" fill="#20BF55"/>
<path d="M27.0346 49.6834V35.0632H30.6139V49.6834H27.0346ZM28.838 32.365C28.2507 32.365 27.7367 32.209 27.2962 31.8969C26.8648 31.5757 26.6491 31.1306 26.6491 30.5615C26.6491 30.0017 26.8648 29.5658 27.2962 29.2537C27.7367 28.9417 28.2507 28.7857 28.838 28.7857C29.4162 28.7857 29.921 28.9417 30.3524 29.2537C30.7837 29.5658 30.9994 30.0017 30.9994 30.5615C30.9994 31.1306 30.7837 31.5757 30.3524 31.8969C29.921 32.209 29.4162 32.365 28.838 32.365Z" fill="#20BF55"/>
<path d="M44.5406 49.6834V43.1993C44.5406 42.8322 44.5406 42.511 44.5406 42.2356C44.5406 41.9511 44.5406 41.6941 44.5406 41.4647C44.5406 40.8039 44.4442 40.2119 44.2515 39.6888C44.0679 39.1565 43.7467 38.7389 43.2878 38.436C42.8381 38.1332 42.214 37.9818 41.4155 37.9818C40.718 37.9818 40.0985 38.1515 39.557 38.4911C39.0156 38.8215 38.5888 39.2804 38.2768 39.8678C37.9739 40.446 37.8225 41.1159 37.8225 41.8777L36.5972 41.1205C36.5972 39.8999 36.8726 38.8169 37.4232 37.8716C37.9831 36.9171 38.7311 36.1691 39.6672 35.6277C40.6033 35.0862 41.6404 34.8154 42.7784 34.8154C43.9532 34.8154 44.9398 35.0449 45.7383 35.5038C46.5459 35.9626 47.1516 36.6143 47.5554 37.4586C47.9684 38.303 48.1749 39.2942 48.1749 40.4322C48.1749 40.8727 48.1749 41.3683 48.1749 41.919C48.1749 42.4697 48.1749 43.0112 48.1749 43.5435V49.6834H44.5406ZM34.2018 49.6834V35.0632H37.8225V49.6834H34.2018Z" fill="#20BF55"/>
<path d="M51.5833 49.6834V35.0632H55.1626V49.6834H51.5833ZM53.3867 32.365C52.7993 32.365 52.2854 32.209 51.8448 31.8969C51.4135 31.5757 51.1978 31.1306 51.1978 30.5615C51.1978 30.0017 51.4135 29.5658 51.8448 29.2537C52.2854 28.9417 52.7993 28.7857 53.3867 28.7857C53.9649 28.7857 54.4697 28.9417 54.901 29.2537C55.3324 29.5658 55.548 30.0017 55.548 30.5615C55.548 31.1306 55.3324 31.5757 54.901 31.8969C54.4697 32.209 53.9649 32.365 53.3867 32.365Z" fill="#20BF55"/>
<path d="M65.978 49.9862C64.4361 49.9862 63.0732 49.6696 61.8893 49.0363C60.7054 48.4031 59.7784 47.5128 59.1084 46.3656C58.4384 45.2184 58.1035 43.8739 58.1035 42.332C58.1035 40.7993 58.4384 39.4685 59.1084 38.3397C59.7784 37.2108 60.7054 36.3435 61.8893 35.7378C63.0732 35.1229 64.4361 34.8154 65.978 34.8154C67.1344 34.8154 68.1577 34.9852 69.0479 35.3248C69.9382 35.6644 70.6861 36.1187 71.2919 36.6877C71.9068 37.2475 72.3748 37.867 72.6961 38.5462C73.0173 39.2162 73.1779 39.8861 73.1779 40.5561C73.1779 40.5745 73.1779 40.5928 73.1779 40.6112C73.1779 40.6295 73.1779 40.6479 73.1779 40.6662H69.5848C69.5848 40.6203 69.5802 40.5699 69.571 40.5148C69.5619 40.4597 69.5527 40.4047 69.5435 40.3496C69.4701 39.8815 69.2819 39.4594 68.9791 39.0831C68.6762 38.6976 68.2724 38.3902 67.7676 38.1607C67.2628 37.9313 66.6525 37.8165 65.9367 37.8165C65.1749 37.8165 64.4774 37.9863 63.8441 38.3259C63.2201 38.6563 62.7199 39.1565 62.3436 39.8265C61.9765 40.4964 61.7929 41.3316 61.7929 42.332C61.7929 43.3232 61.9765 44.1675 62.3436 44.8651C62.7107 45.5534 63.2063 46.0811 63.8304 46.4482C64.4636 46.8061 65.1657 46.9851 65.9367 46.9851C66.7535 46.9851 67.4189 46.8612 67.9328 46.6134C68.4559 46.3564 68.8506 46.0169 69.1167 45.5947C69.3829 45.1633 69.5343 44.6953 69.571 44.1905H73.1779C73.1779 44.8696 73.0219 45.5534 72.7098 46.2417C72.3978 46.9209 71.9389 47.545 71.3332 48.114C70.7274 48.683 69.9749 49.1373 69.0754 49.4769C68.1852 49.8164 67.1527 49.9862 65.978 49.9862Z" fill="#20BF55"/>
<path d="M90.2074 42.9207C90.2384 43.0531 90.226 43.1919 90.1722 43.3167C90.1183 43.4415 90.0258 43.5457 89.9082 43.614C89.7909 43.6819 89.6551 43.7111 89.5202 43.6974C89.3853 43.6836 89.2582 43.6277 89.157 43.5376L84.6378 39.4511L85.0428 42.2711C85.0567 42.3702 85.0473 42.4712 85.0153 42.5659C84.9832 42.6607 84.9295 42.7467 84.8583 42.817L80.0781 47.5116C81.6214 48.8752 83.5506 49.7252 85.5985 49.9436C87.6463 50.1621 89.7115 49.7384 91.5078 48.7311L89.1755 38.2993L90.2074 42.9207Z" fill="#098743"/>
<path d="M76.7461 40.1006C76.7423 41.4022 76.9977 42.6915 77.4973 43.8934C77.9037 44.882 78.4716 45.7963 79.1777 46.5988L83.7341 42.1368L83.1237 37.8855C83.1055 37.7604 83.1248 37.6328 83.1792 37.5188C83.2336 37.4047 83.3207 37.3094 83.4294 37.245C83.5381 37.1805 83.6635 37.1498 83.7896 37.1567C83.9158 37.1637 84.0371 37.2079 84.1381 37.2839L79.5697 33.168C77.7539 35.018 76.7396 37.5085 76.7461 40.1006Z" fill="#15A64A"/>
<path d="M98.5582 28.9691C98.5493 28.7703 98.4681 28.5816 98.33 28.4385L95.1832 31.4801C95.2752 31.5946 95.3253 31.7372 95.3252 31.8841V35.6135C95.3252 35.7832 95.2578 35.9459 95.1378 36.0659C95.0178 36.1859 94.855 36.2533 94.6853 36.2533C94.5156 36.2533 94.3529 36.1859 94.2329 36.0659C94.1129 35.9459 94.0455 35.7832 94.0455 35.6135V33.3285L89.1758 38.2992L91.5036 48.7288C92.29 48.2861 93.0126 47.7385 93.6513 47.101C99.0997 41.6531 98.5822 29.4844 98.5582 28.9691Z" fill="#04773B"/>
<path d="M97.7772 28.1864C97.2618 28.1624 85.0919 27.6449 79.6435 33.0928L79.5703 33.1681L84.1387 37.284C84.1529 37.296 84.1682 37.307 84.1813 37.319L88.5291 41.2395L87.8543 38.2361C87.8292 38.1326 87.8312 38.0244 87.8601 37.9219C87.889 37.8194 87.9438 37.726 88.0192 37.6509L93.0483 32.5196H90.5588C90.3892 32.5196 90.2264 32.4522 90.1064 32.3322C89.9864 32.2122 89.919 32.0495 89.919 31.8798C89.919 31.7102 89.9864 31.5474 90.1064 31.4275C90.2264 31.3075 90.3892 31.2401 90.5588 31.2401H94.6839C94.78 31.24 94.8749 31.2615 94.9616 31.3028C95.0483 31.3442 95.1247 31.4045 95.1851 31.4792L98.3318 28.4386C98.1866 28.2859 97.9878 28.1955 97.7772 28.1864Z" fill="#20BF55"/>
</svg>
