<svg xmlns="http://www.w3.org/2000/svg" viewBox="0 0 300 300"><path fill="#DBCFB0" d="M257.41 248.18c-9.56-2.44-19.3-3.88-29.13-4.32 1.64-6.08 3.28-12.17 4.93-18.25 1-3.69-2.46-7.14-6.15-6.15l-19.69 5.31-9.38 2.53c-1.04.28-9.5 1.86-8.87 3.64-.95-2.51 7.58-12.54 8.63-14.08 4.13-6.02 8.26-12.03 12.39-18.05 2.53-3.68-1.65-8.47-5.65-7.34-40.7 11.4-76.34 35.64-116.61 48.01 3.59-10.92 10.26-20.51 17.69-29.39 10.2-12.17 21.19-23.73 32.23-35.13 22.43-23.17 45.81-45.39 68.65-68.15 10.78-10.74 24.43-22.44 24.26-39-.04-3.52-4.33-6.59-7.52-4.32-55.07 39.17-111.26 76.73-168.47 112.7 8.3-22.03 20.96-42.12 34.74-61.22 8.21-11.38 16.83-22.45 25.33-33.61 6.2-8.14 20.34-21.83 12.39-32.82-1.6-2.21-4.3-3.23-6.84-1.79L84.7 66.94l-16.97 9.61-9.33 5.29c-1.04.59-2.64 1.75-4.25 2.48 6.93-22.7 27.82-39.1 32.16-63.13.76-4.23-3.31-7.85-7.34-5.65a526.546 526.546 0 00-55.54 35.04c-5.17 3.73-.18 12.41 5.05 8.63a526.455 526.455 0 0144.61-28.88c-8.35 19.8-26.08 35.37-30.05 57.29-.4 2.2.26 4.47 2.3 5.65 5.6 3.24 11.19 1.07 16.41-1.84 7.1-3.96 14.14-8.01 21.21-12.02 11.89-6.74 23.78-13.47 35.68-20.21-1.56 3.68-5.25 7.55-6.91 9.76a2339 2339 0 01-12.21 16.05c-8.01 10.47-16.01 20.95-23.55 31.77-14.97 21.47-28.01 44.43-35.21 69.74-1.17 4.12 3.62 7.97 7.34 5.65A3546.948 3546.948 0 00217.37 79.8c-4.9 8.78-14.17 16.15-20.67 22.6-11.33 11.25-22.78 22.39-34.17 33.58-22.37 22-45.13 44.1-65.12 68.33-9.92 12.02-18.75 25.36-21.3 41.02-.6 3.68 2.17 7.19 6.15 6.15 39.08-10.17 73.33-32.65 111.18-46.01-2.96 4.3-5.91 8.61-8.87 12.91-3.38 4.92-7.92 11.94-3.79 17.82 4.77 6.8 14.55 2.17 20.77.49l19.71-5.31-4.32 15.99c-.85 3.13 1.56 6.33 4.82 6.33 11.18 0 22.13 1.36 32.95 4.13 6.24 1.59 8.9-8.05 2.66-9.64z"></path></svg>